<?xml version="1.0" standalone="no"?>
<svg width="567.429" height="405.449" viewBox="0 0 567.429 405.449" xmlns="http://www.w3.org/2000/svg" shape-rendering="crispEdges">
<title>
output/spheroid/spheroid.svg
</title>
<desc>
Creator: ROOT Version 6.25/01
CreationDate: Fri Sep 23 16:10:54 2022</desc>
<defs>
</defs>
<rect x="0.5" y="0" width="566.929" height="404.949" fill="white"/>
<rect x="57.1929" y="40.4949" width="453.543" height="323.96" fill="white"/>
<rect x="57.1929" y="40.4949" width="453.543" height="323.96" fill="none" stroke="black"/>
<rect x="57.1929" y="40.4949" width="453.543" height="323.96" fill="white"/>
<rect x="57.1929" y="40.4949" width="453.543" height="323.96" fill="none" stroke="black"/>
<path d="M57.1929,364.454h 453.543" fill="none" stroke="black"/>
<path d="M77.8085,40.4949v 323.96" fill="none" stroke="black" stroke-dasharray=" 1, 2"/>
<path d="M160.353,40.4949v 323.96" fill="none" stroke="black" stroke-dasharray=" 1, 2"/>
<path d="M242.898,40.4949v 323.96" fill="none" stroke="black" stroke-dasharray=" 1, 2"/>
<path d="M325.443,40.4949v 323.96" fill="none" stroke="black" stroke-dasharray=" 1, 2"/>
<path d="M407.988,40.4949v 323.96" fill="none" stroke="black" stroke-dasharray=" 1, 2"/>
<path d="M490.533,40.4949v 323.96" fill="none" stroke="black" stroke-dasharray=" 1, 2"/>
<path d="M77.8085,40.4949v 323.96" fill="none" stroke="black" stroke-dasharray=" 1, 2"/>
<path d="M490.533,40.4949v 323.96" fill="none" stroke="black" stroke-dasharray=" 1, 2"/>
<path d="M57.1929,364.454v -323.96" fill="none" stroke="black"/>
<path d="M510.736,364.454h -453.543" fill="none" stroke="black" stroke-dasharray=" 1, 2"/>
<path d="M510.736,321.603h -453.543" fill="none" stroke="black" stroke-dasharray=" 1, 2"/>
<path d="M510.736,278.751h -453.543" fill="none" stroke="black" stroke-dasharray=" 1, 2"/>
<path d="M510.736,235.899h -453.543" fill="none" stroke="black" stroke-dasharray=" 1, 2"/>
<path d="M510.736,193.047h -453.543" fill="none" stroke="black" stroke-dasharray=" 1, 2"/>
<path d="M510.736,150.196h -453.543" fill="none" stroke="black" stroke-dasharray=" 1, 2"/>
<path d="M510.736,107.344h -453.543" fill="none" stroke="black" stroke-dasharray=" 1, 2"/>
<path d="M510.736,64.4919h -453.543" fill="none" stroke="black" stroke-dasharray=" 1, 2"/>
<path d="M510.736,64.4919h -453.543" fill="none" stroke="black" stroke-dasharray=" 1, 2"/>
<path d="M57.1929,364.454h 453.543" fill="none" stroke="black"/>
<path d="M77.8085,354.736v 9.71878" fill="none" stroke="black"/>
<path d="M98.4448,359.595v 4.85939" fill="none" stroke="black"/>
<path d="M119.081,359.595v 4.85939" fill="none" stroke="black"/>
<path d="M139.717,359.595v 4.85939" fill="none" stroke="black"/>
<path d="M160.353,354.736v 9.71878" fill="none" stroke="black"/>
<path d="M180.99,359.595v 4.85939" fill="none" stroke="black"/>
<path d="M201.626,359.595v 4.85939" fill="none" stroke="black"/>
<path d="M222.262,359.595v 4.85939" fill="none" stroke="black"/>
<path d="M242.898,354.736v 9.71878" fill="none" stroke="black"/>
<path d="M263.535,359.595v 4.85939" fill="none" stroke="black"/>
<path d="M284.171,359.595v 4.85939" fill="none" stroke="black"/>
<path d="M304.807,359.595v 4.85939" fill="none" stroke="black"/>
<path d="M325.443,354.736v 9.71878" fill="none" stroke="black"/>
<path d="M346.08,359.595v 4.85939" fill="none" stroke="black"/>
<path d="M366.716,359.595v 4.85939" fill="none" stroke="black"/>
<path d="M387.352,359.595v 4.85939" fill="none" stroke="black"/>
<path d="M407.988,354.736v 9.71878" fill="none" stroke="black"/>
<path d="M428.625,359.595v 4.85939" fill="none" stroke="black"/>
<path d="M449.261,359.595v 4.85939" fill="none" stroke="black"/>
<path d="M469.897,359.595v 4.85939" fill="none" stroke="black"/>
<path d="M490.533,354.736v 9.71878" fill="none" stroke="black"/>
<path d="M77.8085,354.736v 9.71878" fill="none" stroke="black"/>
<path d="M490.533,354.736v 9.71878" fill="none" stroke="black"/>
<text xml:space="preserve" x="73.3909" y="377.413" fill="black" font-size="13.503" font-family="Helvetica">0</text>
<text xml:space="preserve" x="156.001" y="377.413" fill="black" font-size="13.503" font-family="Helvetica">2</text>
<text xml:space="preserve" x="238.61" y="377.413" fill="black" font-size="13.503" font-family="Helvetica">4</text>
<text xml:space="preserve" x="321.22" y="377.413" fill="black" font-size="13.503" font-family="Helvetica">6</text>
<text xml:space="preserve" x="403.83" y="377.413" fill="black" font-size="13.503" font-family="Helvetica">8</text>
<text xml:space="preserve" x="483.2" y="377.413" fill="black" font-size="13.503" font-family="Helvetica">10</text>
<text xml:space="preserve" x="481.58" y="391.991" fill="black" font-size="13.503" font-family="Helvetica">Time</text>
<path d="M57.1929,364.454v -323.96" fill="none" stroke="black"/>
<path d="M70.7992,364.454h -13.6063" fill="none" stroke="black"/>
<path d="M63.9961,353.741h -6.80315" fill="none" stroke="black"/>
<path d="M63.9961,343.029h -6.80315" fill="none" stroke="black"/>
<path d="M63.9961,332.316h -6.80315" fill="none" stroke="black"/>
<path d="M70.7992,321.603h -13.6063" fill="none" stroke="black"/>
<path d="M63.9961,310.89h -6.80315" fill="none" stroke="black"/>
<path d="M63.9961,300.177h -6.80315" fill="none" stroke="black"/>
<path d="M63.9961,289.464h -6.80315" fill="none" stroke="black"/>
<path d="M70.7992,278.751h -13.6063" fill="none" stroke="black"/>
<path d="M63.9961,268.038h -6.80315" fill="none" stroke="black"/>
<path d="M63.9961,257.325h -6.80315" fill="none" stroke="black"/>
<path d="M63.9961,246.612h -6.80315" fill="none" stroke="black"/>
<path d="M70.7992,235.899h -13.6063" fill="none" stroke="black"/>
<path d="M63.9961,225.186h -6.80315" fill="none" stroke="black"/>
<path d="M63.9961,214.473h -6.80315" fill="none" stroke="black"/>
<path d="M63.9961,203.76h -6.80315" fill="none" stroke="black"/>
<path d="M70.7992,193.047h -13.6063" fill="none" stroke="black"/>
<path d="M63.9961,182.334h -6.80315" fill="none" stroke="black"/>
<path d="M63.9961,171.621h -6.80315" fill="none" stroke="black"/>
<path d="M63.9961,160.908h -6.80315" fill="none" stroke="black"/>
<path d="M70.7992,150.196h -13.6063" fill="none" stroke="black"/>
<path d="M63.9961,139.483h -6.80315" fill="none" stroke="black"/>
<path d="M63.9961,128.77h -6.80315" fill="none" stroke="black"/>
<path d="M63.9961,118.057h -6.80315" fill="none" stroke="black"/>
<path d="M70.7992,107.344h -13.6063" fill="none" stroke="black"/>
<path d="M63.9961,96.6308h -6.80315" fill="none" stroke="black"/>
<path d="M63.9961,85.9178h -6.80315" fill="none" stroke="black"/>
<path d="M63.9961,75.2049h -6.80315" fill="none" stroke="black"/>
<path d="M70.7992,64.4919h -13.6063" fill="none" stroke="black"/>
<path d="M70.7992,64.4919h -13.6063" fill="none" stroke="black"/>
<path d="M63.9961,53.779h -6.80315" fill="none" stroke="black"/>
<path d="M63.9961,43.066h -6.80315" fill="none" stroke="black"/>
<text xml:space="preserve" x="46.6642" y="369.314" fill="black" font-size="13.503" font-family="Helvetica">0</text>
<text xml:space="preserve" x="39.3751" y="326.389" fill="black" font-size="13.503" font-family="Helvetica">20</text>
<text xml:space="preserve" x="39.3751" y="283.465" fill="black" font-size="13.503" font-family="Helvetica">40</text>
<text xml:space="preserve" x="39.3751" y="240.54" fill="black" font-size="13.503" font-family="Helvetica">60</text>
<text xml:space="preserve" x="39.3751" y="197.615" fill="black" font-size="13.503" font-family="Helvetica">80</text>
<text xml:space="preserve" x="32.0861" y="154.691" fill="black" font-size="13.503" font-family="Helvetica">100</text>
<text xml:space="preserve" x="32.0861" y="111.766" fill="black" font-size="13.503" font-family="Helvetica">120</text>
<text xml:space="preserve" x="32.0861" y="68.8414" fill="black" font-size="13.503" font-family="Helvetica">140</text>
<g transform="rotate(-90,18.3178,143.352)">
<text xml:space="preserve" x="18.3178" y="143.352" fill="black" font-size="13.503" font-family="Helvetica">Number of agents</text>
</g>
<path d="M77.8085,150.196h 0.82545l 0.412725, 8.57036l 0.412725, 4.28518l 0.412725, 2.14259l 0.412725, 14.9981l 0.412725, 10.7129l 0.412725, 19.2833l 0.412725, 25.7111l 0.412725, 2.14259l 0.412725, 23.5685l 0.412725, 23.5685l 0.412725, 23.5685l
 0.412725, 10.7129l 0.412725, 14.9981l 0.412725, 10.7129l 0.412725, 6.42777l 0.412725, 8.57036l 0.412725, 4.28518h 0.82545l 0.412725, -2.14259l 0.412725, -2.14259l 0.412725, -2.14259h 0.412725l 0.412725, -4.28518l 0.412725, -4.28518l 0.412725,
 -8.57036h 0.412725l 0.412725, -6.42777l 0.412725, -8.57036l 0.412725, -8.57036l 0.412725, -23.5685l 0.412725, 4.28518l 0.412725, -12.8555l 0.412725, -4.28518l 0.412725, -2.14259l 0.412725, -10.7129l 0.412725, -23.5685h 0.412725l 0.412725, 6.42777l
 0.412725, 4.28518l 0.412725, 4.28518h 0.412725l 0.412725, -6.42777h 0.412725l 0.412725, 2.14259l 0.412725, 2.14259l 0.412725, 12.8555l 0.412725, 8.57036l 0.412725, 8.57036l 0.412725, 14.9981l 0.412725, 6.42777l 0.412725, 8.57036l 0.412725, 10.7129h
 0.412725l 0.412725, 4.28518l 0.412725, 4.28518l 0.412725, -2.14259l 0.412725, -2.14259h 0.412725l 0.412725, 2.14259l 0.412725, -2.14259l 0.412725, -4.28518h 1.23817l 0.412725, -4.28518l 0.412725, -8.57036l 0.412725, 2.14259l 0.412725, -4.28518l
 0.412725, -4.28518l 0.412725, -12.8555l 0.412725, -8.57036l 0.412725, -10.7129h 0.412725l 0.412725, -6.42777l 0.412725, -4.28518l 0.412725, -6.42777l 0.412725, -14.9981l 0.412725, 2.14259h 0.412725l 0.412725, 4.28518l 0.412725, 17.1407l 0.412725,
 8.57036l 0.412725, 10.7129l 0.412725, 2.14259l 0.412725, 6.42777l 0.412725, 6.42777l 0.412725, 10.7129l 0.412725, -2.14259l 0.412725, 4.28518l 0.412725, 6.42777l 0.412725, 12.8555l 0.412725, -2.14259h 0.412725l 0.412725, 2.14259l 0.412725, 4.28518l
 0.412725, -6.42777h 0.412725l 0.412725, -6.42777l 0.412725, -2.14259l 0.412725, -2.14259l 0.412725, 2.14259l 0.412725, -2.14259l 0.412725, -2.14259l 0.412725, -12.8555l 0.412725, -2.14259l 0.412725, -6.42777h 0.412725l 0.412725, -2.14259h 0.412725l
 0.412725, -4.28518l 0.412725, -10.7129l 0.412725, -14.9981l 0.412725, -4.28518l 0.412725, 2.14259l 0.412725, 2.14259l 0.412725, -2.14259l 0.412725, 10.7129l 0.412725, 4.28518l 0.412725, 10.7129l 0.412725, 2.14259l 0.412725, -2.14259h 0.412725l
 0.412725, 4.28518l 0.412725, 2.14259l 0.412725, 2.14259l 0.412725, -4.28518l 0.412725, -2.14259l 0.412725, 6.42777l 0.412725, 2.14259l 0.412725, 2.14259l 0.412725, -2.14259l 0.412725, 6.42777l 0.412725, 8.57036l 0.412725, -2.14259h 0.412725l
 0.412725, 2.14259h 0.412725l 0.412725, -2.14259h 0.412725l 0.412725, -2.14259l 0.412725, -6.42777l 0.412725, -2.14259l 0.412725, -6.42777l 0.412725, -12.8555l 0.412725, 2.14259l 0.412725, -12.8555l 0.412725, 6.42777h 0.412725l 0.412725, 12.8555l
 0.412725, 6.42777l 0.412725, 10.7129l 0.412725, -2.14259h 0.412725l 0.412725, -6.42777l 0.412725, 8.57036l 0.412725, 2.14259h 0.412725l 0.412725, -2.14259l 0.412725, -8.57036l 0.412725, 6.42777h 0.412725l 0.412725, -4.28518l 0.412725, 2.14259l
 0.412725, 6.42777l 0.412725, 2.14259l 0.412725, -8.57036l 0.412725, 6.42777l 0.412725, 8.57036l 0.412725, 6.42777l 0.412725, -4.28518l 0.412725, -10.7129l 0.412725, -4.28518h 0.412725l 0.412725, 4.28518l 0.412725, -2.14259l 0.412725, -4.28518l
 0.412725, -6.42777l 0.412725, -2.14259l 0.412725, -10.7129h 0.82545l 0.412725, -8.57036l 0.412725, 2.14259l 0.412725, 6.42777l 0.412725, -2.14259l 0.412725, 2.14259l 0.412725, 10.7129l 0.412725, -2.14259l 0.412725, -4.28518h 0.412725l 0.412725,
 -4.28518l 0.412725, 10.7129l 0.412725, -6.42777l 0.412725, 4.28518h 0.412725l 0.412725, -2.14259l 0.412725, 4.28518l 0.412725, 12.8555h 1.23817l 0.412725, 2.14259l 0.412725, -2.14259h 0.412725l 0.412725, 2.14259l 0.412725, 2.14259l 0.412725,
 2.14259l 0.412725, 4.28518l 0.412725, -8.57036h 0.412725l 0.412725, 2.14259h 0.412725l 0.412725, -2.14259l 0.412725, -12.8555h 0.412725l 0.412725, -6.42777l 0.412725, -14.9981l 0.412725, 2.14259h 0.412725l 0.412725, -4.28518l 0.412725, 8.57036l
 0.412725, 10.7129l 0.412725, -4.28518l 0.412725, -2.14259l 0.412725, -2.14259l 0.412725, -6.42777l 0.412725, 4.28518l 0.412725, 8.57036l 0.412725, 2.14259l 0.412725, 4.28518l 0.412725, 4.28518l 0.412725, 4.28518h 0.412725l 0.412725, 4.28518l
 0.412725, 2.14259l 0.412725, 2.14259l 0.412725, -2.14259l 0.412725, -10.7129l 0.412725, 2.14259l 0.412725, -4.28518l 0.412725, 4.28518h 0.82545l 0.412725, 4.28518h 0.82545l 0.412725, 2.14259l 0.412725, 4.28518l 0.412725, 4.28518h 0.82545l 0.412725,
 -4.28518l 0.412725, -8.57036l 0.412725, -4.28518l 0.412725, -8.57036h 0.412725l 0.412725, -4.28518l 0.412725, -4.28518l 0.412725, -8.57036l 0.412725, 10.7129h 0.412725l 0.412725, 2.14259l 0.412725, 2.14259l 0.412725, -4.28518l 0.412725, 6.42777l
 0.412725, 2.14259l 0.412725, -6.42777l 0.412725, 2.14259h 0.412725l 0.412725, -6.42777l 0.412725, 12.8555h 0.412725l 0.412725, 4.28518h 0.82545l 0.412725, 10.7129l 0.412725, -6.42777l 0.412725, 10.7129l 0.412725, 2.14259l 0.412725, -4.28518l
 0.412725, -2.14259l 0.412725, -4.28518h 0.82545l 0.412725, -8.57036h 0.82545l 0.412725, 4.28518l 0.412725, -14.9981l 0.412725, -2.14259l 0.412725, 2.14259l 0.412725, -4.28518l 0.412725, 4.28518l 0.412725, -2.14259h 0.412725l 0.412725, -4.28518l
 0.412725, -10.7129l 0.412725, 6.42777l 0.412725, 2.14259l 0.412725, 6.42777l 0.412725, 6.42777h 0.412725l 0.412725, 4.28518l 0.412725, 8.57036l 0.412725, 2.14259l 0.412725, 6.42777l 0.412725, -2.14259h 0.412725l 0.412725, -4.28518h 0.412725l
 0.412725, 2.14259l 0.412725, 2.14259l 0.412725, -2.14259l 0.412725, -2.14259l 0.412725, -2.14259l 0.412725, 2.14259l 0.412725, 2.14259l 0.412725, -8.57036h 0.412725l 0.412725, 8.57036l 0.412725, -6.42777l 0.412725, -2.14259l 0.412725, -4.28518l
 0.412725, -6.42777l 0.412725, -2.14259l 0.412725, -8.57036l 0.412725, 4.28518l 0.412725, -6.42777h 1.23817l 0.412725, 4.28518l 0.412725, 6.42777l 0.412725, 4.28518l 0.412725, -2.14259l 0.412725, -2.14259l 0.412725, -8.57036l 0.412725, -6.42777l
 0.412725, 2.14259l 0.412725, 6.42777l 0.412725, 2.14259l 0.412725, 6.42777l 0.412725, -4.28518l 0.412725, 6.42777l 0.412725, 2.14259l 0.412725, 2.14259l 0.412725, 6.42777l 0.412725, 2.14259l 0.412725, -2.14259l 0.412725, 2.14259h 0.412725l 0.412725,
 -2.14259l 0.412725, 8.57036l 0.412725, 6.42777l 0.412725, -6.42777l 0.412725, -6.42777l 0.412725, -4.28518l 0.412725, 6.42777l 0.412725, -2.14259l 0.412725, -2.14259l 0.412725, -2.14259l 0.412725, -4.28518l 0.412725, -2.14259l 0.412725, 2.14259l
 0.412725, -8.57036l 0.412725, 6.42777l 0.412725, -6.42777l 0.412725, 4.28518l 0.412725, -6.42777l 0.412725, 4.28518h 0.412725l 0.412725, 2.14259l 0.412725, 10.7129h 0.412725l 0.412725, -6.42777l 0.412725, -4.28518l 0.412725, 8.57036l 0.412725,
 4.28518l 0.412725, 6.42777l 0.412725, -6.42777l 0.412725, -4.28518l 0.412725, -4.28518l 0.412725, 4.28518l 0.412725, -6.42777l 0.412725, 2.14259l 0.412725, 6.42777l 0.412725, -8.57036l 0.412725, -6.42777l 0.412725, -12.8555l 0.412725, -4.28518l
 0.412725, 2.14259l 0.412725, -6.42777l 0.412725, -2.14259l 0.412725, -6.42777l 0.412725, -12.8555l 0.412725, 4.28518l 0.412725, -4.28518l 0.412725, -6.42777l 0.412725, 2.14259h 0.412725l 0.412725, 4.28518l 0.412725, -12.8555l 0.412725, -6.42777l
 0.412725, 2.14259h 0.82545l 0.412725, 4.28518l 0.412725, -2.14259l 0.412725, 2.14259l 0.412725, 6.42777l 0.412725, 4.28518l 0.412725, -6.42777l 0.412725, 6.42777l 0.412725, 6.42777l 0.412725, -8.57036l 0.412725, -2.14259l 0.412725, -4.28518l
 0.412725, 2.14259l 0.412725, 2.14259h 0.412725l 0.412725, -4.28518l 0.412725, 6.42777l 0.412725, 8.57036l 0.412725, -4.28518l 0.412725, 8.57036l 0.412725, -8.57036l 0.412725, 2.14259l 0.412725, 6.42777l 0.412725, -6.42777l 0.412725, -6.42777l
 0.412725, -4.28518l 0.412725, -2.14259l 0.412725, 4.28518l 0.412725, -2.14259l 0.412725, -17.1407l 0.412725, 2.14259l 0.412725, -4.28518l 0.412725, -6.42777l 0.412725, -2.14259l 0.412725, 4.28518l 0.412725, -6.42777l 0.412725, -2.14259l 0.412725,
 -4.28518l 0.412725, 6.42777h 0.412725l 0.412725, 4.28518l 0.412725, -2.14259l 0.412725, 21.4259h 0.82545l 0.412725, 6.42777l 0.412725, -2.14259l 0.412725, -4.28518l 0.412725, 8.57036h 0.82545l 0.412725, -4.28518l 0.412725, 6.42777l 0.412725,
 8.57036l 0.412725, -2.14259l 0.412725, -2.14259l 0.412725, -2.14259h 0.412725l 0.412725, 10.7129l 0.412725, 2.14259l 0.412725, -6.42777h 0.412725l 0.412725, 6.42777l 0.412725, -8.57036l 0.412725, -4.28518l 0.412725, -8.57036h 0.82545l 0.412725,
 -4.28518l 0.412725, -6.42777l 0.412725, -8.57036l 0.412725, -19.2833l 0.412725, 2.14259l 0.412725, 8.57036l 0.412725, 6.42777l 0.412725, -4.28518l 0.412725, -2.14259l 0.412725, 17.1407l 0.412725, 2.14259l 0.412725, -10.7129l 0.412725, 8.57036l
 0.412725, 8.57036l 0.412725, -10.7129l 0.412725, -2.14259l 0.412725, 14.9981l 0.412725, 12.8555l 0.412725, 4.28518l 0.412725, -4.28518l 0.412725, 6.42777h 0.412725l 0.412725, -4.28518h 0.82545l 0.412725, 6.42777l 0.412725, -8.57036l 0.412725,
 6.42777l 0.412725, -8.57036l 0.412725, 2.14259l 0.412725, -2.14259l 0.412725, 2.14259l 0.412725, -6.42777l 0.412725, -4.28518l 0.412725, -2.14259l 0.412725, 4.28518l 0.412725, -6.42777l 0.412725, -4.28518l 0.412725, -4.28518l 0.412725, -4.28518l
 0.412725, -4.28518l 0.412725, 4.28518l 0.412725, 6.42777l 0.412725, 4.28518l 0.412725, -8.57036h 0.412725l 0.412725, 8.57036l 0.412725, -2.14259l 0.412725, -12.8555l 0.412725, 4.28518l 0.412725, 8.57036l 0.412725, -10.7129l 0.412725, 6.42777l
 0.412725, 10.7129l 0.412725, 6.42777l 0.412725, -2.14259l 0.412725, -4.28518l 0.412725, -4.28518h 0.412725l 0.412725, 14.9981h 0.412725l 0.412725, -8.57036h 0.412725l 0.412725, 2.14259l 0.412725, 14.9981l 0.412725, -8.57036l 0.412725, -2.14259l
 0.412725, 2.14259l 0.412725, 4.28518l 0.412725, -2.14259l 0.412725, 2.14259h 0.412725l 0.412725, -2.14259l 0.412725, 2.14259l 0.412725, -4.28518l 0.412725, -8.57036h 0.412725l 0.412725, -6.42777l 0.412725, -2.14259l 0.412725, 14.9981l 0.412725,
 -4.28518l 0.412725, 8.57036l 0.412725, 4.28518l 0.412725, -10.7129h 0.82545l 0.412725, 6.42777l 0.412725, -12.8555l 0.412725, -4.28518l 0.412725, 2.14259h 0.412725l 0.412725, 2.14259h 0.412725l 0.412725, 4.28518l 0.412725, 2.14259l 0.412725,
 -12.8555l 0.412725, -8.57036l 0.412725, 4.28518l 0.412725, -6.42777h 0.412725l 0.412725, -2.14259l 0.412725, -4.28518l 0.412725, 10.7129l 0.412725, 2.14259l 0.412725, 10.7129h 0.412725l 0.412725, -2.14259l 0.412725, 4.28518l 0.412725, 8.57036l
 0.412725, 2.14259h 1.23817l 0.412725, -8.57036l 0.412725, 2.14259l 0.412725, 2.14259l 0.412725, -4.28518l 0.412725, 8.57036h 0.82545l 0.412725, 4.28518l 0.412725, -2.14259l 0.412725, -19.2833l 0.412725, 4.28518l 0.412725, 4.28518l 0.412725, 2.14259l
 0.412725, 2.14259l 0.412725, -2.14259h 0.412725l 0.412725, -17.1407l 0.412725, -6.42777l 0.412725, 12.8555l 0.412725, -6.42777l 0.412725, -14.9981l 0.412725, 4.28518l 0.412725, 2.14259l 0.412725, -2.14259l 0.412725, 6.42777l 0.412725, 2.14259l
 0.412725, 8.57036l 0.412725, -12.8555l 0.412725, -6.42777l 0.412725, 23.5685l 0.412725, -10.7129h 0.412725l 0.412725, 10.7129l 0.412725, 2.14259h 0.412725l 0.412725, 4.28518l 0.412725, 6.42777l 0.412725, -2.14259l 0.412725, 8.57036l 0.412725,
 4.28518h 0.412725l 0.412725, -2.14259l 0.412725, -8.57036h 0.412725l 0.412725, 4.28518l 0.412725, -8.57036l 0.412725, -2.14259l 0.412725, 12.8555l 0.412725, -2.14259l 0.412725, -4.28518l 0.412725, -4.28518l 0.412725, 2.14259l 0.412725, -2.14259l
 0.412725, 2.14259l 0.412725, 6.42777l 0.412725, -2.14259l 0.412725, -8.57036l 0.412725, 2.14259l 0.412725, -17.1407l 0.412725, -4.28518l 0.412725, 2.14259l 0.412725, -6.42777l 0.412725, -2.14259l 0.412725, -17.1407l 0.412725, -2.14259l 0.412725,
 8.57036l 0.412725, -12.8555l 0.412725, 4.28518l 0.412725, 8.57036l 0.412725, 8.57036l 0.412725, 8.57036l 0.412725, 6.42777l 0.412725, -2.14259l 0.412725, 2.14259l 0.412725, 2.14259l 0.412725, 4.28518l 0.412725, 21.4259l 0.412725, 12.8555l 0.412725,
 -2.14259l 0.412725, -8.57036l 0.412725, 4.28518l 0.412725, -6.42777l 0.412725, -10.7129l 0.412725, -10.7129l 0.412725, 4.28518h 0.412725l 0.412725, 10.7129l 0.412725, -2.14259l 0.412725, -2.14259l 0.412725, 10.7129h 0.412725l 0.412725, -2.14259l
 0.412725, -8.57036l 0.412725, 8.57036h 0.412725l 0.412725, -2.14259l 0.412725, -12.8555l 0.412725, -4.28518l 0.412725, -4.28518h 0.412725l 0.412725, 2.14259l 0.412725, -6.42777l 0.412725, 6.42777l 0.412725, -8.57036l 0.412725, -4.28518l 0.412725,
 2.14259l 0.412725, -4.28518l 0.412725, 4.28518l 0.412725, 4.28518l 0.412725, 2.14259l 0.412725, 2.14259l 0.412725, 6.42777l 0.412725, 8.57036l 0.412725, 4.28518l 0.412725, -6.42777l 0.412725, -4.28518l 0.412725, 6.42777l 0.412725, 6.42777l 0.412725,
 4.28518l 0.412725, 2.14259l 0.412725, -10.7129l 0.412725, -12.8555h 0.412725l 0.412725, 4.28518l 0.412725, -8.57036l 0.412725, -2.14259l 0.412725, 8.57036l 0.412725, 10.7129l 0.412725, -2.14259l 0.412725, -4.28518l 0.412725, -19.2833l 0.412725,
 -2.14259l 0.412725, 4.28518h 0.412725l 0.412725, -2.14259l 0.412725, 4.28518l 0.412725, 12.8555l 0.412725, -2.14259l 0.412725, -10.7129h 0.412725l 0.412725, 2.14259l 0.412725, -4.28518l 0.412725, 4.28518l 0.412725, -4.28518l 0.412725, -2.14259l
 0.412725, 12.8555l 0.412725, 2.14259l 0.412725, 4.28518l 0.412725, -4.28518l 0.412725, -4.28518l 0.412725, -6.42777l 0.412725, 2.14259l 0.412725, 10.7129h 0.82545l 0.412725, 2.14259l 0.412725, 2.14259l 0.412725, 2.14259l 0.412725, -2.14259l
 0.412725, -10.7129l 0.412725, -6.42777l 0.412725, 6.42777l 0.412725, -12.8555l 0.412725, -10.7129l 0.412725, -8.57036l 0.412725, 2.14259l 0.412725, -2.14259l 0.412725, -6.42777h 0.412725l 0.412725, 12.8555l 0.412725, -6.42777l 0.412725, -10.7129l
 0.412725, 4.28518l 0.412725, 4.28518l 0.412725, -2.14259l 0.412725, -6.42777l 0.412725, -2.14259l 0.412725, 4.28518l 0.412725, -19.2833l 0.412725, -4.28518l 0.412725, -10.7129h 0.412725l 0.412725, 2.14259h 0.412725l 0.412725, 19.2833l 0.412725,
 -2.14259l 0.412725, 2.14259l 0.412725, 6.42777l 0.412725, -6.42777l 0.412725, -17.1407l 0.412725, 6.42777l 0.412725, 2.14259l 0.412725, -10.7129l 0.412725, 10.7129l 0.412725, -2.14259l 0.412725, -17.1407l 0.412725, -2.14259l 0.412725, -4.28518l
 0.412725, 2.14259l 0.412725, -23.5685l 0.412725, 10.7129l 0.412725, -4.28518l 0.412725, -12.8555h 0.412725l 0.412725, 6.42777l 0.412725, -19.2833l 0.412725, 10.7129l 0.412725, -8.57036l 0.412725, 12.8555h 0.412725l 0.412725, 6.42777l 0.412725,
 2.14259l 0.412725, -4.28518l 0.412725, -17.1407l 0.412725, -10.7129l 0.412725, -6.42777l 0.412725, 10.7129l 0.412725, -2.14259l 0.412725, 2.14259l 0.412725, -2.14259l 0.412725, -2.14259l 0.412725, 4.28518l 0.412725, 6.42777l 0.412725, 12.8555l
 0.412725, -12.8555l 0.412725, 4.28518l 0.412725, -2.14259l 0.412725, 2.14259l 0.412725, -4.28518l 0.412725, 4.28518l 0.412725, 4.28518l 0.412725, 2.14259l 0.412725, -2.14259h 0.412725l 0.412725, 8.57036l 0.412725, 12.8555l 0.412725, -10.7129l
 0.412725, -8.57036l 0.412725, -8.57036l 0.412725, -14.9981l 0.412725, 4.28518l 0.412725, -2.14259l 0.412725, -4.28518l 0.412725, -2.14259l 0.412725, -2.14259l 0.412725, -17.1407l 0.412725, 6.42777l 0.412725, -2.14259l 0.412725, -4.28518l 0.412725,
 -12.8555l 0.412725, -2.14259l 0.412725, 12.8555l 0.412725, 14.9981l 0.412725, -2.14259l 0.412725, 12.8555l 0.412725, -2.14259h 0.412725l 0.412725, -6.42777l 0.412725, 17.1407l 0.412725, -6.42777l 0.412725, 2.14259l 0.412725, 8.57036l 0.412725,
 6.42777l 0.412725, 23.5685l 0.412725, -10.7129l 0.412725, 2.14259l 0.412725, -12.8555l 0.412725, -4.28518l 0.412725, -2.14259l 0.412725, -2.14259l 0.412725, 4.28518l 0.412725, 8.57036l 0.412725, 14.9981l 0.412725, -17.1407l 0.412725, -10.7129l
 0.412725, -8.57036l 0.412725, -12.8555l 0.412725, 2.14259l 0.412725, 6.42777l 0.412725, 6.42777l 0.412725, -8.57036l 0.412725, 6.42777l 0.412725, -12.8555l 0.412725, 19.2833l 0.412725, 4.28518l 0.412725, 2.14259l 0.412725, 6.42777l 0.412725,
 12.8555l 0.412725, 4.28518l 0.412725, -12.8555l 0.412725, 12.8555l 0.412725, -8.57036l 0.412725, 6.42777l 0.412725, -6.42777l 0.412725, -6.42777l 0.412725, -6.42777l 0.412725, 10.7129l 0.412725, -17.1407l 0.412725, 4.28518l 0.412725, 2.14259l
 0.412725, -4.28518l 0.412725, 8.57036l 0.412725, -8.57036l 0.412725, -2.14259l 0.412725, 2.14259l 0.412725, -4.28518l 0.412725, -14.9981l 0.412725, 6.42777l 0.412725, 2.14259h 0.412725l 0.412725, -2.14259l 0.412725, -4.28518l 0.412725, 8.57036l
 0.412725, -21.4259l 0.412725, 17.1407l 0.412725, -14.9981l 0.412725, 2.14259l 0.412725, -2.14259l 0.412725, 4.28518l 0.412725, 8.57036l 0.412725, 10.7129l 0.412725, -8.57036l 0.412725, 4.28518l 0.412725, -4.28518l 0.412725, 14.9981l 0.412725,
 -12.8555l 0.412725, 17.1407l 0.412725, -8.57036l 0.412725, 14.9981l 0.412725, -4.28518l 0.412725, -17.1407l 0.412725, -10.7129l 0.412725, 8.57036l 0.412725, 2.14259l 0.412725, 14.9981l 0.412725, -10.7129l 0.412725, -4.28518l 0.412725, -8.57036l
 0.412725, -8.57036l 0.412725, 14.9981l 0.412725, 19.2833l 0.412725, -12.8555l 0.412725, -19.2833l 0.412725, 12.8555l 0.412725, -8.57036l 0.412725, 6.42777l 0.412725, 4.28518l 0.412725, -19.2833l 0.412725, 6.42777l 0.412725, 6.42777l 0.412725,
 -8.57036l 0.412725, 12.8555l 0.412725, -8.57036h 0.412725l 0.412725, 14.9981l 0.412725, 36.424l 0.412725, -14.9981l 0.412725, -8.57036l 0.412725, 8.57036l 0.412725, 6.42777l 0.412725, 4.28518l 0.412725, -6.42777l 0.412725, 2.14259l 0.412725,
 6.42777h 0.412725l 0.412725, 8.57036l 0.412725, -10.7129l 0.412725, -10.7129l 0.412725, 8.57036l 0.412725, -12.8555l 0.412725, -10.7129l 0.412725, -23.5685l 0.412725, 4.28518l 0.412725, -2.14259l 0.412725, -6.42777l 0.412725, -12.8555l 0.412725,
 12.8555l 0.412725, -2.14259l 0.412725, 6.42777l 0.412725, -4.28518l 0.412725, -2.14259l 0.412725, 10.7129l 0.412725, -6.42777l 0.412725, 6.42777l 0.412725, 6.42777l 0.412725, 2.14259l 0.412725, 8.57036l 0.412725, 17.1407l 0.412725, -2.14259l
 0.412725, 4.28518l 0.412725, 6.42777l 0.412725, 10.7129l 0.412725, 4.28518l 0.412725, -8.57036l 0.412725, 8.57036l 0.412725, 4.28518l 0.412725, -21.4259l 0.412725, -12.8555l 0.412725, -2.14259l 0.412725, -2.14259l 0.412725, -4.28518l 0.412725,
 -4.28518l 0.412725, 10.7129l 0.412725, 2.14259l 0.412725, -23.5685l 0.412725, -12.8555l 0.412725, -19.2833l 0.412725, -2.14259l 0.412725, 2.14259l 0.412725, 2.14259" fill="none" stroke="#0000ff"/>
<path d="M77.8085,364.454h 0.82545l 0.412725, -8.57036l 0.412725, -4.28518l 0.412725, -2.14259l 0.412725, -14.9981l 0.412725, -8.57036l 0.412725, -19.2833l 0.412725, -23.5685h 0.412725l 0.412725, -23.5685l 0.412725, -21.4259l 0.412725, -19.2833l
 0.412725, -2.14259l 0.412725, -4.28518l 0.412725, 2.14259l 0.412725, 10.7129l 0.412725, 2.14259l 0.412725, 2.14259l 0.412725, 8.57036l 0.412725, 12.8555l 0.412725, 23.5685l 0.412725, 25.7111l 0.412725, 4.28518l 0.412725, 10.7129l 0.412725, 10.7129l
 0.412725, 4.28518l 0.412725, 6.42777l 0.412725, 4.28518l 0.412725, 6.42777l 0.412725, 8.57036h 0.412725l 0.412725, 4.28518l 0.412725, -4.28518l 0.412725, -2.14259l 0.412725, -6.42777l 0.412725, 2.14259l 0.412725, -4.28518l 0.412725, -4.28518l
 0.412725, -6.42777l 0.412725, -10.7129l 0.412725, -8.57036l 0.412725, -10.7129h 0.412725l 0.412725, -6.42777l 0.412725, -2.14259l 0.412725, -4.28518l 0.412725, -2.14259l 0.412725, -10.7129h 0.412725l 0.412725, -4.28518l 0.412725, -6.42777l 0.412725,
 -2.14259l 0.412725, -4.28518l 0.412725, -4.28518l 0.412725, 10.7129h 0.412725l 0.412725, 8.57036l 0.412725, 10.7129h 0.412725l 0.412725, 6.42777h 0.412725l 0.412725, 2.14259l 0.412725, 6.42777l 0.412725, 6.42777l 0.412725, 10.7129l 0.412725,
 8.57036l 0.412725, 4.28518l 0.412725, 4.28518l 0.412725, -4.28518l 0.412725, -2.14259h 0.412725l 0.412725, 2.14259h 0.412725l 0.412725, 2.14259h 0.412725l 0.412725, -6.42777l 0.412725, -4.28518l 0.412725, 2.14259l 0.412725, -4.28518l 0.412725,
 -4.28518l 0.412725, -4.28518l 0.412725, -2.14259l 0.412725, -17.1407l 0.412725, -10.7129l 0.412725, -17.1407h 0.82545l 0.412725, -2.14259l 0.412725, -4.28518l 0.412725, 4.28518l 0.412725, 4.28518h 0.412725l 0.412725, -8.57036l 0.412725, 8.57036l
 0.412725, 4.28518l 0.412725, 6.42777l 0.412725, 6.42777l 0.412725, 10.7129l 0.412725, 6.42777h 0.412725l 0.412725, 4.28518h 0.412725l 0.412725, 6.42777h 0.412725l 0.412725, 6.42777l 0.412725, 4.28518h 0.412725l 0.412725, 2.14259l 0.412725, -2.14259l
 0.412725, 2.14259h 0.82545l 0.412725, -2.14259l 0.412725, -2.14259l 0.412725, 4.28518l 0.412725, -4.28518l 0.412725, 2.14259h 0.412725l 0.412725, -12.8555l 0.412725, -8.57036l 0.412725, -14.9981l 0.412725, -6.42777l 0.412725, -2.14259l 0.412725,
 2.14259l 0.412725, -4.28518l 0.412725, 4.28518l 0.412725, 4.28518l 0.412725, 2.14259l 0.412725, 4.28518h 0.412725l 0.412725, 6.42777h 0.412725l 0.412725, -2.14259l 0.412725, 4.28518l 0.412725, -2.14259l 0.412725, 4.28518l 0.412725, 8.57036l
 0.412725, 4.28518l 0.412725, -4.28518h 0.412725l 0.412725, -2.14259h 0.412725l 0.412725, 4.28518l 0.412725, 6.42777l 0.412725, 2.14259l 0.412725, 4.28518l 0.412725, -8.57036l 0.412725, 4.28518l 0.412725, -4.28518l 0.412725, -2.14259l 0.412725,
 -14.9981l 0.412725, -4.28518l 0.412725, -10.7129l 0.412725, -2.14259l 0.412725, -6.42777l 0.412725, 4.28518l 0.412725, -6.42777l 0.412725, -2.14259l 0.412725, 8.57036l 0.412725, 6.42777h 0.412725l 0.412725, 4.28518h 0.412725l 0.412725, 4.28518h
 0.412725l 0.412725, 2.14259l 0.412725, 8.57036l 0.412725, 6.42777l 0.412725, -2.14259l 0.412725, -10.7129l 0.412725, -2.14259l 0.412725, 4.28518l 0.412725, 8.57036l 0.412725, 6.42777h 0.412725l 0.412725, -6.42777l 0.412725, 2.14259l 0.412725,
 4.28518l 0.412725, 6.42777l 0.412725, -4.28518l 0.412725, 2.14259l 0.412725, 4.28518l 0.412725, -6.42777l 0.412725, 2.14259l 0.412725, -8.57036l 0.412725, -6.42777h 0.412725l 0.412725, -2.14259l 0.412725, -8.57036l 0.412725, 2.14259h 0.412725l
 0.412725, -2.14259l 0.412725, 2.14259l 0.412725, -4.28518l 0.412725, 2.14259l 0.412725, -4.28518h 0.82545l 0.412725, 4.28518l 0.412725, -6.42777l 0.412725, -2.14259l 0.412725, 6.42777l 0.412725, 6.42777h 0.412725l 0.412725, -8.57036l 0.412725,
 6.42777h 0.82545l 0.412725, 4.28518l 0.412725, 6.42777l 0.412725, 6.42777l 0.412725, -2.14259l 0.412725, 2.14259h 0.82545l 0.412725, 4.28518l 0.412725, -2.14259l 0.412725, 2.14259l 0.412725, 6.42777l 0.412725, -4.28518l 0.412725, -4.28518l 0.412725,
 6.42777l 0.412725, -4.28518l 0.412725, -10.7129l 0.412725, 2.14259h 0.412725l 0.412725, -4.28518l 0.412725, 4.28518l 0.412725, -2.14259l 0.412725, -8.57036l 0.412725, 6.42777l 0.412725, -10.7129l 0.412725, -6.42777l 0.412725, 4.28518l 0.412725,
 -4.28518l 0.412725, -2.14259l 0.412725, -2.14259l 0.412725, -8.57036l 0.412725, 8.57036l 0.412725, 4.28518l 0.412725, 6.42777l 0.412725, 2.14259l 0.412725, 2.14259l 0.412725, 2.14259l 0.412725, 4.28518l 0.412725, -6.42777l 0.412725, 2.14259l
 0.412725, 8.57036l 0.412725, 4.28518l 0.412725, -4.28518l 0.412725, -6.42777l 0.412725, -2.14259l 0.412725, 2.14259l 0.412725, -4.28518h 0.412725l 0.412725, 6.42777l 0.412725, 4.28518l 0.412725, 2.14259h 0.412725l 0.412725, 4.28518l 0.412725,
 2.14259l 0.412725, -8.57036h 0.412725l 0.412725, -2.14259l 0.412725, 4.28518l 0.412725, -4.28518l 0.412725, 2.14259l 0.412725, -8.57036l 0.412725, 6.42777l 0.412725, -8.57036l 0.412725, -4.28518l 0.412725, 8.57036l 0.412725, -6.42777l 0.412725,
 -2.14259l 0.412725, -6.42777l 0.412725, 6.42777l 0.412725, 10.7129l 0.412725, -14.9981h 0.82545l 0.412725, -2.14259l 0.412725, 4.28518l 0.412725, 10.7129l 0.412725, 8.57036l 0.412725, -4.28518l 0.412725, -6.42777l 0.412725, 8.57036l 0.412725,
 2.14259l 0.412725, 2.14259l 0.412725, -4.28518l 0.412725, 6.42777l 0.412725, 2.14259h 0.412725l 0.412725, 2.14259l 0.412725, -10.7129l 0.412725, -2.14259l 0.412725, -6.42777h 0.412725l 0.412725, 8.57036l 0.412725, -4.28518l 0.412725, -4.28518l
 0.412725, -6.42777l 0.412725, -4.28518l 0.412725, -2.14259l 0.412725, -2.14259l 0.412725, -4.28518h 0.412725l 0.412725, -4.28518l 0.412725, 2.14259l 0.412725, 6.42777l 0.412725, 4.28518l 0.412725, 12.8555h 0.82545l 0.412725, 2.14259l 0.412725,
 2.14259h 0.412725l 0.412725, 8.57036l 0.412725, 2.14259h 0.412725l 0.412725, 8.57036l 0.412725, -8.57036l 0.412725, -2.14259l 0.412725, -4.28518l 0.412725, 4.28518h 0.82545l 0.412725, 4.28518l 0.412725, -2.14259l 0.412725, 2.14259l 0.412725,
 -4.28518h 0.82545l 0.412725, -8.57036l 0.412725, -4.28518l 0.412725, -4.28518h 0.412725l 0.412725, -2.14259h 0.412725l 0.412725, 12.8555l 0.412725, -4.28518l 0.412725, -8.57036l 0.412725, 2.14259l 0.412725, -10.7129l 0.412725, -6.42777l 0.412725,
 4.28518l 0.412725, 2.14259l 0.412725, 4.28518h 0.412725l 0.412725, 6.42777l 0.412725, 4.28518l 0.412725, 2.14259l 0.412725, 2.14259l 0.412725, -2.14259l 0.412725, -8.57036l 0.412725, -4.28518l 0.412725, 2.14259l 0.412725, 6.42777l 0.412725, 2.14259l
 0.412725, 2.14259l 0.412725, 8.57036l 0.412725, 2.14259h 0.412725l 0.412725, -2.14259l 0.412725, -6.42777l 0.412725, -12.8555l 0.412725, -2.14259l 0.412725, -10.7129l 0.412725, -4.28518l 0.412725, -10.7129l 0.412725, -4.28518l 0.412725, -8.57036l
 0.412725, -4.28518l 0.412725, -4.28518h 0.412725l 0.412725, -2.14259l 0.412725, 2.14259l 0.412725, -8.57036l 0.412725, -2.14259l 0.412725, -4.28518l 0.412725, 4.28518l 0.412725, 2.14259l 0.412725, 2.14259l 0.412725, 10.7129l 0.412725, -6.42777l
 0.412725, 6.42777l 0.412725, -2.14259l 0.412725, 8.57036l 0.412725, 4.28518l 0.412725, -12.8555l 0.412725, -6.42777l 0.412725, -2.14259h 0.412725l 0.412725, 8.57036l 0.412725, 2.14259l 0.412725, -2.14259l 0.412725, 10.7129l 0.412725, -8.57036l
 0.412725, -4.28518l 0.412725, -6.42777l 0.412725, -4.28518l 0.412725, 4.28518l 0.412725, -4.28518h 0.412725l 0.412725, 8.57036l 0.412725, -2.14259l 0.412725, 2.14259l 0.412725, -8.57036l 0.412725, 6.42777l 0.412725, 4.28518l 0.412725, -2.14259l
 0.412725, -6.42777l 0.412725, -8.57036h 0.412725l 0.412725, 4.28518l 0.412725, -4.28518l 0.412725, -4.28518l 0.412725, 4.28518l 0.412725, 10.7129l 0.412725, -6.42777l 0.412725, 6.42777l 0.412725, 4.28518l 0.412725, 10.7129l 0.412725, 4.28518h
 0.412725l 0.412725, 14.9981l 0.412725, -8.57036l 0.412725, -2.14259l 0.412725, -10.7129h 0.82545l 0.412725, 2.14259l 0.412725, 4.28518l 0.412725, 4.28518l 0.412725, -6.42777l 0.412725, 2.14259l 0.412725, 8.57036l 0.412725, -4.28518h 0.412725l
 0.412725, 2.14259l 0.412725, -8.57036l 0.412725, -10.7129l 0.412725, 6.42777l 0.412725, 6.42777h 0.412725l 0.412725, -4.28518l 0.412725, -4.28518h 0.412725l 0.412725, 2.14259l 0.412725, -8.57036l 0.412725, -2.14259l 0.412725, -6.42777l 0.412725,
 -8.57036l 0.412725, -4.28518l 0.412725, 6.42777l 0.412725, -6.42777l 0.412725, 4.28518l 0.412725, -2.14259l 0.412725, 10.7129l 0.412725, -2.14259h 0.82545l 0.412725, 4.28518l 0.412725, 10.7129l 0.412725, -8.57036l 0.412725, 4.28518l 0.412725,
 -4.28518l 0.412725, 6.42777l 0.412725, 8.57036l 0.412725, -12.8555l 0.412725, 10.7129h 0.82545l 0.412725, -2.14259l 0.412725, 4.28518l 0.412725, 10.7129l 0.412725, 2.14259l 0.412725, 6.42777l 0.412725, 6.42777l 0.412725, -8.57036l 0.412725,
 -4.28518l 0.412725, -10.7129h 0.412725l 0.412725, 6.42777l 0.412725, -10.7129l 0.412725, -10.7129l 0.412725, 6.42777l 0.412725, -17.1407l 0.412725, -12.8555l 0.412725, 8.57036l 0.412725, -2.14259l 0.412725, -4.28518h 0.412725l 0.412725, -2.14259l
 0.412725, 2.14259l 0.412725, 12.8555l 0.412725, 6.42777l 0.412725, 6.42777l 0.412725, -8.57036l 0.412725, 6.42777l 0.412725, -6.42777l 0.412725, 8.57036l 0.412725, 2.14259l 0.412725, -4.28518l 0.412725, 4.28518h 0.412725l 0.412725, -4.28518l
 0.412725, 14.9981l 0.412725, 8.57036l 0.412725, -2.14259l 0.412725, -10.7129h 0.412725l 0.412725, -8.57036l 0.412725, 14.9981l 0.412725, -6.42777h 0.412725l 0.412725, -4.28518l 0.412725, -2.14259l 0.412725, -6.42777l 0.412725, 4.28518h 0.412725l
 0.412725, -4.28518l 0.412725, -2.14259h 0.412725l 0.412725, -2.14259l 0.412725, -2.14259l 0.412725, 6.42777l 0.412725, -2.14259l 0.412725, -12.8555l 0.412725, 4.28518l 0.412725, 10.7129l 0.412725, -2.14259l 0.412725, -4.28518l 0.412725, 2.14259l
 0.412725, -4.28518h 0.412725l 0.412725, 8.57036l 0.412725, 8.57036l 0.412725, -12.8555l 0.412725, -6.42777h 0.412725l 0.412725, 2.14259l 0.412725, -4.28518h 0.412725l 0.412725, -2.14259l 0.412725, -2.14259l 0.412725, -2.14259l 0.412725, 10.7129l
 0.412725, 2.14259l 0.412725, 2.14259l 0.412725, -2.14259l 0.412725, 8.57036l 0.412725, -2.14259h 0.412725l 0.412725, -6.42777l 0.412725, 6.42777l 0.412725, 4.28518l 0.412725, -2.14259l 0.412725, 6.42777l 0.412725, -8.57036l 0.412725, 2.14259l
 0.412725, -2.14259l 0.412725, 4.28518l 0.412725, 8.57036l 0.412725, 6.42777l 0.412725, -6.42777l 0.412725, 2.14259h 0.412725l 0.412725, -2.14259h 0.412725l 0.412725, 6.42777l 0.412725, -6.42777l 0.412725, -6.42777l 0.412725, -2.14259l 0.412725,
 2.14259h 0.82545l 0.412725, -4.28518l 0.412725, -2.14259l 0.412725, -8.57036l 0.412725, 2.14259h 0.412725l 0.412725, -8.57036l 0.412725, -6.42777l 0.412725, 8.57036l 0.412725, -4.28518l 0.412725, -4.28518l 0.412725, 2.14259l 0.412725, 8.57036l
 0.412725, 4.28518l 0.412725, -4.28518l 0.412725, 10.7129l 0.412725, -14.9981l 0.412725, 6.42777l 0.412725, 6.42777l 0.412725, -4.28518l 0.412725, 12.8555l 0.412725, 2.14259l 0.412725, -2.14259l 0.412725, -2.14259l 0.412725, -2.14259l 0.412725,
 4.28518l 0.412725, 6.42777l 0.412725, -4.28518l 0.412725, 12.8555l 0.412725, -4.28518l 0.412725, -17.1407l 0.412725, 6.42777l 0.412725, 2.14259l 0.412725, -2.14259l 0.412725, 4.28518h 0.412725l 0.412725, 2.14259l 0.412725, 2.14259l 0.412725,
 -12.8555l 0.412725, 2.14259l 0.412725, 8.57036l 0.412725, -10.7129l 0.412725, -6.42777l 0.412725, -2.14259l 0.412725, -12.8555l 0.412725, 2.14259l 0.412725, -4.28518l 0.412725, -4.28518l 0.412725, -4.28518l 0.412725, 8.57036l 0.412725, 4.28518l
 0.412725, -2.14259l 0.412725, -4.28518l 0.412725, -4.28518l 0.412725, 10.7129l 0.412725, 2.14259l 0.412725, 6.42777l 0.412725, 8.57036h 0.412725l 0.412725, -4.28518h 0.412725l 0.412725, 12.8555l 0.412725, -6.42777h 0.412725l 0.412725, 8.57036h
 0.412725l 0.412725, -2.14259l 0.412725, -6.42777l 0.412725, 8.57036l 0.412725, -6.42777l 0.412725, 14.9981l 0.412725, -4.28518l 0.412725, -6.42777h 0.412725l 0.412725, -4.28518l 0.412725, 4.28518h 0.412725l 0.412725, -6.42777l 0.412725, 8.57036l
 0.412725, -4.28518l 0.412725, -2.14259l 0.412725, 2.14259l 0.412725, -14.9981l 0.412725, -2.14259l 0.412725, 2.14259h 0.412725l 0.412725, -2.14259l 0.412725, -6.42777l 0.412725, -12.8555l 0.412725, -2.14259l 0.412725, -2.14259l 0.412725, 2.14259l
 0.412725, -4.28518l 0.412725, 17.1407l 0.412725, 10.7129l 0.412725, 6.42777h 0.412725l 0.412725, 14.9981l 0.412725, 4.28518l 0.412725, 4.28518l 0.412725, 8.57036l 0.412725, -19.2833l 0.412725, -4.28518h 0.412725l 0.412725, 4.28518l 0.412725,
 -2.14259l 0.412725, -4.28518l 0.412725, -2.14259l 0.412725, -2.14259h 0.412725l 0.412725, 4.28518h 0.412725l 0.412725, 4.28518l 0.412725, -6.42777h 0.412725l 0.412725, 10.7129h 0.412725l 0.412725, -8.57036l 0.412725, 6.42777l 0.412725, -12.8555l
 0.412725, 8.57036l 0.412725, -2.14259l 0.412725, -19.2833l 0.412725, -2.14259l 0.412725, -2.14259l 0.412725, -2.14259l 0.412725, 8.57036l 0.412725, -4.28518h 0.412725l 0.412725, 10.7129l 0.412725, -6.42777l 0.412725, -2.14259l 0.412725, 10.7129l
 0.412725, 2.14259l 0.412725, -4.28518l 0.412725, 19.2833l 0.412725, 2.14259l 0.412725, 2.14259l 0.412725, -4.28518h 0.412725l 0.412725, 6.42777l 0.412725, 8.57036l 0.412725, -8.57036l 0.412725, 2.14259l 0.412725, -4.28518l 0.412725, -2.14259h
 0.412725l 0.412725, -4.28518l 0.412725, -17.1407h 0.412725l 0.412725, 2.14259l 0.412725, -14.9981l 0.412725, -6.42777l 0.412725, -2.14259l 0.412725, 6.42777l 0.412725, 8.57036l 0.412725, 10.7129l 0.412725, -4.28518l 0.412725, -2.14259l 0.412725,
 2.14259l 0.412725, 8.57036l 0.412725, 2.14259l 0.412725, -8.57036l 0.412725, -10.7129l 0.412725, 6.42777l 0.412725, -4.28518l 0.412725, 4.28518l 0.412725, 2.14259l 0.412725, -2.14259l 0.412725, -2.14259l 0.412725, 2.14259l 0.412725, -4.28518h
 0.412725l 0.412725, -6.42777l 0.412725, 8.57036l 0.412725, 8.57036l 0.412725, -4.28518l 0.412725, -17.1407l 0.412725, 4.28518l 0.412725, -6.42777l 0.412725, -14.9981l 0.412725, -4.28518l 0.412725, -4.28518l 0.412725, 2.14259l 0.412725, -4.28518l
 0.412725, -4.28518l 0.412725, 2.14259l 0.412725, 4.28518l 0.412725, -10.7129l 0.412725, -14.9981l 0.412725, 4.28518l 0.412725, -10.7129l 0.412725, 2.14259l 0.412725, 2.14259l 0.412725, -2.14259l 0.412725, 8.57036l 0.412725, -12.8555l 0.412725,
 -6.42777l 0.412725, -2.14259l 0.412725, -6.42777l 0.412725, -2.14259l 0.412725, 2.14259l 0.412725, -6.42777l 0.412725, -19.2833l 0.412725, 4.28518l 0.412725, 2.14259l 0.412725, 6.42777l 0.412725, 10.7129l 0.412725, -14.9981l 0.412725, 12.8555l
 0.412725, 6.42777l 0.412725, 4.28518l 0.412725, -10.7129h 0.412725l 0.412725, 12.8555l 0.412725, 4.28518l 0.412725, -2.14259l 0.412725, -14.9981l 0.412725, -10.7129l 0.412725, -4.28518l 0.412725, -6.42777l 0.412725, -2.14259l 0.412725, -2.14259l
 0.412725, 8.57036l 0.412725, -6.42777l 0.412725, 4.28518l 0.412725, -4.28518l 0.412725, -4.28518l 0.412725, 6.42777l 0.412725, 4.28518l 0.412725, 14.9981l 0.412725, 12.8555l 0.412725, 2.14259l 0.412725, -4.28518l 0.412725, -6.42777l 0.412725,
 -17.1407l 0.412725, -2.14259l 0.412725, -2.14259l 0.412725, -4.28518l 0.412725, 2.14259l 0.412725, 17.1407l 0.412725, -2.14259l 0.412725, -2.14259l 0.412725, 10.7129l 0.412725, 8.57036l 0.412725, -6.42777l 0.412725, -14.9981l 0.412725, -2.14259l
 0.412725, 10.7129l 0.412725, 10.7129l 0.412725, -4.28518l 0.412725, 2.14259l 0.412725, -2.14259l 0.412725, 2.14259l 0.412725, -2.14259l 0.412725, -4.28518l 0.412725, 12.8555l 0.412725, 8.57036l 0.412725, -19.2833h 0.412725l 0.412725, 2.14259l
 0.412725, 6.42777l 0.412725, -2.14259l 0.412725, -4.28518l 0.412725, -25.7111l 0.412725, 8.57036l 0.412725, -12.8555h 0.412725l 0.412725, -4.28518l 0.412725, -2.14259l 0.412725, -17.1407l 0.412725, 8.57036l 0.412725, 2.14259l 0.412725, -2.14259h
 0.412725l 0.412725, -17.1407l 0.412725, -4.28518l 0.412725, 8.57036l 0.412725, 14.9981l 0.412725, 25.7111l 0.412725, -2.14259l 0.412725, -2.14259l 0.412725, 6.42777l 0.412725, -4.28518l 0.412725, -17.1407l 0.412725, 10.7129l 0.412725, 12.8555h
 0.412725l 0.412725, 8.57036l 0.412725, -2.14259l 0.412725, -17.1407l 0.412725, 4.28518l 0.412725, 12.8555h 0.412725l 0.412725, -4.28518l 0.412725, -14.9981l 0.412725, -4.28518l 0.412725, 10.7129l 0.412725, -4.28518l 0.412725, -2.14259l 0.412725,
 -12.8555l 0.412725, -8.57036l 0.412725, -10.7129l 0.412725, 10.7129l 0.412725, 2.14259l 0.412725, 17.1407l 0.412725, 19.2833l 0.412725, 8.57036l 0.412725, -2.14259l 0.412725, 12.8555l 0.412725, -8.57036l 0.412725, -2.14259l 0.412725, -2.14259l
 0.412725, -2.14259l 0.412725, -4.28518h 0.412725l 0.412725, 4.28518l 0.412725, -2.14259l 0.412725, 10.7129l 0.412725, -8.57036l 0.412725, 2.14259l 0.412725, -8.57036l 0.412725, -4.28518l 0.412725, -4.28518l 0.412725, -4.28518l 0.412725, 12.8555l
 0.412725, -10.7129l 0.412725, -8.57036l 0.412725, -6.42777l 0.412725, 4.28518l 0.412725, -19.2833l 0.412725, 10.7129l 0.412725, 8.57036l 0.412725, -8.57036l 0.412725, 6.42777l 0.412725, 29.9963l 0.412725, -8.57036l 0.412725, 12.8555l 0.412725,
 -10.7129l 0.412725, 4.28518l 0.412725, -6.42777l 0.412725, -17.1407l 0.412725, 4.28518l 0.412725, 6.42777l 0.412725, -6.42777l 0.412725, 12.8555l 0.412725, -4.28518l 0.412725, 8.57036l 0.412725, 6.42777l 0.412725, -14.9981l 0.412725, 10.7129l
 0.412725, -2.14259l 0.412725, -8.57036l 0.412725, -4.28518l 0.412725, -4.28518l 0.412725, -23.5685l 0.412725, 4.28518h 0.412725l 0.412725, 6.42777l 0.412725, 14.9981l 0.412725, 4.28518l 0.412725, -6.42777l 0.412725, -4.28518l 0.412725, -6.42777h
 0.412725l 0.412725, 17.1407l 0.412725, -2.14259l 0.412725, -40.7092l 0.412725, 4.28518l 0.412725, 10.7129h 0.412725l 0.412725, 4.28518l 0.412725, 12.8555l 0.412725, 2.14259l 0.412725, 6.42777l 0.412725, -4.28518l 0.412725, 4.28518l 0.412725,
 6.42777l 0.412725, 14.9981l 0.412725, 12.8555l 0.412725, -12.8555l 0.412725, 4.28518l 0.412725, 8.57036l 0.412725, 2.14259l 0.412725, -8.57036h 0.412725l 0.412725, 2.14259l 0.412725, -4.28518l 0.412725, -17.1407l 0.412725, 10.7129l 0.412725,
 -12.8555l 0.412725, -10.7129l 0.412725, -2.14259l 0.412725, -4.28518l 0.412725, -6.42777l 0.412725, -17.1407l 0.412725, 10.7129l 0.412725, 6.42777l 0.412725, -10.7129l 0.412725, 2.14259l 0.412725, 14.9981l 0.412725, 4.28518l 0.412725, -2.14259l
 0.412725, -2.14259l 0.412725, -12.8555l 0.412725, -4.28518l 0.412725, 6.42777l 0.412725, -6.42777l 0.412725, 12.8555l 0.412725, 4.28518l 0.412725, 4.28518l 0.412725, 4.28518l 0.412725, -4.28518l 0.412725, 12.8555l 0.412725, -8.57036l 0.412725,
 2.14259l 0.412725, 8.57036l 0.412725, 14.9981l 0.412725, 14.9981l 0.412725, 6.42777l 0.412725, -6.42777l 0.412725, -10.7129" fill="none" stroke="#00ff00"/>
<path d="M77.8085,364.454h 2.47635l 0.412725, -2.14259h 0.412725l 0.412725, -2.14259l 0.412725, -2.14259h 0.412725l 0.412725, -2.14259l 0.412725, -4.28518l 0.412725, -8.57036l 0.412725, -10.7129l 0.412725, -12.8555l 0.412725, -17.1407l 0.412725,
 -8.57036l 0.412725, -2.14259l 0.412725, 2.14259l 0.412725, -8.57036l 0.412725, -14.9981l 0.412725, -23.5685h 0.412725l 0.412725, 6.42777h 0.412725l 0.412725, 4.28518l 0.412725, 6.42777l 0.412725, 14.9981l 0.412725, -2.14259l 0.412725, 8.57036l
 0.412725, 10.7129l 0.412725, 8.57036l 0.412725, 6.42777l 0.412725, 17.1407l 0.412725, 8.57036l 0.412725, -2.14259l 0.412725, 6.42777l 0.412725, 4.28518l 0.412725, 2.14259l 0.412725, 4.28518l 0.412725, 2.14259l 0.412725, 2.14259h 0.412725l 0.412725,
 -2.14259l 0.412725, -4.28518h 0.412725l 0.412725, -2.14259l 0.412725, -2.14259l 0.412725, -8.57036l 0.412725, -6.42777l 0.412725, -6.42777l 0.412725, -8.57036l 0.412725, -4.28518h 0.412725l 0.412725, -6.42777l 0.412725, -2.14259l 0.412725, -6.42777l
 0.412725, -4.28518l 0.412725, 6.42777l 0.412725, -6.42777l 0.412725, 2.14259l 0.412725, -4.28518l 0.412725, 4.28518h 0.82545l 0.412725, -2.14259l 0.412725, 10.7129l 0.412725, 6.42777l 0.412725, -2.14259l 0.412725, 12.8555l 0.412725, 8.57036h
 0.412725l 0.412725, 4.28518h 0.412725l 0.412725, 2.14259l 0.412725, -2.14259l 0.412725, 10.7129h 0.412725l 0.412725, 2.14259l 0.412725, -2.14259l 0.412725, 2.14259l 0.412725, 6.42777l 0.412725, -2.14259l 0.412725, -2.14259h 0.412725l 0.412725,
 -6.42777l 0.412725, -8.57036l 0.412725, -2.14259l 0.412725, -6.42777l 0.412725, -4.28518l 0.412725, -8.57036l 0.412725, -4.28518l 0.412725, -4.28518l 0.412725, -4.28518h 0.412725l 0.412725, -4.28518h 0.412725l 0.412725, 2.14259l 0.412725, -2.14259l
 0.412725, 10.7129l 0.412725, -2.14259l 0.412725, 8.57036l 0.412725, -4.28518l 0.412725, 4.28518l 0.412725, -4.28518l 0.412725, 2.14259l 0.412725, 6.42777h 0.412725l 0.412725, 4.28518l 0.412725, 2.14259l 0.412725, 4.28518l 0.412725, 8.57036l
 0.412725, 2.14259l 0.412725, -6.42777h 1.23817l 0.412725, 2.14259l 0.412725, 2.14259l 0.412725, -2.14259h 0.412725l 0.412725, 2.14259l 0.412725, 4.28518h 0.412725l 0.412725, 2.14259l 0.412725, -4.28518l 0.412725, -10.7129h 0.412725l 0.412725,
 -4.28518l 0.412725, -10.7129l 0.412725, -8.57036l 0.412725, -2.14259l 0.412725, 2.14259l 0.412725, -2.14259l 0.412725, -2.14259l 0.412725, 4.28518l 0.412725, -2.14259l 0.412725, 2.14259l 0.412725, 6.42777l 0.412725, 2.14259l 0.412725, 2.14259h
 0.412725l 0.412725, -4.28518h 0.412725l 0.412725, 8.57036l 0.412725, -2.14259l 0.412725, 10.7129l 0.412725, 2.14259l 0.412725, -6.42777l 0.412725, 2.14259l 0.412725, -2.14259l 0.412725, 6.42777l 0.412725, 4.28518l 0.412725, 2.14259h 0.412725l
 0.412725, -2.14259l 0.412725, -4.28518l 0.412725, 2.14259l 0.412725, -6.42777l 0.412725, -6.42777l 0.412725, 2.14259l 0.412725, -8.57036l 0.412725, -4.28518l 0.412725, -2.14259l 0.412725, -2.14259l 0.412725, -4.28518h 0.412725l 0.412725, -6.42777l
 0.412725, -4.28518l 0.412725, 2.14259l 0.412725, 8.57036l 0.412725, -2.14259l 0.412725, 4.28518l 0.412725, 8.57036l 0.412725, 8.57036l 0.412725, 4.28518l 0.412725, -6.42777h 0.82545l 0.412725, 4.28518l 0.412725, 2.14259l 0.412725, -8.57036l
 0.412725, 6.42777l 0.412725, -4.28518l 0.412725, 4.28518l 0.412725, 6.42777l 0.412725, 2.14259l 0.412725, 2.14259l 0.412725, 6.42777l 0.412725, -4.28518l 0.412725, 6.42777h 0.412725l 0.412725, -4.28518l 0.412725, -2.14259l 0.412725, -2.14259l
 0.412725, -4.28518l 0.412725, -4.28518l 0.412725, 2.14259l 0.412725, -8.57036l 0.412725, -2.14259l 0.412725, 2.14259l 0.412725, -6.42777l 0.412725, -2.14259l 0.412725, 4.28518l 0.412725, 4.28518h 0.412725l 0.412725, 2.14259l 0.412725, -2.14259l
 0.412725, -2.14259h 0.412725l 0.412725, 2.14259l 0.412725, 2.14259l 0.412725, -6.42777l 0.412725, -6.42777l 0.412725, -4.28518l 0.412725, 8.57036l 0.412725, 4.28518l 0.412725, 6.42777l 0.412725, -4.28518l 0.412725, 4.28518l 0.412725, 4.28518l
 0.412725, -2.14259l 0.412725, -2.14259l 0.412725, 6.42777l 0.412725, -4.28518l 0.412725, -6.42777l 0.412725, 10.7129l 0.412725, -2.14259l 0.412725, -6.42777l 0.412725, 10.7129l 0.412725, -6.42777l 0.412725, 4.28518l 0.412725, 6.42777l 0.412725,
 -8.57036h 0.412725l 0.412725, -4.28518l 0.412725, -2.14259l 0.412725, 8.57036l 0.412725, -8.57036l 0.412725, -2.14259l 0.412725, -6.42777l 0.412725, 2.14259l 0.412725, -2.14259l 0.412725, 2.14259l 0.412725, 4.28518h 0.412725l 0.412725, -6.42777l
 0.412725, -4.28518l 0.412725, -4.28518h 0.412725l 0.412725, 6.42777l 0.412725, 2.14259l 0.412725, -2.14259l 0.412725, 6.42777l 0.412725, 6.42777l 0.412725, 6.42777l 0.412725, -4.28518l 0.412725, -2.14259l 0.412725, 2.14259h 1.6509l 0.412725,
 -4.28518h 0.412725l 0.412725, 6.42777l 0.412725, -4.28518l 0.412725, 4.28518l 0.412725, -2.14259h 0.412725l 0.412725, 6.42777l 0.412725, -10.7129l 0.412725, -2.14259l 0.412725, 6.42777h 0.412725l 0.412725, -6.42777l 0.412725, -10.7129l 0.412725,
 10.7129l 0.412725, 4.28518l 0.412725, -8.57036h 0.82545l 0.412725, -8.57036h 0.412725l 0.412725, 2.14259l 0.412725, 8.57036l 0.412725, -4.28518l 0.412725, 2.14259l 0.412725, 4.28518h 0.412725l 0.412725, -4.28518l 0.412725, 8.57036l 0.412725,
 6.42777l 0.412725, -4.28518l 0.412725, 6.42777l 0.412725, 2.14259l 0.412725, -2.14259l 0.412725, -2.14259h 0.412725l 0.412725, 2.14259l 0.412725, -2.14259l 0.412725, 8.57036l 0.412725, 4.28518h 0.82545l 0.412725, -4.28518l 0.412725, -6.42777l
 0.412725, -4.28518l 0.412725, -2.14259l 0.412725, -10.7129l 0.412725, 4.28518l 0.412725, -14.9981l 0.412725, 4.28518l 0.412725, -4.28518h 0.412725l 0.412725, 2.14259l 0.412725, 2.14259l 0.412725, -4.28518h 0.412725l 0.412725, 4.28518h 0.412725l
 0.412725, 6.42777l 0.412725, 2.14259l 0.412725, 8.57036h 0.412725l 0.412725, -2.14259l 0.412725, 2.14259l 0.412725, -2.14259l 0.412725, 2.14259l 0.412725, 4.28518l 0.412725, 2.14259l 0.412725, -2.14259h 0.412725l 0.412725, 4.28518l 0.412725,
 2.14259h 0.412725l 0.412725, 4.28518l 0.412725, -2.14259l 0.412725, 4.28518l 0.412725, -8.57036l 0.412725, 2.14259l 0.412725, -2.14259l 0.412725, -6.42777l 0.412725, 2.14259l 0.412725, 4.28518l 0.412725, -6.42777l 0.412725, -4.28518l 0.412725,
 -6.42777h 0.412725l 0.412725, -6.42777l 0.412725, -6.42777l 0.412725, -6.42777h 0.412725l 0.412725, 6.42777l 0.412725, 2.14259l 0.412725, 6.42777l 0.412725, 8.57036l 0.412725, 8.57036l 0.412725, -4.28518l 0.412725, -4.28518l 0.412725, -8.57036l
 0.412725, -2.14259l 0.412725, 4.28518l 0.412725, 2.14259l 0.412725, 4.28518l 0.412725, 4.28518h 0.412725l 0.412725, 2.14259h 0.412725l 0.412725, -4.28518l 0.412725, -4.28518l 0.412725, 4.28518h 0.412725l 0.412725, -6.42777l 0.412725, -4.28518h
 0.412725l 0.412725, -14.9981h 0.412725l 0.412725, -6.42777l 0.412725, -6.42777l 0.412725, -2.14259l 0.412725, -2.14259h 0.412725l 0.412725, -12.8555l 0.412725, 4.28518h 0.412725l 0.412725, -2.14259l 0.412725, -6.42777l 0.412725, 4.28518l 0.412725,
 12.8555h 0.82545l 0.412725, 10.7129l 0.412725, -8.57036h 0.412725l 0.412725, 10.7129l 0.412725, -2.14259h 0.412725l 0.412725, -4.28518l 0.412725, -6.42777l 0.412725, 4.28518l 0.412725, -6.42777l 0.412725, -4.28518l 0.412725, 6.42777l 0.412725,
 -6.42777l 0.412725, -4.28518l 0.412725, 2.14259l 0.412725, 2.14259l 0.412725, -10.7129l 0.412725, 2.14259h 0.412725l 0.412725, 6.42777l 0.412725, 4.28518l 0.412725, -4.28518l 0.412725, -2.14259l 0.412725, 2.14259l 0.412725, 10.7129l 0.412725,
 -2.14259l 0.412725, -14.9981l 0.412725, 2.14259l 0.412725, -8.57036l 0.412725, -4.28518l 0.412725, -10.7129l 0.412725, 6.42777l 0.412725, -6.42777l 0.412725, -14.9981l 0.412725, 4.28518l 0.412725, 2.14259l 0.412725, 17.1407l 0.412725, 4.28518l
 0.412725, 17.1407l 0.412725, -4.28518l 0.412725, 6.42777l 0.412725, 4.28518l 0.412725, 2.14259l 0.412725, -6.42777h 0.412725l 0.412725, 10.7129l 0.412725, 4.28518h 0.412725l 0.412725, -6.42777l 0.412725, 2.14259l 0.412725, -14.9981l 0.412725,
 -2.14259l 0.412725, 6.42777l 0.412725, 2.14259h 0.412725l 0.412725, -4.28518l 0.412725, -2.14259l 0.412725, -2.14259l 0.412725, 6.42777l 0.412725, -2.14259l 0.412725, 8.57036h 0.412725l 0.412725, 4.28518l 0.412725, -4.28518l 0.412725, 4.28518l
 0.412725, -2.14259l 0.412725, -8.57036l 0.412725, 4.28518l 0.412725, -6.42777l 0.412725, -6.42777l 0.412725, -2.14259l 0.412725, 2.14259l 0.412725, -2.14259l 0.412725, -14.9981l 0.412725, -4.28518l 0.412725, 6.42777l 0.412725, -2.14259l 0.412725,
 23.5685l 0.412725, -8.57036l 0.412725, -2.14259l 0.412725, 12.8555l 0.412725, 2.14259l 0.412725, 6.42777l 0.412725, -10.7129l 0.412725, -6.42777l 0.412725, -2.14259l 0.412725, 2.14259h 0.412725l 0.412725, 2.14259l 0.412725, 4.28518l 0.412725,
 4.28518l 0.412725, -6.42777h 0.412725l 0.412725, 10.7129l 0.412725, -12.8555l 0.412725, 6.42777l 0.412725, -6.42777l 0.412725, 10.7129l 0.412725, 10.7129l 0.412725, 2.14259l 0.412725, -4.28518l 0.412725, -4.28518l 0.412725, -2.14259l 0.412725,
 -12.8555h 0.412725l 0.412725, -8.57036l 0.412725, -4.28518h 0.412725l 0.412725, 4.28518l 0.412725, -8.57036l 0.412725, -4.28518l 0.412725, 10.7129l 0.412725, -2.14259l 0.412725, 8.57036l 0.412725, 12.8555l 0.412725, -12.8555l 0.412725, -2.14259l
 0.412725, 6.42777l 0.412725, -4.28518l 0.412725, 2.14259l 0.412725, 4.28518l 0.412725, -6.42777l 0.412725, 14.9981l 0.412725, -4.28518l 0.412725, 4.28518l 0.412725, -4.28518l 0.412725, 4.28518l 0.412725, -2.14259l 0.412725, -6.42777l 0.412725,
 8.57036l 0.412725, -4.28518l 0.412725, 4.28518l 0.412725, 8.57036l 0.412725, -6.42777h 0.82545l 0.412725, 10.7129l 0.412725, -10.7129l 0.412725, -17.1407l 0.412725, 6.42777l 0.412725, 2.14259l 0.412725, -6.42777l 0.412725, -2.14259l 0.412725,
 -2.14259l 0.412725, 8.57036l 0.412725, -4.28518l 0.412725, 4.28518l 0.412725, 2.14259l 0.412725, -6.42777h 0.412725l 0.412725, 4.28518l 0.412725, -4.28518l 0.412725, 10.7129l 0.412725, -2.14259l 0.412725, 2.14259l 0.412725, -2.14259l 0.412725,
 -4.28518l 0.412725, -6.42777l 0.412725, 4.28518l 0.412725, -8.57036l 0.412725, 2.14259l 0.412725, 2.14259l 0.412725, 6.42777l 0.412725, -6.42777l 0.412725, 2.14259l 0.412725, -2.14259l 0.412725, -4.28518l 0.412725, 8.57036l 0.412725, -2.14259l
 0.412725, -4.28518l 0.412725, -2.14259l 0.412725, 2.14259l 0.412725, -2.14259l 0.412725, 4.28518l 0.412725, 10.7129l 0.412725, -2.14259h 0.412725l 0.412725, 10.7129l 0.412725, -8.57036h 0.412725l 0.412725, 6.42777l 0.412725, 8.57036l 0.412725,
 2.14259l 0.412725, -4.28518l 0.412725, -6.42777l 0.412725, -2.14259l 0.412725, -4.28518l 0.412725, 8.57036l 0.412725, -4.28518h 0.412725l 0.412725, 8.57036h 0.412725l 0.412725, -8.57036l 0.412725, -2.14259l 0.412725, 14.9981l 0.412725, -6.42777l
 0.412725, -12.8555l 0.412725, -6.42777h 0.412725l 0.412725, -8.57036l 0.412725, 14.9981l 0.412725, -8.57036l 0.412725, -6.42777l 0.412725, 6.42777l 0.412725, -10.7129l 0.412725, 17.1407l 0.412725, 8.57036l 0.412725, -2.14259l 0.412725, -4.28518l
 0.412725, -4.28518l 0.412725, -2.14259l 0.412725, -2.14259l 0.412725, -6.42777l 0.412725, 2.14259l 0.412725, 8.57036l 0.412725, 6.42777h 0.412725l 0.412725, 2.14259l 0.412725, -6.42777l 0.412725, 6.42777l 0.412725, -2.14259h 0.412725l 0.412725,
 6.42777l 0.412725, 8.57036l 0.412725, -12.8555l 0.412725, -8.57036h 0.412725l 0.412725, 4.28518l 0.412725, 6.42777l 0.412725, 4.28518l 0.412725, 4.28518l 0.412725, 2.14259l 0.412725, 6.42777l 0.412725, -10.7129l 0.412725, -12.8555l 0.412725,
 2.14259l 0.412725, -6.42777l 0.412725, -2.14259l 0.412725, -4.28518l 0.412725, 2.14259l 0.412725, -8.57036l 0.412725, -2.14259l 0.412725, 6.42777l 0.412725, -6.42777l 0.412725, -8.57036l 0.412725, -4.28518l 0.412725, 17.1407l 0.412725, 8.57036l
 0.412725, 6.42777l 0.412725, 8.57036l 0.412725, 4.28518l 0.412725, 6.42777l 0.412725, -10.7129l 0.412725, 2.14259l 0.412725, -8.57036l 0.412725, 2.14259l 0.412725, 2.14259h 0.412725l 0.412725, 4.28518l 0.412725, -2.14259l 0.412725, 2.14259l
 0.412725, 4.28518l 0.412725, -4.28518l 0.412725, 8.57036l 0.412725, -6.42777l 0.412725, -6.42777l 0.412725, -2.14259l 0.412725, -6.42777l 0.412725, 4.28518l 0.412725, 4.28518l 0.412725, -4.28518l 0.412725, -2.14259h 0.412725l 0.412725, -4.28518l
 0.412725, 2.14259l 0.412725, 6.42777l 0.412725, -2.14259l 0.412725, -10.7129l 0.412725, -2.14259l 0.412725, 4.28518l 0.412725, -4.28518l 0.412725, -8.57036l 0.412725, -10.7129l 0.412725, -6.42777h 0.412725l 0.412725, 2.14259l 0.412725, 8.57036l
 0.412725, 2.14259l 0.412725, 14.9981l 0.412725, -4.28518l 0.412725, 12.8555l 0.412725, 8.57036l 0.412725, 8.57036l 0.412725, 2.14259h 0.412725l 0.412725, -4.28518l 0.412725, -8.57036l 0.412725, 4.28518l 0.412725, -4.28518l 0.412725, -4.28518h
 0.412725l 0.412725, 2.14259l 0.412725, -2.14259l 0.412725, 10.7129l 0.412725, -14.9981l 0.412725, -4.28518l 0.412725, 4.28518l 0.412725, 2.14259l 0.412725, -6.42777l 0.412725, 6.42777l 0.412725, -8.57036l 0.412725, 6.42777l 0.412725, 4.28518l
 0.412725, -10.7129l 0.412725, 8.57036h 0.82545l 0.412725, 2.14259l 0.412725, 4.28518l 0.412725, -17.1407l 0.412725, 4.28518l 0.412725, -6.42777l 0.412725, 2.14259l 0.412725, -2.14259l 0.412725, 10.7129h 0.412725l 0.412725, 2.14259l 0.412725,
 -4.28518l 0.412725, 6.42777l 0.412725, -4.28518l 0.412725, 14.9981l 0.412725, -2.14259l 0.412725, 2.14259l 0.412725, -2.14259l 0.412725, -4.28518l 0.412725, 2.14259l 0.412725, 4.28518l 0.412725, -6.42777l 0.412725, -10.7129l 0.412725, -2.14259l
 0.412725, -2.14259l 0.412725, 2.14259l 0.412725, 6.42777l 0.412725, -4.28518l 0.412725, -10.7129l 0.412725, -4.28518l 0.412725, 8.57036l 0.412725, -2.14259h 0.412725l 0.412725, 8.57036l 0.412725, -6.42777l 0.412725, -10.7129l 0.412725, 12.8555l
 0.412725, -6.42777l 0.412725, 2.14259l 0.412725, 2.14259l 0.412725, 6.42777l 0.412725, 4.28518l 0.412725, -8.57036l 0.412725, -8.57036l 0.412725, -2.14259l 0.412725, 12.8555l 0.412725, -4.28518l 0.412725, -4.28518l 0.412725, 2.14259l 0.412725,
 -8.57036l 0.412725, 10.7129l 0.412725, -12.8555h 0.412725l 0.412725, -2.14259h 0.412725l 0.412725, -17.1407l 0.412725, 2.14259l 0.412725, 4.28518l 0.412725, 2.14259h 0.412725l 0.412725, -6.42777l 0.412725, -19.2833l 0.412725, -8.57036l 0.412725,
 -2.14259l 0.412725, -4.28518l 0.412725, 19.2833l 0.412725, 2.14259l 0.412725, -6.42777l 0.412725, 4.28518l 0.412725, -10.7129l 0.412725, -2.14259l 0.412725, 17.1407l 0.412725, 6.42777l 0.412725, -8.57036l 0.412725, -4.28518l 0.412725, -19.2833l
 0.412725, 2.14259l 0.412725, -12.8555l 0.412725, -14.9981l 0.412725, 6.42777l 0.412725, 10.7129l 0.412725, 8.57036l 0.412725, -17.1407l 0.412725, -14.9981l 0.412725, 2.14259l 0.412725, 10.7129l 0.412725, 8.57036l 0.412725, 12.8555h 0.412725l
 0.412725, -2.14259h 0.412725l 0.412725, -12.8555l 0.412725, -2.14259l 0.412725, 4.28518l 0.412725, -6.42777h 0.412725l 0.412725, -2.14259h 0.412725l 0.412725, 6.42777l 0.412725, -10.7129l 0.412725, -2.14259l 0.412725, -8.57036l 0.412725, -14.9981l
 0.412725, 12.8555l 0.412725, -2.14259l 0.412725, -2.14259l 0.412725, 19.2833h 0.412725l 0.412725, -23.5685l 0.412725, -6.42777l 0.412725, 4.28518l 0.412725, 12.8555l 0.412725, -6.42777l 0.412725, 14.9981l 0.412725, 6.42777l 0.412725, -4.28518l
 0.412725, -6.42777l 0.412725, 2.14259l 0.412725, -4.28518l 0.412725, 4.28518l 0.412725, 12.8555l 0.412725, -8.57036l 0.412725, 14.9981l 0.412725, -2.14259h 0.412725l 0.412725, 4.28518l 0.412725, 6.42777l 0.412725, -8.57036l 0.412725, 2.14259l
 0.412725, 6.42777l 0.412725, 10.7129l 0.412725, -8.57036h 0.412725l 0.412725, -6.42777l 0.412725, -2.14259l 0.412725, -14.9981l 0.412725, 12.8555l 0.412725, -6.42777l 0.412725, 8.57036l 0.412725, -6.42777l 0.412725, -4.28518l 0.412725, 8.57036h
 0.412725l 0.412725, 4.28518l 0.412725, -2.14259l 0.412725, -10.7129l 0.412725, -14.9981l 0.412725, -19.2833l 0.412725, 6.42777l 0.412725, 2.14259l 0.412725, 2.14259l 0.412725, 4.28518l 0.412725, 8.57036l 0.412725, -2.14259l 0.412725, 4.28518l
 0.412725, 2.14259l 0.412725, -2.14259l 0.412725, -4.28518l 0.412725, 14.9981h 0.82545l 0.412725, -4.28518l 0.412725, 6.42777l 0.412725, -6.42777l 0.412725, 6.42777l 0.412725, -10.7129l 0.412725, -2.14259l 0.412725, -6.42777l 0.412725, -2.14259l
 0.412725, 12.8555l 0.412725, -4.28518l 0.412725, 6.42777l 0.412725, -4.28518l 0.412725, -6.42777l 0.412725, -4.28518l 0.412725, -14.9981l 0.412725, 2.14259l 0.412725, 2.14259l 0.412725, 8.57036l 0.412725, 4.28518l 0.412725, 6.42777l 0.412725,
 -2.14259l 0.412725, 10.7129l 0.412725, 4.28518l 0.412725, -14.9981l 0.412725, 6.42777l 0.412725, 2.14259l 0.412725, 6.42777l 0.412725, 6.42777h 0.412725l 0.412725, -6.42777l 0.412725, 4.28518h 0.82545l 0.412725, 12.8555l 0.412725, 12.8555l 0.412725,
 -4.28518l 0.412725, -12.8555l 0.412725, 8.57036l 0.412725, -17.1407l 0.412725, -23.5685l 0.412725, 17.1407l 0.412725, 4.28518l 0.412725, -10.7129l 0.412725, -10.7129l 0.412725, -6.42777l 0.412725, -8.57036l 0.412725, -10.7129l 0.412725, 12.8555l
 0.412725, 8.57036l 0.412725, 6.42777l 0.412725, 12.8555l 0.412725, 10.7129l 0.412725, -4.28518l 0.412725, 8.57036l 0.412725, -14.9981l 0.412725, 12.8555l 0.412725, 10.7129l 0.412725, -6.42777l 0.412725, -12.8555h 0.412725l 0.412725, 6.42777l
 0.412725, 8.57036l 0.412725, 6.42777l 0.412725, 2.14259l 0.412725, -6.42777l 0.412725, -2.14259l 0.412725, -12.8555l 0.412725, -4.28518l 0.412725, -4.28518l 0.412725, 10.7129l 0.412725, -8.57036l 0.412725, -4.28518l 0.412725, -2.14259l 0.412725,
 -6.42777l 0.412725, -2.14259l 0.412725, -4.28518l 0.412725, -17.1407l 0.412725, 12.8555l 0.412725, 10.7129l 0.412725, 2.14259l 0.412725, -2.14259l 0.412725, -12.8555h 0.412725l 0.412725, 2.14259l 0.412725, -12.8555l 0.412725, -14.9981l 0.412725,
 25.7111l 0.412725, 12.8555l 0.412725, 8.57036l 0.412725, -2.14259l 0.412725, 12.8555l 0.412725, 8.57036l 0.412725, 8.57036l 0.412725, -2.14259h 0.412725l 0.412725, 14.9981l 0.412725, -19.2833l 0.412725, 10.7129l 0.412725, -2.14259l 0.412725,
 -10.7129l 0.412725, -14.9981l 0.412725, 4.28518l 0.412725, -2.14259l 0.412725, 2.14259l 0.412725, -19.2833l 0.412725, 8.57036l 0.412725, -8.57036l 0.412725, -10.7129l 0.412725, 4.28518l 0.412725, 2.14259l 0.412725, 8.57036l 0.412725, 4.28518l
 0.412725, 4.28518l 0.412725, -12.8555l 0.412725, 10.7129l 0.412725, -4.28518l 0.412725, -17.1407h 0.412725l 0.412725, 4.28518l 0.412725, 29.9963h 0.82545l 0.412725, -2.14259l 0.412725, 6.42777h 0.412725l 0.412725, -10.7129l 0.412725, -8.57036h
 0.412725l 0.412725, -6.42777" fill="none" stroke="#ff0000"/>
<path d="M77.8085,364.454h 7.01632l 0.412725, -2.14259l 0.412725, -4.28518l 0.412725, -10.7129l 0.412725, -4.28518l 0.412725, -6.42777h 0.412725l 0.412725, -2.14259l 0.412725, -17.1407l 0.412725, -6.42777l 0.412725, -4.28518l 0.412725, -4.28518l
 0.412725, -19.2833l 0.412725, 2.14259l 0.412725, -8.57036l 0.412725, -2.14259l 0.412725, 10.7129l 0.412725, -6.42777l 0.412725, -2.14259l 0.412725, 2.14259l 0.412725, 2.14259l 0.412725, 8.57036l 0.412725, 23.5685l 0.412725, 4.28518h 0.412725l
 0.412725, 2.14259l 0.412725, 4.28518h 0.412725l 0.412725, 14.9981l 0.412725, 6.42777l 0.412725, 2.14259l 0.412725, 2.14259h 0.82545l 0.412725, 2.14259l 0.412725, -2.14259l 0.412725, 4.28518h 0.412725l 0.412725, -6.42777l 0.412725, -4.28518l
 0.412725, -2.14259l 0.412725, -6.42777l 0.412725, -4.28518l 0.412725, -4.28518h 0.412725l 0.412725, -4.28518l 0.412725, 4.28518l 0.412725, -6.42777l 0.412725, -6.42777l 0.412725, -10.7129l 0.412725, -6.42777l 0.412725, -10.7129l 0.412725, -2.14259l
 0.412725, 4.28518l 0.412725, -6.42777l 0.412725, -4.28518l 0.412725, 10.7129l 0.412725, 4.28518l 0.412725, 8.57036l 0.412725, -2.14259l 0.412725, 14.9981l 0.412725, -2.14259l 0.412725, 4.28518l 0.412725, 17.1407l 0.412725, 4.28518l 0.412725,
 2.14259l 0.412725, -8.57036l 0.412725, 2.14259l 0.412725, 4.28518l 0.412725, 6.42777l 0.412725, 4.28518l 0.412725, 2.14259l 0.412725, -2.14259h 0.412725l 0.412725, 2.14259h 0.412725l 0.412725, -2.14259h 0.412725l 0.412725, -2.14259l 0.412725,
 -4.28518l 0.412725, -4.28518l 0.412725, -10.7129l 0.412725, -6.42777l 0.412725, -4.28518l 0.412725, -4.28518h 0.412725l 0.412725, -6.42777l 0.412725, -4.28518l 0.412725, -2.14259h 0.412725l 0.412725, 6.42777l 0.412725, -4.28518l 0.412725, 4.28518l
 0.412725, -2.14259l 0.412725, -2.14259l 0.412725, -4.28518l 0.412725, -4.28518l 0.412725, 10.7129l 0.412725, 23.5685h 0.412725l 0.412725, 2.14259l 0.412725, -4.28518h 0.82545l 0.412725, 6.42777l 0.412725, 4.28518l 0.412725, 2.14259h 0.412725l
 0.412725, -2.14259l 0.412725, -2.14259l 0.412725, -2.14259l 0.412725, 4.28518l 0.412725, 2.14259l 0.412725, 2.14259l 0.412725, 4.28518h 0.82545l 0.412725, 2.14259l 0.412725, -8.57036l 0.412725, -4.28518l 0.412725, -6.42777l 0.412725, -6.42777l
 0.412725, -8.57036l 0.412725, -2.14259h 0.82545l 0.412725, 2.14259l 0.412725, 6.42777l 0.412725, -4.28518l 0.412725, -4.28518l 0.412725, 10.7129l 0.412725, -4.28518l 0.412725, 6.42777l 0.412725, 4.28518h 0.412725l 0.412725, 4.28518l 0.412725,
 -8.57036l 0.412725, -4.28518l 0.412725, 2.14259l 0.412725, 6.42777l 0.412725, 4.28518l 0.412725, 2.14259l 0.412725, -2.14259l 0.412725, -2.14259l 0.412725, 2.14259l 0.412725, 6.42777l 0.412725, -2.14259l 0.412725, 4.28518l 0.412725, 2.14259h
 0.412725l 0.412725, -4.28518l 0.412725, -10.7129l 0.412725, 8.57036h 0.82545l 0.412725, -12.8555l 0.412725, 2.14259l 0.412725, -2.14259l 0.412725, -10.7129l 0.412725, -8.57036l 0.412725, -2.14259l 0.412725, 6.42777h 0.82545l 0.412725, 2.14259l
 0.412725, 6.42777l 0.412725, 4.28518h 0.412725l 0.412725, 10.7129l 0.412725, 2.14259l 0.412725, -6.42777h 0.412725l 0.412725, -2.14259l 0.412725, -8.57036l 0.412725, 4.28518l 0.412725, -2.14259l 0.412725, 2.14259l 0.412725, 6.42777l 0.412725,
 -4.28518l 0.412725, 6.42777l 0.412725, 4.28518l 0.412725, 4.28518h 0.82545l 0.412725, -4.28518h 0.82545l 0.412725, -4.28518l 0.412725, -6.42777l 0.412725, 6.42777l 0.412725, -6.42777l 0.412725, -4.28518h 0.412725l 0.412725, -4.28518l 0.412725,
 -10.7129h 0.82545l 0.412725, 2.14259l 0.412725, 6.42777l 0.412725, 6.42777h 0.412725l 0.412725, -2.14259l 0.412725, -2.14259l 0.412725, 12.8555l 0.412725, -2.14259h 0.82545l 0.412725, -2.14259l 0.412725, -6.42777l 0.412725, 6.42777l 0.412725,
 8.57036l 0.412725, -4.28518l 0.412725, 4.28518l 0.412725, 4.28518l 0.412725, -10.7129l 0.412725, -2.14259l 0.412725, 2.14259l 0.412725, -4.28518h 0.412725l 0.412725, 4.28518l 0.412725, 2.14259l 0.412725, 2.14259l 0.412725, -2.14259l 0.412725,
 2.14259l 0.412725, 8.57036l 0.412725, -2.14259h 0.412725l 0.412725, -4.28518l 0.412725, -4.28518l 0.412725, -8.57036l 0.412725, 2.14259l 0.412725, 4.28518l 0.412725, -4.28518l 0.412725, -2.14259h 0.412725l 0.412725, -4.28518h 0.82545l 0.412725,
 2.14259l 0.412725, 2.14259l 0.412725, -8.57036l 0.412725, 8.57036h 0.412725l 0.412725, 2.14259h 0.412725l 0.412725, 6.42777l 0.412725, -2.14259h 0.412725l 0.412725, 4.28518l 0.412725, -6.42777l 0.412725, 2.14259l 0.412725, -4.28518l 0.412725,
 2.14259l 0.412725, 2.14259l 0.412725, 6.42777l 0.412725, -2.14259l 0.412725, 8.57036l 0.412725, -4.28518l 0.412725, -4.28518l 0.412725, 2.14259h 0.82545l 0.412725, -6.42777l 0.412725, 2.14259l 0.412725, -2.14259h 1.23817l 0.412725, -4.28518l
 0.412725, 2.14259l 0.412725, -2.14259l 0.412725, 4.28518l 0.412725, -4.28518l 0.412725, -6.42777h 0.412725l 0.412725, 12.8555l 0.412725, -8.57036l 0.412725, -8.57036l 0.412725, 6.42777h 0.412725l 0.412725, 2.14259l 0.412725, 8.57036l 0.412725,
 6.42777l 0.412725, 2.14259l 0.412725, -4.28518l 0.412725, 4.28518l 0.412725, -8.57036l 0.412725, -6.42777l 0.412725, 2.14259l 0.412725, -2.14259h 0.412725l 0.412725, 4.28518l 0.412725, 2.14259l 0.412725, 2.14259l 0.412725, 4.28518l 0.412725,
 -4.28518l 0.412725, 2.14259l 0.412725, -6.42777l 0.412725, 2.14259h 0.412725l 0.412725, -2.14259h 0.412725l 0.412725, -6.42777l 0.412725, -4.28518l 0.412725, 4.28518l 0.412725, -8.57036l 0.412725, -6.42777l 0.412725, 6.42777l 0.412725, -2.14259h
 0.412725l 0.412725, 8.57036h 0.412725l 0.412725, 6.42777l 0.412725, -4.28518h 0.412725l 0.412725, 2.14259l 0.412725, 2.14259h 0.82545l 0.412725, -4.28518h 0.412725l 0.412725, -2.14259l 0.412725, 6.42777l 0.412725, 4.28518l 0.412725, 2.14259h
 0.412725l 0.412725, 4.28518l 0.412725, 2.14259l 0.412725, 2.14259l 0.412725, 6.42777l 0.412725, -4.28518h 0.82545l 0.412725, -6.42777l 0.412725, -2.14259l 0.412725, 4.28518l 0.412725, 2.14259l 0.412725, -2.14259l 0.412725, -2.14259l 0.412725,
 -2.14259l 0.412725, -8.57036l 0.412725, -4.28518l 0.412725, -8.57036l 0.412725, 6.42777l 0.412725, -4.28518l 0.412725, 2.14259l 0.412725, 2.14259l 0.412725, -2.14259l 0.412725, 4.28518l 0.412725, -2.14259h 0.412725l 0.412725, 2.14259l 0.412725,
 -2.14259l 0.412725, 2.14259l 0.412725, 4.28518l 0.412725, 6.42777l 0.412725, -4.28518h 0.412725l 0.412725, 4.28518l 0.412725, -6.42777l 0.412725, -2.14259l 0.412725, 8.57036l 0.412725, 2.14259l 0.412725, -2.14259l 0.412725, 2.14259l 0.412725,
 -8.57036h 0.412725l 0.412725, -4.28518l 0.412725, -2.14259l 0.412725, -6.42777l 0.412725, -6.42777h 0.412725l 0.412725, -8.57036l 0.412725, -8.57036l 0.412725, -4.28518l 0.412725, 8.57036h 0.412725l 0.412725, -14.9981l 0.412725, 2.14259l 0.412725,
 -2.14259l 0.412725, -4.28518l 0.412725, -2.14259l 0.412725, 2.14259l 0.412725, 4.28518l 0.412725, 12.8555l 0.412725, -6.42777l 0.412725, -2.14259l 0.412725, 4.28518l 0.412725, 6.42777h 0.412725l 0.412725, 4.28518l 0.412725, -4.28518l 0.412725,
 4.28518h 0.412725l 0.412725, -4.28518h 0.412725l 0.412725, -6.42777h 0.412725l 0.412725, 10.7129l 0.412725, -8.57036l 0.412725, -4.28518l 0.412725, 2.14259h 0.412725l 0.412725, 8.57036l 0.412725, 2.14259h 0.82545l 0.412725, 4.28518l 0.412725,
 -17.1407l 0.412725, -2.14259l 0.412725, 4.28518l 0.412725, -4.28518l 0.412725, 8.57036l 0.412725, -8.57036l 0.412725, -10.7129l 0.412725, -10.7129l 0.412725, 8.57036l 0.412725, -6.42777l 0.412725, -6.42777h 0.412725l 0.412725, 6.42777l 0.412725,
 8.57036l 0.412725, -8.57036h 0.412725l 0.412725, 4.28518l 0.412725, 17.1407l 0.412725, 4.28518l 0.412725, 14.9981l 0.412725, -2.14259l 0.412725, -2.14259l 0.412725, -4.28518l 0.412725, 4.28518h 0.412725l 0.412725, 2.14259l 0.412725, -10.7129l
 0.412725, -4.28518l 0.412725, 8.57036l 0.412725, -6.42777l 0.412725, 6.42777l 0.412725, -6.42777l 0.412725, 2.14259l 0.412725, -8.57036l 0.412725, 4.28518l 0.412725, 2.14259l 0.412725, -8.57036l 0.412725, -2.14259l 0.412725, 8.57036h 0.412725l
 0.412725, -10.7129l 0.412725, 10.7129h 0.412725l 0.412725, 6.42777l 0.412725, -6.42777l 0.412725, -6.42777l 0.412725, -17.1407l 0.412725, 6.42777l 0.412725, 6.42777l 0.412725, -4.28518h 0.412725l 0.412725, -10.7129l 0.412725, 4.28518l 0.412725,
 10.7129l 0.412725, 4.28518l 0.412725, 10.7129l 0.412725, 6.42777l 0.412725, -6.42777h 0.82545l 0.412725, 2.14259l 0.412725, -6.42777l 0.412725, -2.14259l 0.412725, 17.1407l 0.412725, 2.14259l 0.412725, 10.7129l 0.412725, -8.57036l 0.412725,
 -6.42777l 0.412725, -12.8555l 0.412725, -8.57036l 0.412725, 2.14259l 0.412725, 4.28518l 0.412725, -6.42777l 0.412725, -6.42777l 0.412725, 6.42777l 0.412725, 12.8555l 0.412725, -6.42777l 0.412725, -4.28518l 0.412725, 8.57036l 0.412725, -4.28518l
 0.412725, 2.14259l 0.412725, -4.28518l 0.412725, -6.42777l 0.412725, -10.7129l 0.412725, 4.28518l 0.412725, -2.14259l 0.412725, -2.14259l 0.412725, 10.7129l 0.412725, 4.28518l 0.412725, 8.57036l 0.412725, -4.28518l 0.412725, -4.28518l 0.412725,
 8.57036l 0.412725, -4.28518h 0.412725l 0.412725, -2.14259l 0.412725, 6.42777l 0.412725, 6.42777l 0.412725, -12.8555l 0.412725, 8.57036l 0.412725, 8.57036l 0.412725, -10.7129h 0.412725l 0.412725, 4.28518l 0.412725, -4.28518l 0.412725, -8.57036h
 0.412725l 0.412725, 8.57036h 0.412725l 0.412725, 6.42777l 0.412725, 4.28518l 0.412725, -8.57036l 0.412725, 2.14259l 0.412725, -8.57036l 0.412725, -4.28518l 0.412725, 6.42777l 0.412725, -10.7129l 0.412725, 14.9981h 0.412725l 0.412725, -2.14259h
 0.412725l 0.412725, -6.42777l 0.412725, 2.14259h 0.412725l 0.412725, -6.42777h 0.412725l 0.412725, 8.57036l 0.412725, 6.42777h 0.412725l 0.412725, 6.42777h 0.412725l 0.412725, -14.9981l 0.412725, 4.28518l 0.412725, -14.9981h 0.412725l 0.412725,
 8.57036h 1.23817l 0.412725, 10.7129l 0.412725, -6.42777l 0.412725, -6.42777l 0.412725, 2.14259l 0.412725, -14.9981l 0.412725, 2.14259l 0.412725, -2.14259l 0.412725, -12.8555l 0.412725, 14.9981l 0.412725, 14.9981l 0.412725, -4.28518h 0.412725l
 0.412725, -4.28518l 0.412725, 6.42777l 0.412725, 10.7129l 0.412725, -4.28518l 0.412725, 4.28518l 0.412725, -10.7129l 0.412725, 2.14259l 0.412725, 2.14259l 0.412725, -4.28518l 0.412725, -2.14259l 0.412725, -2.14259l 0.412725, 6.42777l 0.412725,
 -10.7129l 0.412725, 4.28518l 0.412725, 12.8555h 0.412725l 0.412725, 2.14259l 0.412725, 2.14259l 0.412725, -8.57036l 0.412725, 2.14259h 0.412725l 0.412725, -6.42777h 0.82545l 0.412725, -10.7129h 0.412725l 0.412725, 4.28518l 0.412725, -2.14259l
 0.412725, -2.14259l 0.412725, 6.42777l 0.412725, 10.7129l 0.412725, 8.57036l 0.412725, -4.28518l 0.412725, -6.42777l 0.412725, 12.8555l 0.412725, -4.28518h 0.412725l 0.412725, -4.28518l 0.412725, -6.42777l 0.412725, -4.28518l 0.412725, -2.14259l
 0.412725, 2.14259l 0.412725, 10.7129l 0.412725, -4.28518l 0.412725, 17.1407l 0.412725, -2.14259l 0.412725, -4.28518l 0.412725, -8.57036h 0.412725l 0.412725, -2.14259l 0.412725, -8.57036l 0.412725, 4.28518h 0.412725l 0.412725, -4.28518l 0.412725,
 10.7129l 0.412725, 8.57036l 0.412725, 2.14259l 0.412725, -4.28518l 0.412725, -2.14259l 0.412725, 2.14259l 0.412725, -4.28518l 0.412725, -2.14259l 0.412725, 10.7129l 0.412725, -4.28518l 0.412725, -6.42777l 0.412725, -10.7129l 0.412725, -12.8555l
 0.412725, -10.7129l 0.412725, -8.57036l 0.412725, 2.14259l 0.412725, 10.7129l 0.412725, 2.14259l 0.412725, 10.7129l 0.412725, 6.42777l 0.412725, 2.14259l 0.412725, 6.42777l 0.412725, 2.14259l 0.412725, 14.9981h 0.412725l 0.412725, -6.42777l
 0.412725, 8.57036l 0.412725, -8.57036h 0.412725l 0.412725, -4.28518l 0.412725, 8.57036l 0.412725, 2.14259l 0.412725, -4.28518l 0.412725, -6.42777l 0.412725, 4.28518l 0.412725, 4.28518l 0.412725, -8.57036l 0.412725, -6.42777l 0.412725, 2.14259h
 0.412725l 0.412725, 2.14259h 0.412725l 0.412725, 2.14259h 0.82545l 0.412725, -6.42777l 0.412725, -4.28518l 0.412725, 4.28518l 0.412725, -6.42777l 0.412725, 6.42777l 0.412725, -4.28518h 0.412725l 0.412725, -10.7129l 0.412725, -2.14259l 0.412725,
 -8.57036l 0.412725, -4.28518l 0.412725, 6.42777l 0.412725, 2.14259h 0.412725l 0.412725, 4.28518l 0.412725, 2.14259l 0.412725, 8.57036l 0.412725, -2.14259l 0.412725, 2.14259l 0.412725, 4.28518l 0.412725, 4.28518h 0.412725l 0.412725, -2.14259l
 0.412725, 2.14259l 0.412725, 4.28518l 0.412725, 12.8555l 0.412725, -6.42777h 0.412725l 0.412725, -8.57036l 0.412725, 6.42777l 0.412725, 2.14259l 0.412725, -10.7129l 0.412725, -6.42777l 0.412725, -6.42777h 0.82545l 0.412725, 8.57036h 0.412725l
 0.412725, -6.42777l 0.412725, 2.14259l 0.412725, 6.42777l 0.412725, -6.42777l 0.412725, -8.57036l 0.412725, -14.9981l 0.412725, -4.28518l 0.412725, 25.7111l 0.412725, 4.28518l 0.412725, -6.42777l 0.412725, 6.42777l 0.412725, -12.8555l 0.412725,
 2.14259l 0.412725, 2.14259l 0.412725, 4.28518l 0.412725, 12.8555l 0.412725, 10.7129l 0.412725, -2.14259l 0.412725, 12.8555h 0.412725l 0.412725, -4.28518l 0.412725, -6.42777l 0.412725, -10.7129l 0.412725, -6.42777l 0.412725, -2.14259l 0.412725,
 6.42777l 0.412725, 4.28518l 0.412725, 6.42777l 0.412725, 6.42777l 0.412725, -17.1407l 0.412725, -4.28518h 0.412725l 0.412725, 4.28518l 0.412725, -12.8555l 0.412725, 4.28518l 0.412725, -6.42777l 0.412725, 4.28518l 0.412725, -4.28518l 0.412725,
 -4.28518l 0.412725, 4.28518l 0.412725, 2.14259l 0.412725, 8.57036l 0.412725, -4.28518l 0.412725, -2.14259l 0.412725, 6.42777l 0.412725, 2.14259l 0.412725, -2.14259l 0.412725, -10.7129l 0.412725, 8.57036l 0.412725, -4.28518h 0.412725l 0.412725,
 -4.28518l 0.412725, 6.42777h 0.412725l 0.412725, -2.14259l 0.412725, 2.14259h 0.82545l 0.412725, 6.42777l 0.412725, 2.14259l 0.412725, -10.7129l 0.412725, -4.28518l 0.412725, -19.2833l 0.412725, -8.57036l 0.412725, -2.14259l 0.412725, -6.42777l
 0.412725, 10.7129l 0.412725, -6.42777l 0.412725, -4.28518l 0.412725, -8.57036l 0.412725, -8.57036l 0.412725, -4.28518l 0.412725, 12.8555l 0.412725, 4.28518l 0.412725, -6.42777l 0.412725, 2.14259l 0.412725, -2.14259l 0.412725, -14.9981l 0.412725,
 -6.42777l 0.412725, 10.7129l 0.412725, 8.57036l 0.412725, -8.57036l 0.412725, 14.9981l 0.412725, -10.7129l 0.412725, -2.14259l 0.412725, -10.7129h 0.412725l 0.412725, -6.42777l 0.412725, -4.28518l 0.412725, 10.7129l 0.412725, 2.14259l 0.412725,
 19.2833l 0.412725, 10.7129l 0.412725, -17.1407l 0.412725, -6.42777l 0.412725, -23.5685h 0.412725l 0.412725, 2.14259l 0.412725, 8.57036l 0.412725, 14.9981l 0.412725, -10.7129l 0.412725, 17.1407l 0.412725, -2.14259l 0.412725, -12.8555l 0.412725,
 -4.28518l 0.412725, 10.7129l 0.412725, 2.14259l 0.412725, -6.42777l 0.412725, -25.7111h 0.412725l 0.412725, -8.57036h 0.412725l 0.412725, -6.42777l 0.412725, 6.42777l 0.412725, -4.28518l 0.412725, 17.1407l 0.412725, 8.57036l 0.412725, -14.9981l
 0.412725, 8.57036l 0.412725, -8.57036l 0.412725, 8.57036l 0.412725, -10.7129l 0.412725, 4.28518l 0.412725, 6.42777l 0.412725, 10.7129h 0.82545l 0.412725, -6.42777h 0.412725l 0.412725, 10.7129h 0.412725l 0.412725, 2.14259l 0.412725, 17.1407l
 0.412725, -8.57036l 0.412725, 14.9981l 0.412725, -8.57036l 0.412725, 4.28518h 0.412725l 0.412725, -14.9981l 0.412725, -6.42777l 0.412725, -10.7129l 0.412725, 17.1407h 0.412725l 0.412725, 12.8555l 0.412725, -2.14259l 0.412725, -2.14259l 0.412725,
 2.14259l 0.412725, -12.8555l 0.412725, -8.57036l 0.412725, -6.42777l 0.412725, 8.57036l 0.412725, -6.42777l 0.412725, 6.42777l 0.412725, 6.42777l 0.412725, 4.28518l 0.412725, -4.28518l 0.412725, -10.7129l 0.412725, -4.28518l 0.412725, -2.14259l
 0.412725, 10.7129l 0.412725, 2.14259l 0.412725, -6.42777l 0.412725, -2.14259h 0.412725l 0.412725, -4.28518l 0.412725, 10.7129l 0.412725, 8.57036l 0.412725, 2.14259l 0.412725, -8.57036l 0.412725, -4.28518l 0.412725, -4.28518l 0.412725, -8.57036l
 0.412725, 12.8555l 0.412725, -10.7129l 0.412725, 2.14259l 0.412725, -4.28518l 0.412725, -4.28518h 0.412725l 0.412725, -4.28518l 0.412725, 2.14259l 0.412725, -2.14259l 0.412725, 8.57036h 0.412725l 0.412725, 2.14259l 0.412725, -4.28518l 0.412725,
 -10.7129l 0.412725, 8.57036l 0.412725, 12.8555l 0.412725, 4.28518l 0.412725, -4.28518l 0.412725, 8.57036l 0.412725, -19.2833l 0.412725, 10.7129l 0.412725, 8.57036l 0.412725, 10.7129l 0.412725, 6.42777l 0.412725, -2.14259l 0.412725, 4.28518h
 0.412725l 0.412725, -14.9981l 0.412725, -14.9981l 0.412725, 4.28518l 0.412725, 6.42777l 0.412725, 2.14259l 0.412725, 14.9981l 0.412725, -21.4259l 0.412725, 12.8555l 0.412725, 6.42777l 0.412725, -8.57036l 0.412725, -12.8555l 0.412725, -10.7129l
 0.412725, -19.2833l 0.412725, 17.1407l 0.412725, -14.9981l 0.412725, 12.8555l 0.412725, 4.28518h 0.412725l 0.412725, -10.7129l 0.412725, 10.7129l 0.412725, 14.9981l 0.412725, 4.28518l 0.412725, 2.14259h 0.412725l 0.412725, -8.57036l 0.412725,
 17.1407l 0.412725, -6.42777l 0.412725, 4.28518l 0.412725, 2.14259l 0.412725, 2.14259l 0.412725, 12.8555l 0.412725, -14.9981l 0.412725, -6.42777l 0.412725, 6.42777l 0.412725, 14.9981l 0.412725, 14.9981l 0.412725, -21.4259l 0.412725, -21.4259l
 0.412725, -19.2833l 0.412725, 6.42777l 0.412725, 4.28518l 0.412725, -2.14259l 0.412725, -6.42777l 0.412725, -2.14259l 0.412725, 10.7129l 0.412725, -27.8537l 0.412725, -8.57036h 0.412725l 0.412725, 4.28518l 0.412725, 8.57036l 0.412725, -4.28518l
 0.412725, -6.42777l 0.412725, 6.42777l 0.412725, 17.1407l 0.412725, -10.7129l 0.412725, 10.7129l 0.412725, -4.28518l 0.412725, 17.1407l 0.412725, 14.9981l 0.412725, 8.57036l 0.412725, 8.57036l 0.412725, 12.8555l 0.412725, -19.2833l 0.412725,
 10.7129l 0.412725, -6.42777l 0.412725, -10.7129l 0.412725, -2.14259l 0.412725, -12.8555l 0.412725, -6.42777l 0.412725, -17.1407l 0.412725, 4.28518l 0.412725, 8.57036l 0.412725, -2.14259l 0.412725, -8.57036l 0.412725, 12.8555l 0.412725, 25.7111l
 0.412725, -2.14259l 0.412725, -6.42777l 0.412725, -21.4259l 0.412725, -8.57036l 0.412725, -2.14259l 0.412725, -2.14259l 0.412725, 8.57036l 0.412725, -2.14259l 0.412725, 14.9981l 0.412725, 4.28518l 0.412725, 4.28518l 0.412725, 14.9981" fill="none"
 stroke="#ffcc00"/>
<rect x="65.2919" y="85.0394" width="170.079" height="60.7424" fill="white"/>
<path d="M65.2919,145.782h 170.079" fill="none" stroke="black"/>
<path d="M235.371,145.782v -60.7424" fill="none" stroke="black"/>
<path d="M235.371,85.0394h -170.079" fill="none" stroke="black"/>
<path d="M65.2919,85.0394v 60.7424" fill="none" stroke="black"/>
<text xml:space="preserve" x="107.407" y="95.5681" fill="black" font-size="10.9024" font-family="Helvetica">State 1</text>
<path d="M71.6699,97.9471h 29.7638v -10.6299h -29.7638z" fill="white"/>
<path d="M71.6699,92.6322h 29.7638" fill="none" stroke="#0000ff"/>
<g stroke="black" stroke-width="1" fill="none">
<line x1="85.5517" y1="92.6322" x2="86.5517" y2="92.6322"/>
</g>
<text xml:space="preserve" x="107.407" y="110.956" fill="black" font-size="10.9024" font-family="Helvetica">State 2</text>
<path d="M71.6699,113.133h 29.7638v -10.6299h -29.7638z" fill="white"/>
<path d="M71.6699,107.818h 29.7638" fill="none" stroke="#00ff00"/>
<g stroke="black" stroke-width="1" fill="none">
<line x1="85.5517" y1="107.818" x2="86.5517" y2="107.818"/>
</g>
<text xml:space="preserve" x="107.407" y="126.344" fill="black" font-size="10.9024" font-family="Helvetica">State 3</text>
<path d="M71.6699,128.318h 29.7638v -10.6299h -29.7638z" fill="white"/>
<path d="M71.6699,123.003h 29.7638" fill="none" stroke="#ff0000"/>
<g stroke="black" stroke-width="1" fill="none">
<line x1="85.5517" y1="123.003" x2="86.5517" y2="123.003"/>
</g>
<text xml:space="preserve" x="107.407" y="140.922" fill="black" font-size="10.9024" font-family="Helvetica">State 4</text>
<path d="M71.6699,143.504h 29.7638v -10.6299h -29.7638z" fill="white"/>
<path d="M71.6699,138.189h 29.7638" fill="none" stroke="#ffcc00"/>
<g stroke="black" stroke-width="1" fill="none">
<line x1="85.5517" y1="138.189" x2="86.5517" y2="138.189"/>
</g>
<text xml:space="preserve" x="243.47" y="20.2475" fill="black" font-size="20.2051" font-family="Helvetica">Spheroid</text></svg>
