<?xml version="1.0" standalone="no"?>
<svg width="567.429" height="405.449" viewBox="0 0 567.429 405.449" xmlns="http://www.w3.org/2000/svg" shape-rendering="crispEdges">
<title>
output/spheroid/spheroid.svg
</title>
<desc>
Creator: ROOT Version 6.22/06
CreationDate: Fri Oct  7 15:31:39 2022</desc>
<defs>
</defs>
<rect x="0.5" y="0" width="566.929" height="404.949" fill="white"/>
<rect x="57.1929" y="40.4949" width="453.543" height="323.96" fill="white"/>
<rect x="57.1929" y="40.4949" width="453.543" height="323.96" fill="none" stroke="black"/>
<rect x="57.1929" y="40.4949" width="453.543" height="323.96" fill="white"/>
<rect x="57.1929" y="40.4949" width="453.543" height="323.96" fill="none" stroke="black"/>
<path d="M57.1929,364.454h 453.543" fill="none" stroke="black"/>
<path d="M77.8085,40.4949v 323.96" fill="none" stroke="black" stroke-dasharray=" 1, 2"/>
<path d="M160.353,40.4949v 323.96" fill="none" stroke="black" stroke-dasharray=" 1, 2"/>
<path d="M242.898,40.4949v 323.96" fill="none" stroke="black" stroke-dasharray=" 1, 2"/>
<path d="M325.443,40.4949v 323.96" fill="none" stroke="black" stroke-dasharray=" 1, 2"/>
<path d="M407.988,40.4949v 323.96" fill="none" stroke="black" stroke-dasharray=" 1, 2"/>
<path d="M490.533,40.4949v 323.96" fill="none" stroke="black" stroke-dasharray=" 1, 2"/>
<path d="M77.8085,40.4949v 323.96" fill="none" stroke="black" stroke-dasharray=" 1, 2"/>
<path d="M490.533,40.4949v 323.96" fill="none" stroke="black" stroke-dasharray=" 1, 2"/>
<path d="M57.1929,364.454v -323.96" fill="none" stroke="black"/>
<path d="M510.736,364.454h -453.543" fill="none" stroke="black" stroke-dasharray=" 1, 2"/>
<path d="M510.736,322.19h -453.543" fill="none" stroke="black" stroke-dasharray=" 1, 2"/>
<path d="M510.736,279.925h -453.543" fill="none" stroke="black" stroke-dasharray=" 1, 2"/>
<path d="M510.736,237.66h -453.543" fill="none" stroke="black" stroke-dasharray=" 1, 2"/>
<path d="M510.736,195.395h -453.543" fill="none" stroke="black" stroke-dasharray=" 1, 2"/>
<path d="M510.736,153.131h -453.543" fill="none" stroke="black" stroke-dasharray=" 1, 2"/>
<path d="M510.736,110.866h -453.543" fill="none" stroke="black" stroke-dasharray=" 1, 2"/>
<path d="M510.736,68.601h -453.543" fill="none" stroke="black" stroke-dasharray=" 1, 2"/>
<path d="M510.736,68.601h -453.543" fill="none" stroke="black" stroke-dasharray=" 1, 2"/>
<path d="M57.1929,364.454h 453.543" fill="none" stroke="black"/>
<path d="M77.8085,354.736v 9.71878" fill="none" stroke="black"/>
<path d="M98.4448,359.595v 4.85939" fill="none" stroke="black"/>
<path d="M119.081,359.595v 4.85939" fill="none" stroke="black"/>
<path d="M139.717,359.595v 4.85939" fill="none" stroke="black"/>
<path d="M160.353,354.736v 9.71878" fill="none" stroke="black"/>
<path d="M180.99,359.595v 4.85939" fill="none" stroke="black"/>
<path d="M201.626,359.595v 4.85939" fill="none" stroke="black"/>
<path d="M222.262,359.595v 4.85939" fill="none" stroke="black"/>
<path d="M242.898,354.736v 9.71878" fill="none" stroke="black"/>
<path d="M263.535,359.595v 4.85939" fill="none" stroke="black"/>
<path d="M284.171,359.595v 4.85939" fill="none" stroke="black"/>
<path d="M304.807,359.595v 4.85939" fill="none" stroke="black"/>
<path d="M325.443,354.736v 9.71878" fill="none" stroke="black"/>
<path d="M346.08,359.595v 4.85939" fill="none" stroke="black"/>
<path d="M366.716,359.595v 4.85939" fill="none" stroke="black"/>
<path d="M387.352,359.595v 4.85939" fill="none" stroke="black"/>
<path d="M407.988,354.736v 9.71878" fill="none" stroke="black"/>
<path d="M428.625,359.595v 4.85939" fill="none" stroke="black"/>
<path d="M449.261,359.595v 4.85939" fill="none" stroke="black"/>
<path d="M469.897,359.595v 4.85939" fill="none" stroke="black"/>
<path d="M490.533,354.736v 9.71878" fill="none" stroke="black"/>
<path d="M77.8085,354.736v 9.71878" fill="none" stroke="black"/>
<path d="M490.533,354.736v 9.71878" fill="none" stroke="black"/>
<text xml:space="preserve" x="73.3909" y="377.413" fill="black" font-size="13.503" font-family="Helvetica">0</text>
<text xml:space="preserve" x="156.001" y="377.413" fill="black" font-size="13.503" font-family="Helvetica">2</text>
<text xml:space="preserve" x="238.61" y="377.413" fill="black" font-size="13.503" font-family="Helvetica">4</text>
<text xml:space="preserve" x="321.22" y="377.413" fill="black" font-size="13.503" font-family="Helvetica">6</text>
<text xml:space="preserve" x="403.83" y="377.413" fill="black" font-size="13.503" font-family="Helvetica">8</text>
<text xml:space="preserve" x="483.2" y="377.413" fill="black" font-size="13.503" font-family="Helvetica">10</text>
<text xml:space="preserve" x="481.58" y="391.991" fill="black" font-size="13.503" font-family="Helvetica">Time</text>
<path d="M57.1929,364.454v -323.96" fill="none" stroke="black"/>
<path d="M70.7992,364.454h -13.6063" fill="none" stroke="black"/>
<path d="M63.9961,353.888h -6.80315" fill="none" stroke="black"/>
<path d="M63.9961,343.322h -6.80315" fill="none" stroke="black"/>
<path d="M63.9961,332.756h -6.80315" fill="none" stroke="black"/>
<path d="M70.7992,322.19h -13.6063" fill="none" stroke="black"/>
<path d="M63.9961,311.623h -6.80315" fill="none" stroke="black"/>
<path d="M63.9961,301.057h -6.80315" fill="none" stroke="black"/>
<path d="M63.9961,290.491h -6.80315" fill="none" stroke="black"/>
<path d="M70.7992,279.925h -13.6063" fill="none" stroke="black"/>
<path d="M63.9961,269.359h -6.80315" fill="none" stroke="black"/>
<path d="M63.9961,258.793h -6.80315" fill="none" stroke="black"/>
<path d="M63.9961,248.226h -6.80315" fill="none" stroke="black"/>
<path d="M70.7992,237.66h -13.6063" fill="none" stroke="black"/>
<path d="M63.9961,227.094h -6.80315" fill="none" stroke="black"/>
<path d="M63.9961,216.528h -6.80315" fill="none" stroke="black"/>
<path d="M63.9961,205.962h -6.80315" fill="none" stroke="black"/>
<path d="M70.7992,195.395h -13.6063" fill="none" stroke="black"/>
<path d="M63.9961,184.829h -6.80315" fill="none" stroke="black"/>
<path d="M63.9961,174.263h -6.80315" fill="none" stroke="black"/>
<path d="M63.9961,163.697h -6.80315" fill="none" stroke="black"/>
<path d="M70.7992,153.131h -13.6063" fill="none" stroke="black"/>
<path d="M63.9961,142.564h -6.80315" fill="none" stroke="black"/>
<path d="M63.9961,131.998h -6.80315" fill="none" stroke="black"/>
<path d="M63.9961,121.432h -6.80315" fill="none" stroke="black"/>
<path d="M70.7992,110.866h -13.6063" fill="none" stroke="black"/>
<path d="M63.9961,100.3h -6.80315" fill="none" stroke="black"/>
<path d="M63.9961,89.7334h -6.80315" fill="none" stroke="black"/>
<path d="M63.9961,79.1672h -6.80315" fill="none" stroke="black"/>
<path d="M70.7992,68.601h -13.6063" fill="none" stroke="black"/>
<path d="M70.7992,68.601h -13.6063" fill="none" stroke="black"/>
<path d="M63.9961,58.0348h -6.80315" fill="none" stroke="black"/>
<path d="M63.9961,47.4686h -6.80315" fill="none" stroke="black"/>
<text xml:space="preserve" x="46.6642" y="369.314" fill="black" font-size="13.503" font-family="Helvetica">0</text>
<text xml:space="preserve" x="39.3751" y="326.389" fill="black" font-size="13.503" font-family="Helvetica">20</text>
<text xml:space="preserve" x="39.3751" y="284.274" fill="black" font-size="13.503" font-family="Helvetica">40</text>
<text xml:space="preserve" x="39.3751" y="242.16" fill="black" font-size="13.503" font-family="Helvetica">60</text>
<text xml:space="preserve" x="39.3751" y="200.045" fill="black" font-size="13.503" font-family="Helvetica">80</text>
<text xml:space="preserve" x="32.0861" y="157.93" fill="black" font-size="13.503" font-family="Helvetica">100</text>
<text xml:space="preserve" x="32.0861" y="115.006" fill="black" font-size="13.503" font-family="Helvetica">120</text>
<text xml:space="preserve" x="32.0861" y="72.8909" fill="black" font-size="13.503" font-family="Helvetica">140</text>
<g transform="rotate(-90,18.3178,143.352)">
<text xml:space="preserve" x="18.3178" y="143.352" fill="black" font-size="13.503" font-family="Helvetica">Number of agents</text>
</g>
<path d="M77.8085,153.131h 0.82545l 0.412725, 8.45296l 0.412725, 4.22648l 0.412725, 12.6794l 0.412725, 14.7927l 0.412725, 19.0191l 0.412725, 23.2456l 0.412725, 29.5853l 0.412725, 14.7927l 0.412725, 23.2456l 0.412725, 8.45296l 0.412725, 16.9059l
 0.412725, 8.45296l 0.412725, 6.33972l 0.412725, 4.22648h 0.412725l 0.412725, 6.33972l 0.412725, 6.33972l 0.412725, 4.22648h 0.412725l 0.412725, -2.11324l 0.412725, -2.11324h 0.412725l 0.412725, -2.11324l 0.412725, -2.11324l 0.412725, -6.33972l
 0.412725, -4.22648l 0.412725, -12.6794l 0.412725, -4.22648l 0.412725, -10.5662l 0.412725, -14.7927l 0.412725, -2.11324l 0.412725, -8.45296l 0.412725, -12.6794l 0.412725, -12.6794l 0.412725, -4.22648l 0.412725, -12.6794l 0.412725, -12.6794l 0.412725,
 2.11324l 0.412725, -4.22648l 0.412725, -8.45296l 0.412725, 2.11324l 0.412725, 2.11324l 0.412725, 10.5662l 0.412725, 10.5662l 0.412725, 12.6794l 0.412725, 19.0191l 0.412725, 8.45296l 0.412725, 14.7927l 0.412725, 2.11324l 0.412725, 6.33972l 0.412725,
 14.7927l 0.412725, 14.7927l 0.412725, 2.11324l 0.412725, 4.22648h 0.82545l 0.412725, 2.11324l 0.412725, -2.11324l 0.412725, -6.33972h 0.412725l 0.412725, -6.33972h 0.412725l 0.412725, -2.11324l 0.412725, -4.22648l 0.412725, 2.11324l 0.412725,
 -6.33972l 0.412725, -8.45296l 0.412725, -6.33972l 0.412725, -12.6794l 0.412725, -6.33972l 0.412725, -14.7927l 0.412725, -8.45296l 0.412725, -4.22648l 0.412725, -4.22648h 0.412725l 0.412725, -8.45296l 0.412725, 2.11324h 0.412725l 0.412725, 2.11324l
 0.412725, 6.33972l 0.412725, -4.22648l 0.412725, 4.22648l 0.412725, 6.33972l 0.412725, 4.22648l 0.412725, 6.33972l 0.412725, 10.5662l 0.412725, -2.11324l 0.412725, 6.33972l 0.412725, 10.5662l 0.412725, 6.33972l 0.412725, 8.45296l 0.412725, -2.11324l
 0.412725, 2.11324l 0.412725, 6.33972l 0.412725, 2.11324l 0.412725, -2.11324l 0.412725, 8.45296l 0.412725, 4.22648l 0.412725, -2.11324h 0.412725l 0.412725, -8.45296l 0.412725, -2.11324l 0.412725, -4.22648l 0.412725, -8.45296l 0.412725, -4.22648l
 0.412725, -6.33972l 0.412725, -14.7927l 0.412725, -4.22648l 0.412725, -8.45296l 0.412725, -2.11324l 0.412725, -6.33972l 0.412725, -6.33972l 0.412725, 8.45296l 0.412725, 6.33972l 0.412725, 6.33972h 0.412725l 0.412725, 6.33972l 0.412725, 4.22648h
 0.412725l 0.412725, 2.11324l 0.412725, -2.11324l 0.412725, 4.22648l 0.412725, -2.11324l 0.412725, -2.11324l 0.412725, -2.11324l 0.412725, 2.11324l 0.412725, 8.45296l 0.412725, -4.22648l 0.412725, 6.33972h 0.412725l 0.412725, 8.45296l 0.412725,
 -2.11324l 0.412725, 2.11324l 0.412725, -2.11324h 0.412725l 0.412725, -4.22648h 0.412725l 0.412725, -4.22648h 0.412725l 0.412725, -8.45296l 0.412725, -4.22648l 0.412725, -4.22648l 0.412725, 2.11324h 0.82545l 0.412725, -2.11324l 0.412725, -10.5662l
 0.412725, 4.22648l 0.412725, 10.5662l 0.412725, -2.11324h 0.412725l 0.412725, 2.11324l 0.412725, 8.45296l 0.412725, 2.11324l 0.412725, 8.45296l 0.412725, 4.22648h 0.412725l 0.412725, -12.6794l 0.412725, 4.22648l 0.412725, 4.22648h 0.412725l
 0.412725, -2.11324l 0.412725, 6.33972l 0.412725, 6.33972l 0.412725, -2.11324l 0.412725, -2.11324h 0.82545l 0.412725, -2.11324l 0.412725, -4.22648l 0.412725, 2.11324l 0.412725, -4.22648l 0.412725, 4.22648l 0.412725, -4.22648l 0.412725, -4.22648l
 0.412725, 2.11324l 0.412725, -2.11324l 0.412725, 4.22648l 0.412725, -2.11324l 0.412725, -2.11324l 0.412725, -2.11324h 0.412725l 0.412725, -2.11324l 0.412725, -8.45296l 0.412725, -2.11324l 0.412725, -2.11324l 0.412725, -8.45296l 0.412725, -2.11324l
 0.412725, 4.22648l 0.412725, 6.33972l 0.412725, 8.45296l 0.412725, 6.33972l 0.412725, 2.11324l 0.412725, 6.33972l 0.412725, -4.22648h 0.412725l 0.412725, 4.22648l 0.412725, 8.45296l 0.412725, -2.11324l 0.412725, 2.11324l 0.412725, 10.5662l 0.412725,
 -2.11324l 0.412725, 2.11324l 0.412725, -4.22648l 0.412725, -4.22648l 0.412725, 2.11324l 0.412725, -2.11324l 0.412725, -8.45296l 0.412725, -4.22648l 0.412725, -6.33972l 0.412725, -10.5662h 0.412725l 0.412725, 2.11324l 0.412725, -2.11324l 0.412725,
 2.11324l 0.412725, 10.5662l 0.412725, -4.22648h 0.412725l 0.412725, 2.11324l 0.412725, -6.33972l 0.412725, 2.11324l 0.412725, -4.22648l 0.412725, 4.22648l 0.412725, -6.33972l 0.412725, 6.33972l 0.412725, -4.22648l 0.412725, 6.33972h 0.412725l
 0.412725, -8.45296l 0.412725, 2.11324l 0.412725, -10.5662h 0.412725l 0.412725, 6.33972l 0.412725, 4.22648l 0.412725, 10.5662l 0.412725, 2.11324l 0.412725, 6.33972l 0.412725, -4.22648l 0.412725, -2.11324l 0.412725, -2.11324l 0.412725, 8.45296l
 0.412725, 6.33972l 0.412725, -2.11324l 0.412725, -4.22648h 0.82545l 0.412725, -2.11324l 0.412725, -4.22648l 0.412725, -2.11324l 0.412725, -2.11324l 0.412725, -8.45296l 0.412725, 2.11324l 0.412725, 6.33972l 0.412725, -6.33972l 0.412725, 2.11324h
 0.412725l 0.412725, 8.45296l 0.412725, -4.22648l 0.412725, 2.11324l 0.412725, 4.22648l 0.412725, -4.22648l 0.412725, -2.11324l 0.412725, 2.11324l 0.412725, 2.11324l 0.412725, 2.11324l 0.412725, -4.22648l 0.412725, -2.11324l 0.412725, -2.11324l
 0.412725, -6.33972l 0.412725, -8.45296l 0.412725, 6.33972h 0.412725l 0.412725, -2.11324l 0.412725, 10.5662l 0.412725, -2.11324l 0.412725, 2.11324l 0.412725, 10.5662l 0.412725, -2.11324l 0.412725, 6.33972l 0.412725, -4.22648l 0.412725, 4.22648l
 0.412725, -2.11324l 0.412725, 2.11324l 0.412725, -2.11324h 0.412725l 0.412725, -2.11324l 0.412725, -2.11324l 0.412725, 2.11324h 0.412725l 0.412725, 4.22648l 0.412725, 2.11324l 0.412725, 2.11324l 0.412725, 6.33972l 0.412725, -6.33972l 0.412725,
 -4.22648l 0.412725, -2.11324h 0.412725l 0.412725, 4.22648l 0.412725, 6.33972l 0.412725, -8.45296l 0.412725, -6.33972l 0.412725, -2.11324l 0.412725, -4.22648l 0.412725, 4.22648l 0.412725, -8.45296l 0.412725, 4.22648l 0.412725, 4.22648l 0.412725,
 -12.6794l 0.412725, -2.11324l 0.412725, 4.22648h 0.412725l 0.412725, -2.11324l 0.412725, 2.11324l 0.412725, -6.33972l 0.412725, -4.22648l 0.412725, 4.22648l 0.412725, -4.22648h 0.412725l 0.412725, 2.11324l 0.412725, 8.45296l 0.412725, 4.22648l
 0.412725, -12.6794l 0.412725, -4.22648l 0.412725, 6.33972l 0.412725, 8.45296l 0.412725, -2.11324l 0.412725, 2.11324l 0.412725, -2.11324l 0.412725, 2.11324l 0.412725, 2.11324l 0.412725, 4.22648l 0.412725, 4.22648l 0.412725, 2.11324l 0.412725,
 10.5662l 0.412725, -2.11324l 0.412725, 8.45296l 0.412725, -4.22648l 0.412725, -4.22648l 0.412725, -4.22648h 0.412725l 0.412725, -4.22648l 0.412725, -4.22648h 0.412725l 0.412725, -2.11324l 0.412725, -6.33972l 0.412725, -6.33972l 0.412725, 2.11324h
 0.412725l 0.412725, 2.11324l 0.412725, -2.11324l 0.412725, 2.11324l 0.412725, -4.22648l 0.412725, 4.22648l 0.412725, 6.33972l 0.412725, -2.11324l 0.412725, 4.22648l 0.412725, 4.22648l 0.412725, -10.5662h 0.412725l 0.412725, 2.11324l 0.412725,
 -8.45296l 0.412725, 2.11324l 0.412725, -4.22648l 0.412725, 4.22648h 0.412725l 0.412725, -4.22648l 0.412725, 4.22648l 0.412725, -6.33972l 0.412725, -12.6794l 0.412725, 12.6794l 0.412725, -2.11324l 0.412725, 14.7927h 0.412725l 0.412725, 8.45296l
 0.412725, -14.7927l 0.412725, 6.33972l 0.412725, -4.22648l 0.412725, 4.22648l 0.412725, 4.22648l 0.412725, 6.33972l 0.412725, -8.45296l 0.412725, 6.33972l 0.412725, 4.22648l 0.412725, 4.22648l 0.412725, 4.22648l 0.412725, -27.4721l 0.412725,
 12.6794h 0.412725l 0.412725, -12.6794l 0.412725, 4.22648l 0.412725, -8.45296l 0.412725, -6.33972l 0.412725, -6.33972l 0.412725, -16.9059l 0.412725, 10.5662l 0.412725, 6.33972l 0.412725, 4.22648l 0.412725, -16.9059l 0.412725, -12.6794l 0.412725,
 -8.45296l 0.412725, -4.22648l 0.412725, -4.22648h 0.412725l 0.412725, -12.6794l 0.412725, 4.22648l 0.412725, -4.22648l 0.412725, 4.22648l 0.412725, 6.33972l 0.412725, -8.45296l 0.412725, 2.11324l 0.412725, 4.22648l 0.412725, -8.45296l 0.412725,
 12.6794l 0.412725, 6.33972l 0.412725, 6.33972l 0.412725, 6.33972l 0.412725, 6.33972l 0.412725, 4.22648l 0.412725, -4.22648l 0.412725, -4.22648l 0.412725, 14.7927l 0.412725, -2.11324h 0.412725l 0.412725, -2.11324l 0.412725, -2.11324l 0.412725,
 -4.22648l 0.412725, -4.22648l 0.412725, 2.11324l 0.412725, -2.11324l 0.412725, -10.5662l 0.412725, -6.33972l 0.412725, -12.6794l 0.412725, -4.22648l 0.412725, -2.11324l 0.412725, -6.33972l 0.412725, 2.11324l 0.412725, 8.45296l 0.412725, 2.11324l
 0.412725, 6.33972l 0.412725, -4.22648l 0.412725, -2.11324l 0.412725, 12.6794l 0.412725, -4.22648h 0.412725l 0.412725, -8.45296l 0.412725, 10.5662l 0.412725, 4.22648l 0.412725, -2.11324l 0.412725, 8.45296l 0.412725, 10.5662l 0.412725, 4.22648l
 0.412725, -8.45296l 0.412725, 4.22648l 0.412725, -2.11324l 0.412725, 10.5662h 0.412725l 0.412725, -14.7927h 0.412725l 0.412725, 2.11324l 0.412725, 10.5662l 0.412725, -4.22648l 0.412725, 6.33972l 0.412725, -6.33972h 0.412725l 0.412725, 2.11324l
 0.412725, -4.22648l 0.412725, -10.5662l 0.412725, -12.6794h 0.412725l 0.412725, -4.22648h 0.412725l 0.412725, 4.22648l 0.412725, -16.9059l 0.412725, -2.11324l 0.412725, -4.22648l 0.412725, -8.45296l 0.412725, -8.45296l 0.412725, -4.22648l 0.412725,
 8.45296l 0.412725, 8.45296l 0.412725, 12.6794l 0.412725, 4.22648l 0.412725, -2.11324l 0.412725, 4.22648l 0.412725, 4.22648l 0.412725, 4.22648h 0.412725l 0.412725, -2.11324l 0.412725, 10.5662l 0.412725, 2.11324l 0.412725, -8.45296l 0.412725, 4.22648l
 0.412725, 4.22648l 0.412725, 8.45296l 0.412725, -6.33972l 0.412725, -6.33972l 0.412725, 6.33972l 0.412725, 2.11324l 0.412725, 6.33972l 0.412725, -6.33972l 0.412725, 2.11324h 0.412725l 0.412725, 8.45296l 0.412725, 2.11324l 0.412725, -2.11324l
 0.412725, -2.11324l 0.412725, -4.22648l 0.412725, -14.7927l 0.412725, -4.22648l 0.412725, -6.33972l 0.412725, -4.22648l 0.412725, -6.33972l 0.412725, -6.33972l 0.412725, -6.33972l 0.412725, -4.22648l 0.412725, 6.33972l 0.412725, 8.45296l 0.412725,
 -2.11324l 0.412725, 16.9059l 0.412725, 8.45296l 0.412725, 14.7927l 0.412725, 8.45296h 0.412725l 0.412725, -8.45296l 0.412725, 8.45296l 0.412725, -10.5662l 0.412725, -4.22648l 0.412725, 10.5662l 0.412725, 6.33972l 0.412725, -6.33972l 0.412725,
 2.11324l 0.412725, -6.33972l 0.412725, -4.22648l 0.412725, -4.22648l 0.412725, -6.33972l 0.412725, -4.22648l 0.412725, -2.11324l 0.412725, 6.33972h 0.412725l 0.412725, -6.33972l 0.412725, -2.11324h 0.82545l 0.412725, -4.22648l 0.412725, 4.22648l
 0.412725, -2.11324h 0.412725l 0.412725, -4.22648h 0.412725l 0.412725, -6.33972l 0.412725, 4.22648l 0.412725, 2.11324l 0.412725, 4.22648l 0.412725, -6.33972l 0.412725, 14.7927l 0.412725, -2.11324l 0.412725, 12.6794l 0.412725, 8.45296l 0.412725,
 -4.22648l 0.412725, 6.33972h 0.412725l 0.412725, 2.11324l 0.412725, -2.11324l 0.412725, -4.22648l 0.412725, -4.22648l 0.412725, 2.11324l 0.412725, -6.33972l 0.412725, 2.11324l 0.412725, -6.33972l 0.412725, -2.11324l 0.412725, -6.33972h 0.412725l
 0.412725, 4.22648l 0.412725, 4.22648l 0.412725, 6.33972l 0.412725, 4.22648l 0.412725, -4.22648l 0.412725, -2.11324l 0.412725, -6.33972l 0.412725, 10.5662l 0.412725, -16.9059l 0.412725, -8.45296l 0.412725, 4.22648l 0.412725, 6.33972l 0.412725,
 2.11324l 0.412725, -2.11324h 0.412725l 0.412725, -6.33972l 0.412725, 10.5662l 0.412725, -2.11324l 0.412725, 4.22648l 0.412725, -4.22648l 0.412725, -4.22648h 0.412725l 0.412725, -6.33972l 0.412725, 6.33972l 0.412725, 21.1324l 0.412725, -10.5662l
 0.412725, -2.11324l 0.412725, 4.22648h 0.412725l 0.412725, -4.22648l 0.412725, -4.22648l 0.412725, -14.7927l 0.412725, 4.22648l 0.412725, 19.0191l 0.412725, -6.33972h 0.412725l 0.412725, 2.11324l 0.412725, -8.45296l 0.412725, 4.22648l 0.412725,
 4.22648l 0.412725, 4.22648l 0.412725, -12.6794l 0.412725, -2.11324l 0.412725, 2.11324l 0.412725, 6.33972l 0.412725, 6.33972l 0.412725, 14.7927l 0.412725, -8.45296h 0.412725l 0.412725, -8.45296l 0.412725, -8.45296l 0.412725, 4.22648h 0.412725l
 0.412725, 4.22648l 0.412725, -6.33972l 0.412725, -10.5662l 0.412725, -2.11324l 0.412725, -12.6794h 0.412725l 0.412725, -2.11324l 0.412725, 12.6794l 0.412725, 6.33972l 0.412725, -4.22648l 0.412725, 12.6794l 0.412725, -2.11324l 0.412725, -2.11324l
 0.412725, 12.6794h 0.82545l 0.412725, 8.45296l 0.412725, 6.33972l 0.412725, 2.11324l 0.412725, -4.22648l 0.412725, -6.33972l 0.412725, 4.22648l 0.412725, -4.22648l 0.412725, 4.22648l 0.412725, -8.45296l 0.412725, -10.5662l 0.412725, -2.11324h
 0.412725l 0.412725, -8.45296l 0.412725, 10.5662l 0.412725, 6.33972l 0.412725, -4.22648l 0.412725, 8.45296l 0.412725, 6.33972l 0.412725, -2.11324l 0.412725, -4.22648l 0.412725, -6.33972l 0.412725, 4.22648l 0.412725, 6.33972l 0.412725, -4.22648l
 0.412725, 10.5662l 0.412725, 4.22648l 0.412725, -14.7927h 0.412725l 0.412725, -4.22648l 0.412725, 4.22648l 0.412725, -8.45296l 0.412725, 4.22648l 0.412725, -2.11324l 0.412725, -6.33972l 0.412725, -6.33972l 0.412725, 2.11324l 0.412725, 2.11324l
 0.412725, -2.11324l 0.412725, 8.45296l 0.412725, 10.5662l 0.412725, 12.6794l 0.412725, -6.33972l 0.412725, -4.22648l 0.412725, -8.45296l 0.412725, -8.45296h 0.412725l 0.412725, -2.11324l 0.412725, -4.22648l 0.412725, 6.33972l 0.412725, 2.11324l
 0.412725, -10.5662l 0.412725, 4.22648l 0.412725, -6.33972h 0.412725l 0.412725, 2.11324l 0.412725, 6.33972h 0.82545l 0.412725, 10.5662h 0.412725l 0.412725, 8.45296l 0.412725, -2.11324l 0.412725, 6.33972l 0.412725, 4.22648l 0.412725, -2.11324l
 0.412725, -8.45296h 0.412725l 0.412725, 2.11324l 0.412725, -4.22648l 0.412725, 10.5662l 0.412725, -2.11324l 0.412725, -6.33972l 0.412725, -6.33972l 0.412725, -8.45296l 0.412725, -6.33972l 0.412725, 2.11324h 0.412725l 0.412725, -2.11324l 0.412725,
 4.22648l 0.412725, 2.11324l 0.412725, -12.6794l 0.412725, 2.11324l 0.412725, 6.33972h 0.412725l 0.412725, 4.22648l 0.412725, -12.6794l 0.412725, 6.33972l 0.412725, -4.22648l 0.412725, 10.5662l 0.412725, 8.45296l 0.412725, 2.11324l 0.412725, 2.11324l
 0.412725, 4.22648h 0.412725l 0.412725, -8.45296h 0.412725l 0.412725, -8.45296h 0.412725l 0.412725, 2.11324l 0.412725, 8.45296l 0.412725, -14.7927l 0.412725, 21.1324l 0.412725, 4.22648l 0.412725, -8.45296l 0.412725, 6.33972l 0.412725, -14.7927l
 0.412725, -16.9059l 0.412725, 2.11324l 0.412725, 2.11324l 0.412725, 2.11324l 0.412725, 2.11324l 0.412725, -25.3589l 0.412725, 14.7927l 0.412725, -10.5662l 0.412725, -21.1324l 0.412725, 12.6794l 0.412725, -8.45296l 0.412725, -2.11324l 0.412725,
 -6.33972l 0.412725, -16.9059l 0.412725, -2.11324h 0.412725l 0.412725, -4.22648l 0.412725, -8.45296l 0.412725, 8.45296l 0.412725, -10.5662l 0.412725, 10.5662h 0.412725l 0.412725, 14.7927h 0.412725l 0.412725, -4.22648l 0.412725, 14.7927l 0.412725,
 12.6794l 0.412725, 8.45296l 0.412725, 8.45296l 0.412725, -6.33972l 0.412725, 14.7927h 0.412725l 0.412725, -19.0191l 0.412725, 8.45296l 0.412725, -4.22648l 0.412725, -16.9059l 0.412725, -10.5662h 0.412725l 0.412725, -23.2456l 0.412725, -23.2456l
 0.412725, -14.7927l 0.412725, -16.9059l 0.412725, 16.9059l 0.412725, -2.11324l 0.412725, -8.45296l 0.412725, -27.4721l 0.412725, 12.6794h 0.412725l 0.412725, -2.11324l 0.412725, 10.5662h 0.412725l 0.412725, 8.45296l 0.412725, -8.45296l 0.412725,
 -12.6794l 0.412725, 16.9059l 0.412725, 4.22648l 0.412725, 6.33972h 0.412725l 0.412725, -12.6794l 0.412725, -4.22648l 0.412725, 19.0191l 0.412725, 6.33972l 0.412725, 8.45296l 0.412725, 6.33972h 0.412725l 0.412725, 2.11324l 0.412725, 12.6794l
 0.412725, 10.5662l 0.412725, 2.11324l 0.412725, -14.7927l 0.412725, -10.5662l 0.412725, 6.33972l 0.412725, 6.33972h 0.412725l 0.412725, -12.6794l 0.412725, -8.45296l 0.412725, -14.7927l 0.412725, -2.11324l 0.412725, -27.4721l 0.412725, -19.0191l
 0.412725, 6.33972l 0.412725, -14.7927l 0.412725, 10.5662l 0.412725, 10.5662l 0.412725, -2.11324l 0.412725, -19.0191l 0.412725, 2.11324h 0.412725l 0.412725, -6.33972l 0.412725, 8.45296l 0.412725, 14.7927l 0.412725, 16.9059l 0.412725, 2.11324l
 0.412725, 2.11324l 0.412725, 27.4721l 0.412725, 10.5662l 0.412725, -19.0191l 0.412725, 4.22648l 0.412725, 12.6794l 0.412725, 4.22648l 0.412725, 2.11324l 0.412725, 2.11324l 0.412725, 4.22648l 0.412725, -4.22648l 0.412725, 2.11324l 0.412725, -8.45296l
 0.412725, 4.22648l 0.412725, 8.45296l 0.412725, -12.6794l 0.412725, -4.22648h 0.412725l 0.412725, -6.33972l 0.412725, -14.7927h 0.412725l 0.412725, 8.45296l 0.412725, 2.11324l 0.412725, -2.11324l 0.412725, -8.45296l 0.412725, 16.9059l 0.412725,
 -14.7927l 0.412725, -2.11324l 0.412725, -6.33972l 0.412725, -8.45296l 0.412725, 2.11324l 0.412725, -8.45296h 0.412725l 0.412725, -12.6794l 0.412725, 12.6794l 0.412725, 2.11324l 0.412725, 2.11324l 0.412725, -12.6794l 0.412725, 16.9059l 0.412725,
 12.6794l 0.412725, -8.45296l 0.412725, -2.11324l 0.412725, -2.11324h 0.412725l 0.412725, 10.5662l 0.412725, 4.22648l 0.412725, 6.33972l 0.412725, 8.45296l 0.412725, -8.45296l 0.412725, -19.0191l 0.412725, 6.33972l 0.412725, 8.45296l 0.412725,
 -4.22648h 0.412725l 0.412725, 12.6794l 0.412725, -10.5662l 0.412725, -12.6794l 0.412725, -2.11324l 0.412725, 19.0191h 0.412725l 0.412725, 2.11324l 0.412725, 8.45296l 0.412725, -2.11324h 0.412725l 0.412725, 10.5662l 0.412725, -4.22648l 0.412725,
 -2.11324l 0.412725, -2.11324l 0.412725, -23.2456l 0.412725, -19.0191l 0.412725, 2.11324l 0.412725, 2.11324l 0.412725, 4.22648l 0.412725, 16.9059l 0.412725, -16.9059l 0.412725, 6.33972l 0.412725, -14.7927l 0.412725, -6.33972l 0.412725, -8.45296l
 0.412725, 4.22648l 0.412725, -8.45296h 0.412725l 0.412725, 8.45296l 0.412725, 25.3589l 0.412725, -2.11324l 0.412725, 25.3589l 0.412725, 10.5662l 0.412725, 8.45296l 0.412725, -14.7927l 0.412725, -10.5662l 0.412725, 16.9059l 0.412725, -8.45296l
 0.412725, -14.7927l 0.412725, 2.11324l 0.412725, -6.33972l 0.412725, 2.11324l 0.412725, -4.22648l 0.412725, 8.45296l 0.412725, -16.9059h 0.412725l 0.412725, 6.33972l 0.412725, -12.6794l 0.412725, -10.5662l 0.412725, 10.5662l 0.412725, 2.11324l
 0.412725, -8.45296l 0.412725, 16.9059l 0.412725, 6.33972l 0.412725, -6.33972l 0.412725, -2.11324l 0.412725, -8.45296l 0.412725, 4.22648l 0.412725, 8.45296h 0.412725l 0.412725, -4.22648h 0.412725l 0.412725, 4.22648l 0.412725, -12.6794l 0.412725,
 21.1324l 0.412725, -2.11324l 0.412725, 27.4721l 0.412725, -10.5662l 0.412725, -6.33972l 0.412725, 8.45296l 0.412725, -10.5662l 0.412725, -6.33972l 0.412725, -29.5853l 0.412725, 4.22648l 0.412725, -4.22648l 0.412725, 6.33972l 0.412725, 6.33972h
 0.412725l 0.412725, 2.11324l 0.412725, 6.33972l 0.412725, 4.22648h 0.412725l 0.412725, 14.7927l 0.412725, 6.33972l 0.412725, 6.33972l 0.412725, -14.7927l 0.412725, -10.5662l 0.412725, -14.7927l 0.412725, -2.11324l 0.412725, -4.22648l 0.412725,
 12.6794l 0.412725, -4.22648l 0.412725, -8.45296l 0.412725, 2.11324l 0.412725, 12.6794l 0.412725, -2.11324l 0.412725, 10.5662h 0.412725l 0.412725, -4.22648l 0.412725, -10.5662h 0.82545l 0.412725, -2.11324" fill="none" stroke="#0000ff"/>
<path d="M77.8085,364.454h 0.82545l 0.412725, -8.45296l 0.412725, -4.22648l 0.412725, -12.6794l 0.412725, -14.7927l 0.412725, -19.0191l 0.412725, -21.1324l 0.412725, -27.4721l 0.412725, -14.7927l 0.412725, -16.9059l 0.412725, -4.22648l 0.412725,
 -12.6794l 0.412725, -2.11324l 0.412725, 6.33972l 0.412725, 2.11324l 0.412725, 23.2456l 0.412725, 2.11324l 0.412725, 8.45296l 0.412725, 19.0191l 0.412725, 14.7927l 0.412725, 16.9059l 0.412725, 14.7927l 0.412725, 8.45296l 0.412725, 6.33972l 0.412725,
 8.45296l 0.412725, 10.5662l 0.412725, 2.11324l 0.412725, 6.33972l 0.412725, 2.11324h 0.412725l 0.412725, 2.11324l 0.412725, -4.22648l 0.412725, -6.33972h 0.412725l 0.412725, -2.11324h 0.412725l 0.412725, -4.22648h 0.412725l 0.412725, -10.5662l
 0.412725, -4.22648h 0.412725l 0.412725, -8.45296l 0.412725, -6.33972l 0.412725, -14.7927l 0.412725, -12.6794l 0.412725, -12.6794l 0.412725, -10.5662l 0.412725, -6.33972l 0.412725, -10.5662l 0.412725, -4.22648h 0.412725l 0.412725, -12.6794l 0.412725,
 -6.33972l 0.412725, -2.11324l 0.412725, 8.45296l 0.412725, 6.33972l 0.412725, 14.7927l 0.412725, 14.7927l 0.412725, 6.33972l 0.412725, 16.9059l 0.412725, 4.22648l 0.412725, 19.0191l 0.412725, 12.6794l 0.412725, 4.22648l 0.412725, 10.5662h 0.82545l
 0.412725, 8.45296h 0.412725l 0.412725, 2.11324h 0.82545l 0.412725, -4.22648l 0.412725, -4.22648l 0.412725, 2.11324l 0.412725, -4.22648l 0.412725, -2.11324l 0.412725, -8.45296l 0.412725, -8.45296l 0.412725, -4.22648l 0.412725, -10.5662l 0.412725,
 -4.22648l 0.412725, -8.45296h 0.412725l 0.412725, -8.45296l 0.412725, -8.45296l 0.412725, -6.33972h 0.412725l 0.412725, 4.22648l 0.412725, -10.5662l 0.412725, 2.11324l 0.412725, -6.33972l 0.412725, 10.5662l 0.412725, 6.33972h 0.412725l 0.412725,
 2.11324l 0.412725, 21.1324h 0.82545l 0.412725, -2.11324l 0.412725, 6.33972l 0.412725, 4.22648l 0.412725, 10.5662l 0.412725, -2.11324l 0.412725, 6.33972l 0.412725, 4.22648l 0.412725, -4.22648l 0.412725, 10.5662l 0.412725, -4.22648l 0.412725,
 -2.11324l 0.412725, 4.22648l 0.412725, -2.11324l 0.412725, 6.33972l 0.412725, -6.33972l 0.412725, -2.11324l 0.412725, -14.7927h 0.412725l 0.412725, -12.6794l 0.412725, -6.33972h 0.412725l 0.412725, -8.45296l 0.412725, -4.22648l 0.412725, -2.11324l
 0.412725, 10.5662l 0.412725, 4.22648l 0.412725, 10.5662l 0.412725, 4.22648l 0.412725, -2.11324l 0.412725, 4.22648l 0.412725, -2.11324l 0.412725, 2.11324l 0.412725, -8.45296l 0.412725, 2.11324l 0.412725, 8.45296l 0.412725, 2.11324l 0.412725, 2.11324l
 0.412725, 2.11324h 0.412725l 0.412725, 10.5662l 0.412725, -4.22648l 0.412725, -2.11324l 0.412725, -4.22648h 0.412725l 0.412725, -6.33972h 0.412725l 0.412725, -6.33972l 0.412725, 4.22648l 0.412725, 6.33972l 0.412725, -2.11324l 0.412725, -14.7927l
 0.412725, -2.11324h 1.6509l 0.412725, -8.45296l 0.412725, -4.22648l 0.412725, 4.22648l 0.412725, -2.11324l 0.412725, -6.33972l 0.412725, 2.11324l 0.412725, 2.11324l 0.412725, 8.45296l 0.412725, 2.11324l 0.412725, -4.22648h 0.412725l 0.412725,
 2.11324l 0.412725, 10.5662l 0.412725, 6.33972l 0.412725, 2.11324l 0.412725, -2.11324l 0.412725, 2.11324l 0.412725, 4.22648l 0.412725, -2.11324l 0.412725, 2.11324l 0.412725, 4.22648l 0.412725, -2.11324h 0.412725l 0.412725, -6.33972l 0.412725,
 -2.11324l 0.412725, -2.11324h 0.412725l 0.412725, 2.11324l 0.412725, -2.11324l 0.412725, -2.11324l 0.412725, -2.11324h 0.82545l 0.412725, 4.22648l 0.412725, -10.5662l 0.412725, -2.11324l 0.412725, -4.22648l 0.412725, -2.11324l 0.412725, 2.11324l
 0.412725, -4.22648l 0.412725, 4.22648l 0.412725, 4.22648l 0.412725, -4.22648l 0.412725, 2.11324l 0.412725, -2.11324l 0.412725, 4.22648l 0.412725, -8.45296l 0.412725, 4.22648l 0.412725, -2.11324l 0.412725, 2.11324l 0.412725, 6.33972l 0.412725,
 2.11324l 0.412725, 4.22648l 0.412725, 2.11324l 0.412725, 8.45296h 0.412725l 0.412725, 2.11324l 0.412725, 2.11324l 0.412725, 2.11324l 0.412725, 4.22648l 0.412725, 2.11324l 0.412725, -2.11324l 0.412725, -4.22648l 0.412725, -8.45296l 0.412725,
 -6.33972h 0.412725l 0.412725, 4.22648h 1.23817l 0.412725, -2.11324h 0.412725l 0.412725, -6.33972l 0.412725, -4.22648h 0.412725l 0.412725, -2.11324h 0.412725l 0.412725, 10.5662l 0.412725, -4.22648l 0.412725, 2.11324l 0.412725, -6.33972l 0.412725,
 -2.11324l 0.412725, -6.33972l 0.412725, 4.22648l 0.412725, 2.11324l 0.412725, 4.22648l 0.412725, -4.22648l 0.412725, -2.11324l 0.412725, 4.22648l 0.412725, 4.22648l 0.412725, 4.22648l 0.412725, -4.22648l 0.412725, -2.11324l 0.412725, 2.11324l
 0.412725, 2.11324h 0.412725l 0.412725, 10.5662l 0.412725, 2.11324h 0.82545l 0.412725, -2.11324l 0.412725, 2.11324l 0.412725, -2.11324l 0.412725, -2.11324l 0.412725, -4.22648l 0.412725, -4.22648l 0.412725, 2.11324l 0.412725, -2.11324h 0.412725l
 0.412725, -4.22648l 0.412725, -4.22648l 0.412725, 2.11324l 0.412725, -2.11324l 0.412725, 6.33972l 0.412725, 4.22648l 0.412725, -2.11324l 0.412725, -4.22648l 0.412725, 2.11324l 0.412725, 2.11324l 0.412725, -4.22648l 0.412725, 8.45296l 0.412725,
 -2.11324l 0.412725, -6.33972l 0.412725, 2.11324l 0.412725, -6.33972l 0.412725, -2.11324l 0.412725, 2.11324l 0.412725, -6.33972l 0.412725, -4.22648l 0.412725, 2.11324l 0.412725, -2.11324l 0.412725, 4.22648l 0.412725, 8.45296l 0.412725, 2.11324l
 0.412725, -2.11324l 0.412725, 4.22648l 0.412725, -2.11324l 0.412725, 4.22648l 0.412725, -6.33972l 0.412725, 4.22648l 0.412725, 2.11324l 0.412725, 6.33972l 0.412725, 2.11324l 0.412725, -4.22648l 0.412725, 2.11324l 0.412725, 2.11324l 0.412725,
 -2.11324h 0.412725l 0.412725, 8.45296l 0.412725, -6.33972l 0.412725, 8.45296l 0.412725, 2.11324l 0.412725, 4.22648l 0.412725, 2.11324l 0.412725, -2.11324l 0.412725, -10.5662h 0.412725l 0.412725, -2.11324l 0.412725, 4.22648l 0.412725, -2.11324l
 0.412725, -2.11324l 0.412725, -10.5662l 0.412725, 2.11324h 0.412725l 0.412725, -4.22648l 0.412725, -6.33972l 0.412725, -2.11324h 0.82545l 0.412725, 8.45296l 0.412725, -4.22648h 0.412725l 0.412725, -2.11324l 0.412725, 8.45296h 0.412725l 0.412725,
 6.33972l 0.412725, -4.22648l 0.412725, -4.22648l 0.412725, -4.22648l 0.412725, -10.5662l 0.412725, 4.22648l 0.412725, -2.11324h 0.412725l 0.412725, 10.5662l 0.412725, 6.33972l 0.412725, -4.22648l 0.412725, 8.45296l 0.412725, 2.11324h 0.412725l
 0.412725, 4.22648l 0.412725, 2.11324l 0.412725, 2.11324l 0.412725, -2.11324h 0.82545l 0.412725, 2.11324l 0.412725, -8.45296l 0.412725, 2.11324h 0.412725l 0.412725, -8.45296h 0.412725l 0.412725, -4.22648l 0.412725, 2.11324l 0.412725, -4.22648l
 0.412725, 2.11324h 0.412725l 0.412725, 2.11324h 0.412725l 0.412725, 8.45296l 0.412725, -4.22648l 0.412725, -8.45296l 0.412725, -2.11324l 0.412725, -8.45296l 0.412725, 4.22648l 0.412725, -2.11324l 0.412725, -12.6794l 0.412725, -6.33972l 0.412725,
 -16.9059l 0.412725, -6.33972l 0.412725, -6.33972h 0.412725l 0.412725, -2.11324l 0.412725, -4.22648h 0.412725l 0.412725, 4.22648l 0.412725, -2.11324l 0.412725, 4.22648l 0.412725, -4.22648h 0.412725l 0.412725, 8.45296l 0.412725, 4.22648l 0.412725,
 6.33972l 0.412725, -4.22648l 0.412725, 2.11324l 0.412725, 6.33972l 0.412725, -2.11324l 0.412725, 4.22648l 0.412725, 6.33972h 0.82545l 0.412725, -4.22648l 0.412725, 4.22648l 0.412725, -6.33972l 0.412725, -2.11324l 0.412725, -6.33972l 0.412725,
 -2.11324h 0.412725l 0.412725, -2.11324l 0.412725, 2.11324l 0.412725, -2.11324l 0.412725, -10.5662l 0.412725, -2.11324l 0.412725, -8.45296l 0.412725, -6.33972l 0.412725, -6.33972l 0.412725, 6.33972l 0.412725, -2.11324l 0.412725, 2.11324l 0.412725,
 -6.33972h 0.412725l 0.412725, 4.22648h 0.412725l 0.412725, 2.11324l 0.412725, -2.11324l 0.412725, 6.33972l 0.412725, 2.11324l 0.412725, -14.7927l 0.412725, 6.33972l 0.412725, 14.7927h 0.412725l 0.412725, 10.5662l 0.412725, 8.45296l 0.412725,
 6.33972l 0.412725, -2.11324l 0.412725, 4.22648l 0.412725, 2.11324h 0.412725l 0.412725, -2.11324l 0.412725, 4.22648l 0.412725, -4.22648l 0.412725, 4.22648l 0.412725, -8.45296l 0.412725, -6.33972l 0.412725, -2.11324h 0.412725l 0.412725, 4.22648l
 0.412725, -8.45296l 0.412725, -8.45296l 0.412725, -6.33972h 0.412725l 0.412725, -2.11324l 0.412725, -10.5662h 0.412725l 0.412725, 6.33972l 0.412725, -14.7927h 0.412725l 0.412725, 10.5662l 0.412725, 10.5662l 0.412725, 6.33972l 0.412725, 6.33972l
 0.412725, -8.45296h 0.412725l 0.412725, 14.7927l 0.412725, 10.5662l 0.412725, -2.11324l 0.412725, -4.22648l 0.412725, 2.11324l 0.412725, -4.22648l 0.412725, 6.33972h 1.23817l 0.412725, -2.11324l 0.412725, 4.22648l 0.412725, -4.22648l 0.412725,
 2.11324h 0.82545l 0.412725, 2.11324h 0.412725l 0.412725, -2.11324l 0.412725, 4.22648l 0.412725, -2.11324h 0.412725l 0.412725, -10.5662l 0.412725, -12.6794h 0.412725l 0.412725, -10.5662l 0.412725, -6.33972l 0.412725, 4.22648l 0.412725, -6.33972l
 0.412725, 4.22648l 0.412725, -8.45296l 0.412725, 6.33972l 0.412725, 2.11324l 0.412725, 14.7927h 0.412725l 0.412725, -4.22648l 0.412725, 2.11324h 0.412725l 0.412725, 10.5662h 0.412725l 0.412725, -12.6794l 0.412725, 8.45296l 0.412725, 4.22648l
 0.412725, -6.33972l 0.412725, 8.45296l 0.412725, 2.11324l 0.412725, -12.6794l 0.412725, 2.11324l 0.412725, 8.45296l 0.412725, 14.7927l 0.412725, -6.33972l 0.412725, -4.22648l 0.412725, -2.11324h 0.412725l 0.412725, 12.6794l 0.412725, -6.33972l
 0.412725, 2.11324l 0.412725, -2.11324l 0.412725, 8.45296l 0.412725, -6.33972l 0.412725, -8.45296l 0.412725, 4.22648l 0.412725, -8.45296l 0.412725, -6.33972l 0.412725, -16.9059l 0.412725, -2.11324l 0.412725, -4.22648l 0.412725, 6.33972l 0.412725,
 8.45296h 0.412725l 0.412725, -4.22648l 0.412725, -2.11324l 0.412725, -10.5662l 0.412725, -2.11324l 0.412725, 14.7927l 0.412725, 14.7927l 0.412725, 6.33972l 0.412725, 6.33972h 0.412725l 0.412725, 14.7927l 0.412725, 8.45296l 0.412725, -8.45296l
 0.412725, -4.22648l 0.412725, 2.11324l 0.412725, -8.45296l 0.412725, 2.11324h 0.412725l 0.412725, -4.22648l 0.412725, -4.22648l 0.412725, -2.11324l 0.412725, 4.22648l 0.412725, 6.33972l 0.412725, -6.33972h 0.412725l 0.412725, -12.6794l 0.412725,
 -6.33972h 0.412725l 0.412725, 2.11324l 0.412725, -10.5662l 0.412725, 8.45296l 0.412725, -10.5662l 0.412725, -4.22648l 0.412725, 2.11324h 1.23817l 0.412725, 10.5662h 0.412725l 0.412725, 10.5662h 0.412725l 0.412725, 19.0191h 0.82545l 0.412725,
 10.5662l 0.412725, -6.33972h 0.412725l 0.412725, -6.33972l 0.412725, 4.22648l 0.412725, -4.22648l 0.412725, -10.5662l 0.412725, 6.33972l 0.412725, -2.11324l 0.412725, -6.33972l 0.412725, -4.22648l 0.412725, 6.33972l 0.412725, 2.11324l 0.412725,
 -2.11324l 0.412725, -8.45296h 0.412725l 0.412725, 2.11324l 0.412725, -4.22648l 0.412725, 6.33972l 0.412725, 4.22648l 0.412725, -2.11324l 0.412725, 2.11324h 0.82545l 0.412725, 6.33972l 0.412725, -6.33972l 0.412725, -10.5662l 0.412725, -6.33972l
 0.412725, 2.11324h 0.412725l 0.412725, -2.11324l 0.412725, 4.22648l 0.412725, 14.7927h 0.412725l 0.412725, -2.11324l 0.412725, -4.22648l 0.412725, -16.9059l 0.412725, 8.45296h 0.412725l 0.412725, 4.22648l 0.412725, 8.45296l 0.412725, -4.22648l
 0.412725, -4.22648l 0.412725, -4.22648l 0.412725, 6.33972l 0.412725, 2.11324l 0.412725, 10.5662l 0.412725, 6.33972l 0.412725, -4.22648l 0.412725, -19.0191h 0.412725l 0.412725, 6.33972l 0.412725, 4.22648h 0.412725l 0.412725, -4.22648l 0.412725,
 -4.22648l 0.412725, -6.33972l 0.412725, 8.45296l 0.412725, -6.33972l 0.412725, 2.11324l 0.412725, 2.11324l 0.412725, 8.45296l 0.412725, 8.45296l 0.412725, -12.6794l 0.412725, -8.45296l 0.412725, 6.33972l 0.412725, 8.45296l 0.412725, -4.22648l
 0.412725, 4.22648l 0.412725, -12.6794l 0.412725, -2.11324l 0.412725, -4.22648h 0.412725l 0.412725, -6.33972l 0.412725, 2.11324h 0.82545l 0.412725, -4.22648l 0.412725, 4.22648l 0.412725, -4.22648l 0.412725, 4.22648l 0.412725, 10.5662l 0.412725,
 4.22648l 0.412725, 2.11324l 0.412725, 2.11324l 0.412725, -4.22648l 0.412725, -8.45296h 0.412725l 0.412725, -10.5662l 0.412725, -6.33972h 0.412725l 0.412725, 4.22648l 0.412725, 14.7927l 0.412725, 2.11324l 0.412725, -8.45296l 0.412725, 2.11324l
 0.412725, 8.45296l 0.412725, -10.5662l 0.412725, 12.6794l 0.412725, 6.33972l 0.412725, 14.7927l 0.412725, -4.22648l 0.412725, -2.11324l 0.412725, -4.22648l 0.412725, -2.11324l 0.412725, 10.5662l 0.412725, -6.33972h 0.412725l 0.412725, 2.11324l
 0.412725, -4.22648l 0.412725, 6.33972l 0.412725, -2.11324l 0.412725, -16.9059h 0.412725l 0.412725, 8.45296l 0.412725, -4.22648l 0.412725, -4.22648l 0.412725, -4.22648l 0.412725, 6.33972l 0.412725, -4.22648h 0.412725l 0.412725, -6.33972l 0.412725,
 8.45296l 0.412725, 4.22648l 0.412725, 4.22648l 0.412725, 10.5662l 0.412725, -4.22648l 0.412725, -10.5662l 0.412725, -2.11324l 0.412725, 4.22648l 0.412725, -8.45296l 0.412725, 2.11324l 0.412725, -4.22648l 0.412725, 2.11324l 0.412725, -2.11324h
 0.412725l 0.412725, -4.22648l 0.412725, 4.22648h 0.412725l 0.412725, -4.22648l 0.412725, 10.5662l 0.412725, -8.45296l 0.412725, 12.6794l 0.412725, 6.33972h 0.412725l 0.412725, -2.11324l 0.412725, 6.33972l 0.412725, 8.45296l 0.412725, -4.22648h
 0.412725l 0.412725, -8.45296l 0.412725, -6.33972l 0.412725, 4.22648l 0.412725, 2.11324l 0.412725, -4.22648l 0.412725, -8.45296l 0.412725, -10.5662l 0.412725, 8.45296l 0.412725, -4.22648l 0.412725, 4.22648l 0.412725, -6.33972l 0.412725, 4.22648l
 0.412725, -4.22648l 0.412725, 6.33972l 0.412725, -8.45296l 0.412725, 2.11324l 0.412725, 2.11324l 0.412725, -4.22648l 0.412725, 6.33972l 0.412725, -6.33972h 0.412725l 0.412725, -2.11324l 0.412725, 2.11324l 0.412725, -6.33972l 0.412725, 6.33972l
 0.412725, 6.33972l 0.412725, -2.11324h 0.412725l 0.412725, 6.33972l 0.412725, 4.22648l 0.412725, -8.45296l 0.412725, -6.33972l 0.412725, 2.11324l 0.412725, -2.11324l 0.412725, -2.11324l 0.412725, 8.45296l 0.412725, -4.22648l 0.412725, -21.1324l
 0.412725, -2.11324l 0.412725, 4.22648h 0.412725l 0.412725, -8.45296l 0.412725, -12.6794l 0.412725, -4.22648l 0.412725, 6.33972l 0.412725, -4.22648l 0.412725, -14.7927l 0.412725, -16.9059l 0.412725, -8.45296l 0.412725, -14.7927h 0.412725l 0.412725,
 -2.11324l 0.412725, -10.5662l 0.412725, 2.11324h 0.412725l 0.412725, 8.45296l 0.412725, 8.45296l 0.412725, -2.11324h 0.412725l 0.412725, 12.6794l 0.412725, 10.5662l 0.412725, -8.45296h 0.412725l 0.412725, -2.11324l 0.412725, 19.0191l 0.412725,
 -8.45296l 0.412725, 10.5662l 0.412725, 4.22648l 0.412725, -2.11324l 0.412725, 10.5662l 0.412725, -14.7927l 0.412725, -4.22648l 0.412725, 4.22648l 0.412725, 4.22648l 0.412725, -8.45296l 0.412725, -2.11324l 0.412725, -4.22648l 0.412725, -16.9059l
 0.412725, -4.22648l 0.412725, -12.6794l 0.412725, -10.5662l 0.412725, -2.11324l 0.412725, -16.9059l 0.412725, -10.5662l 0.412725, -4.22648l 0.412725, 8.45296l 0.412725, 14.7927l 0.412725, 14.7927l 0.412725, -19.0191l 0.412725, -12.6794l 0.412725,
 2.11324l 0.412725, -6.33972l 0.412725, 8.45296l 0.412725, 23.2456l 0.412725, -14.7927l 0.412725, 4.22648l 0.412725, 10.5662l 0.412725, 16.9059l 0.412725, 16.9059l 0.412725, -4.22648l 0.412725, -8.45296l 0.412725, 6.33972l 0.412725, 2.11324l
 0.412725, 16.9059h 0.412725l 0.412725, -6.33972l 0.412725, 12.6794l 0.412725, 6.33972l 0.412725, -6.33972l 0.412725, 6.33972l 0.412725, -14.7927l 0.412725, -19.0191l 0.412725, -8.45296l 0.412725, 6.33972l 0.412725, -8.45296l 0.412725, -6.33972l
 0.412725, 2.11324l 0.412725, -16.9059l 0.412725, 2.11324l 0.412725, -19.0191l 0.412725, -6.33972h 0.412725l 0.412725, -19.0191l 0.412725, -12.6794l 0.412725, 16.9059l 0.412725, 4.22648l 0.412725, 8.45296l 0.412725, 4.22648l 0.412725, -10.5662l
 0.412725, -4.22648l 0.412725, 4.22648l 0.412725, 6.33972l 0.412725, 14.7927l 0.412725, 23.2456l 0.412725, -12.6794l 0.412725, 2.11324h 0.412725l 0.412725, 4.22648l 0.412725, 2.11324l 0.412725, 8.45296l 0.412725, 25.3589l 0.412725, 2.11324h 0.82545l
 0.412725, -8.45296l 0.412725, -2.11324l 0.412725, -19.0191l 0.412725, 6.33972l 0.412725, 6.33972l 0.412725, 8.45296l 0.412725, -10.5662l 0.412725, 16.9059h 0.412725l 0.412725, -2.11324h 0.412725l 0.412725, -23.2456l 0.412725, -10.5662h 0.412725l
 0.412725, 19.0191l 0.412725, -16.9059l 0.412725, -14.7927l 0.412725, -2.11324l 0.412725, 10.5662h 0.412725l 0.412725, 4.22648l 0.412725, -12.6794l 0.412725, 2.11324l 0.412725, -6.33972l 0.412725, -14.7927l 0.412725, -2.11324l 0.412725, 10.5662l
 0.412725, 14.7927l 0.412725, 2.11324l 0.412725, -4.22648l 0.412725, 4.22648l 0.412725, -6.33972l 0.412725, 27.4721l 0.412725, 23.2456l 0.412725, -14.7927l 0.412725, -12.6794l 0.412725, -4.22648h 0.412725l 0.412725, 6.33972l 0.412725, 10.5662l
 0.412725, 2.11324l 0.412725, -6.33972l 0.412725, 4.22648l 0.412725, -4.22648l 0.412725, -2.11324l 0.412725, -6.33972l 0.412725, 10.5662l 0.412725, -4.22648l 0.412725, 10.5662l 0.412725, -6.33972l 0.412725, -10.5662l 0.412725, -2.11324h 0.412725l
 0.412725, 12.6794l 0.412725, 2.11324l 0.412725, 14.7927l 0.412725, -8.45296l 0.412725, -2.11324l 0.412725, 4.22648l 0.412725, 6.33972l 0.412725, -16.9059l 0.412725, -10.5662l 0.412725, -19.0191l 0.412725, -2.11324l 0.412725, -6.33972l 0.412725,
 14.7927l 0.412725, 21.1324l 0.412725, -6.33972l 0.412725, -2.11324l 0.412725, 6.33972l 0.412725, -12.6794l 0.412725, 2.11324l 0.412725, 14.7927l 0.412725, -6.33972l 0.412725, -8.45296l 0.412725, 10.5662l 0.412725, -2.11324l 0.412725, 2.11324l
 0.412725, 10.5662l 0.412725, -4.22648l 0.412725, -21.1324l 0.412725, 2.11324l 0.412725, 2.11324l 0.412725, 8.45296l 0.412725, -8.45296h 0.412725l 0.412725, -6.33972l 0.412725, 14.7927h 0.412725l 0.412725, 6.33972l 0.412725, -4.22648l 0.412725,
 6.33972l 0.412725, -14.7927h 0.412725l 0.412725, 8.45296l 0.412725, -8.45296l 0.412725, -6.33972l 0.412725, -14.7927l 0.412725, 8.45296l 0.412725, 14.7927l 0.412725, -16.9059l 0.412725, 2.11324h 0.412725l 0.412725, 10.5662l 0.412725, 4.22648l
 0.412725, 6.33972l 0.412725, 6.33972l 0.412725, -10.5662l 0.412725, 10.5662l 0.412725, 2.11324l 0.412725, -14.7927h 0.412725l 0.412725, 4.22648l 0.412725, -4.22648l 0.412725, -2.11324l 0.412725, -8.45296h 0.412725l 0.412725, -4.22648h 0.412725l
 0.412725, 4.22648l 0.412725, -6.33972h 0.412725l 0.412725, -6.33972l 0.412725, 14.7927l 0.412725, 16.9059l 0.412725, -4.22648l 0.412725, -6.33972h 0.412725l 0.412725, -6.33972l 0.412725, 19.0191l 0.412725, 10.5662l 0.412725, -4.22648l 0.412725,
 -6.33972h 0.412725" fill="none" stroke="#00ff00"/>
<path d="M77.8085,364.454h 2.88907l 0.412725, -2.11324l 0.412725, -2.11324h 0.412725l 0.412725, -6.33972l 0.412725, -4.22648l 0.412725, -4.22648l 0.412725, -4.22648l 0.412725, -12.6794l 0.412725, -6.33972l 0.412725, -21.1324l 0.412725, -6.33972l
 0.412725, -12.6794l 0.412725, -21.1324l 0.412725, -4.22648l 0.412725, -8.45296l 0.412725, -2.11324l 0.412725, 4.22648l 0.412725, 8.45296h 0.412725l 0.412725, -2.11324l 0.412725, 16.9059l 0.412725, 6.33972l 0.412725, 12.6794l 0.412725, 12.6794l
 0.412725, 4.22648l 0.412725, 10.5662l 0.412725, 12.6794l 0.412725, 2.11324l 0.412725, 12.6794l 0.412725, 4.22648h 0.412725l 0.412725, 4.22648l 0.412725, 2.11324l 0.412725, 2.11324l 0.412725, -4.22648h 1.6509l 0.412725, -4.22648l 0.412725, -6.33972l
 0.412725, -2.11324l 0.412725, -4.22648h 0.412725l 0.412725, -6.33972l 0.412725, 2.11324l 0.412725, -8.45296l 0.412725, -2.11324l 0.412725, -4.22648l 0.412725, -6.33972l 0.412725, -10.5662l 0.412725, -10.5662h 0.412725l 0.412725, -10.5662l 0.412725,
 -4.22648l 0.412725, -8.45296l 0.412725, -4.22648h 0.412725l 0.412725, 2.11324l 0.412725, 10.5662l 0.412725, 10.5662l 0.412725, 10.5662l 0.412725, 6.33972l 0.412725, 2.11324l 0.412725, 8.45296l 0.412725, 10.5662l 0.412725, 4.22648l 0.412725, 6.33972h
 0.82545l 0.412725, -2.11324l 0.412725, 2.11324l 0.412725, 8.45296l 0.412725, -4.22648h 0.412725l 0.412725, 2.11324l 0.412725, 2.11324h 0.412725l 0.412725, 4.22648l 0.412725, -2.11324l 0.412725, -6.33972l 0.412725, -4.22648l 0.412725, -8.45296l
 0.412725, -2.11324l 0.412725, -8.45296l 0.412725, 2.11324l 0.412725, -8.45296l 0.412725, -12.6794l 0.412725, 2.11324l 0.412725, -2.11324l 0.412725, -8.45296h 0.412725l 0.412725, 4.22648l 0.412725, 2.11324l 0.412725, 2.11324l 0.412725, 6.33972l
 0.412725, -12.6794l 0.412725, 12.6794l 0.412725, -4.22648l 0.412725, 8.45296l 0.412725, 4.22648l 0.412725, -4.22648h 0.412725l 0.412725, 8.45296l 0.412725, 2.11324h 0.412725l 0.412725, 4.22648l 0.412725, 6.33972l 0.412725, -4.22648l 0.412725,
 8.45296l 0.412725, -2.11324l 0.412725, -4.22648l 0.412725, 8.45296l 0.412725, -4.22648h 0.412725l 0.412725, 8.45296h 0.412725l 0.412725, -14.7927l 0.412725, -2.11324l 0.412725, -10.5662l 0.412725, -12.6794l 0.412725, -8.45296l 0.412725, 4.22648h
 0.412725l 0.412725, 4.22648l 0.412725, 2.11324l 0.412725, 6.33972l 0.412725, -10.5662h 0.82545l 0.412725, 8.45296l 0.412725, 8.45296l 0.412725, -4.22648l 0.412725, 2.11324l 0.412725, 2.11324l 0.412725, 4.22648l 0.412725, 4.22648l 0.412725, 2.11324l
 0.412725, 2.11324l 0.412725, 4.22648l 0.412725, -2.11324l 0.412725, -4.22648h 0.412725l 0.412725, 2.11324l 0.412725, 4.22648l 0.412725, 2.11324l 0.412725, -8.45296l 0.412725, -8.45296l 0.412725, -2.11324l 0.412725, 6.33972l 0.412725, 2.11324l
 0.412725, -4.22648l 0.412725, 6.33972h 0.412725l 0.412725, -6.33972l 0.412725, -4.22648l 0.412725, -4.22648l 0.412725, -8.45296l 0.412725, 6.33972h 0.82545l 0.412725, -4.22648l 0.412725, -8.45296l 0.412725, -2.11324l 0.412725, 6.33972l 0.412725,
 4.22648l 0.412725, 2.11324l 0.412725, -4.22648l 0.412725, 8.45296h 0.412725l 0.412725, 4.22648h 0.412725l 0.412725, 8.45296l 0.412725, -4.22648l 0.412725, 10.5662h 0.412725l 0.412725, -2.11324l 0.412725, 2.11324l 0.412725, 2.11324l 0.412725,
 -2.11324l 0.412725, -4.22648l 0.412725, -2.11324h 0.412725l 0.412725, 2.11324l 0.412725, -2.11324h 0.412725l 0.412725, -2.11324l 0.412725, 2.11324h 0.412725l 0.412725, 4.22648l 0.412725, -8.45296l 0.412725, -2.11324l 0.412725, -4.22648h 0.412725l
 0.412725, -4.22648l 0.412725, -4.22648l 0.412725, -2.11324l 0.412725, 8.45296l 0.412725, -4.22648l 0.412725, -4.22648l 0.412725, 4.22648l 0.412725, 2.11324l 0.412725, 8.45296l 0.412725, -6.33972l 0.412725, 4.22648l 0.412725, 2.11324l 0.412725,
 -4.22648l 0.412725, -4.22648l 0.412725, 4.22648l 0.412725, -6.33972l 0.412725, -2.11324l 0.412725, 2.11324l 0.412725, 2.11324l 0.412725, 4.22648l 0.412725, -2.11324l 0.412725, -8.45296l 0.412725, 12.6794l 0.412725, 4.22648l 0.412725, 8.45296h
 0.82545l 0.412725, 2.11324l 0.412725, -2.11324l 0.412725, 6.33972l 0.412725, -2.11324h 0.412725l 0.412725, -10.5662l 0.412725, -4.22648l 0.412725, -8.45296l 0.412725, 2.11324l 0.412725, -2.11324l 0.412725, 4.22648l 0.412725, 2.11324l 0.412725,
 -2.11324l 0.412725, -4.22648l 0.412725, 8.45296l 0.412725, 2.11324l 0.412725, -6.33972l 0.412725, 6.33972l 0.412725, -6.33972l 0.412725, 2.11324h 0.412725l 0.412725, -2.11324l 0.412725, 6.33972l 0.412725, -4.22648l 0.412725, -4.22648h 0.412725l
 0.412725, -2.11324l 0.412725, 2.11324l 0.412725, 4.22648l 0.412725, 4.22648l 0.412725, -6.33972l 0.412725, -2.11324h 0.412725l 0.412725, 8.45296l 0.412725, 2.11324l 0.412725, 4.22648l 0.412725, 2.11324h 0.412725l 0.412725, 2.11324h 0.412725l
 0.412725, -2.11324l 0.412725, -4.22648l 0.412725, -6.33972l 0.412725, 2.11324h 0.412725l 0.412725, -4.22648l 0.412725, -6.33972l 0.412725, -4.22648h 0.412725l 0.412725, 10.5662l 0.412725, 4.22648l 0.412725, -2.11324l 0.412725, 4.22648h 0.412725l
 0.412725, -2.11324l 0.412725, 2.11324l 0.412725, 4.22648h 0.412725l 0.412725, -2.11324l 0.412725, 2.11324l 0.412725, -8.45296l 0.412725, -4.22648l 0.412725, -2.11324l 0.412725, -8.45296l 0.412725, 2.11324l 0.412725, -8.45296l 0.412725, 2.11324h
 0.412725l 0.412725, -4.22648l 0.412725, 4.22648h 0.412725l 0.412725, 4.22648h 0.412725l 0.412725, 8.45296l 0.412725, 4.22648h 0.412725l 0.412725, -4.22648l 0.412725, 4.22648l 0.412725, 2.11324l 0.412725, -6.33972l 0.412725, -6.33972l 0.412725,
 2.11324l 0.412725, 2.11324l 0.412725, 8.45296l 0.412725, -2.11324l 0.412725, 2.11324l 0.412725, -2.11324l 0.412725, 8.45296l 0.412725, 6.33972l 0.412725, 2.11324l 0.412725, 4.22648l 0.412725, -4.22648h 0.412725l 0.412725, 6.33972l 0.412725,
 -2.11324l 0.412725, 2.11324l 0.412725, -2.11324l 0.412725, -14.7927l 0.412725, -6.33972l 0.412725, -4.22648h 0.412725l 0.412725, -2.11324l 0.412725, -2.11324h 0.412725l 0.412725, -2.11324l 0.412725, 6.33972l 0.412725, 2.11324l 0.412725, 8.45296h
 0.412725l 0.412725, -2.11324h 0.412725l 0.412725, -10.5662l 0.412725, -6.33972l 0.412725, 6.33972l 0.412725, -6.33972l 0.412725, 4.22648l 0.412725, 2.11324h 0.82545l 0.412725, -2.11324l 0.412725, 4.22648l 0.412725, 4.22648l 0.412725, -4.22648l
 0.412725, 2.11324l 0.412725, 6.33972h 0.412725l 0.412725, -2.11324l 0.412725, 10.5662l 0.412725, -6.33972l 0.412725, 6.33972l 0.412725, -4.22648h 0.82545l 0.412725, -4.22648l 0.412725, -4.22648l 0.412725, -4.22648h 0.412725l 0.412725, 6.33972l
 0.412725, 2.11324l 0.412725, -2.11324l 0.412725, 4.22648l 0.412725, -8.45296h 0.412725l 0.412725, 6.33972l 0.412725, -2.11324l 0.412725, 2.11324l 0.412725, -2.11324l 0.412725, -4.22648l 0.412725, 8.45296l 0.412725, -6.33972h 0.412725l 0.412725,
 -6.33972l 0.412725, -12.6794l 0.412725, -8.45296l 0.412725, -6.33972l 0.412725, -2.11324l 0.412725, -2.11324l 0.412725, -14.7927l 0.412725, -2.11324l 0.412725, -6.33972l 0.412725, -8.45296l 0.412725, 2.11324l 0.412725, 2.11324l 0.412725, 6.33972l
 0.412725, 4.22648l 0.412725, -12.6794l 0.412725, 14.7927l 0.412725, 10.5662h 0.412725l 0.412725, -6.33972l 0.412725, 2.11324l 0.412725, 12.6794l 0.412725, 12.6794l 0.412725, 2.11324l 0.412725, -2.11324h 0.82545l 0.412725, -4.22648l 0.412725,
 -6.33972l 0.412725, 8.45296l 0.412725, 2.11324l 0.412725, -6.33972l 0.412725, 6.33972l 0.412725, -12.6794l 0.412725, -10.5662l 0.412725, 2.11324l 0.412725, 6.33972l 0.412725, -4.22648l 0.412725, -8.45296l 0.412725, -4.22648l 0.412725, -2.11324h
 0.82545l 0.412725, 4.22648l 0.412725, 6.33972l 0.412725, -8.45296l 0.412725, -8.45296l 0.412725, 2.11324l 0.412725, -8.45296l 0.412725, 4.22648l 0.412725, 2.11324l 0.412725, -2.11324l 0.412725, -6.33972h 0.412725l 0.412725, 2.11324l 0.412725,
 4.22648l 0.412725, -2.11324l 0.412725, 19.0191l 0.412725, 8.45296h 0.412725l 0.412725, 4.22648l 0.412725, 2.11324l 0.412725, -2.11324l 0.412725, 2.11324l 0.412725, -2.11324l 0.412725, -6.33972l 0.412725, -2.11324l 0.412725, 4.22648h 0.82545l
 0.412725, -10.5662l 0.412725, 2.11324l 0.412725, 6.33972h 0.412725l 0.412725, -8.45296l 0.412725, -8.45296h 0.412725l 0.412725, -10.5662l 0.412725, -2.11324l 0.412725, -2.11324l 0.412725, 6.33972l 0.412725, -8.45296l 0.412725, 2.11324l 0.412725,
 2.11324h 0.82545l 0.412725, 6.33972l 0.412725, 4.22648l 0.412725, -2.11324l 0.412725, 6.33972l 0.412725, 4.22648l 0.412725, 4.22648l 0.412725, 4.22648l 0.412725, -2.11324l 0.412725, 4.22648h 0.82545l 0.412725, -2.11324l 0.412725, 10.5662l 0.412725,
 -6.33972l 0.412725, 12.6794l 0.412725, -2.11324l 0.412725, 4.22648l 0.412725, 2.11324l 0.412725, -2.11324l 0.412725, 4.22648h 0.412725l 0.412725, -14.7927l 0.412725, -6.33972l 0.412725, -6.33972l 0.412725, 2.11324l 0.412725, 4.22648l 0.412725,
 -6.33972l 0.412725, -10.5662l 0.412725, -6.33972l 0.412725, 12.6794l 0.412725, -2.11324l 0.412725, 4.22648l 0.412725, -19.0191l 0.412725, 12.6794l 0.412725, 2.11324l 0.412725, -10.5662l 0.412725, -2.11324l 0.412725, 10.5662l 0.412725, 4.22648l
 0.412725, 4.22648l 0.412725, 8.45296l 0.412725, -4.22648l 0.412725, -10.5662l 0.412725, -16.9059l 0.412725, 12.6794l 0.412725, 10.5662l 0.412725, 4.22648l 0.412725, 6.33972l 0.412725, -12.6794l 0.412725, 2.11324l 0.412725, 2.11324l 0.412725,
 6.33972l 0.412725, -10.5662l 0.412725, 2.11324h 0.412725l 0.412725, 4.22648l 0.412725, -4.22648l 0.412725, -2.11324l 0.412725, 14.7927l 0.412725, -4.22648l 0.412725, 2.11324h 0.412725l 0.412725, -8.45296l 0.412725, 8.45296l 0.412725, -6.33972l
 0.412725, 4.22648l 0.412725, 2.11324h 0.412725l 0.412725, -14.7927l 0.412725, -6.33972l 0.412725, -10.5662l 0.412725, 6.33972l 0.412725, 4.22648l 0.412725, -10.5662l 0.412725, -10.5662l 0.412725, 12.6794l 0.412725, 2.11324l 0.412725, -2.11324l
 0.412725, 12.6794l 0.412725, 8.45296l 0.412725, -4.22648l 0.412725, 12.6794l 0.412725, -8.45296l 0.412725, 12.6794l 0.412725, 4.22648l 0.412725, -8.45296h 0.412725l 0.412725, -6.33972h 0.412725l 0.412725, 12.6794l 0.412725, -8.45296l 0.412725,
 -8.45296l 0.412725, 6.33972l 0.412725, 4.22648l 0.412725, -4.22648l 0.412725, -2.11324l 0.412725, 2.11324h 0.412725l 0.412725, -4.22648h 0.412725l 0.412725, -12.6794l 0.412725, 8.45296l 0.412725, -6.33972l 0.412725, 4.22648l 0.412725, -16.9059l
 0.412725, 4.22648l 0.412725, -8.45296l 0.412725, -12.6794l 0.412725, 14.7927l 0.412725, 12.6794l 0.412725, -6.33972h 0.412725l 0.412725, 12.6794l 0.412725, 6.33972l 0.412725, -4.22648l 0.412725, 6.33972l 0.412725, 10.5662h 0.412725l 0.412725,
 -4.22648l 0.412725, -4.22648l 0.412725, 2.11324l 0.412725, -6.33972l 0.412725, -2.11324l 0.412725, -10.5662l 0.412725, 10.5662l 0.412725, 6.33972l 0.412725, -10.5662l 0.412725, 4.22648l 0.412725, -6.33972l 0.412725, 4.22648l 0.412725, 10.5662l
 0.412725, 2.11324l 0.412725, 10.5662h 0.412725l 0.412725, -2.11324l 0.412725, -2.11324h 0.412725l 0.412725, 4.22648l 0.412725, -4.22648l 0.412725, -8.45296h 0.412725l 0.412725, -2.11324l 0.412725, 4.22648l 0.412725, 4.22648l 0.412725, -10.5662l
 0.412725, -2.11324l 0.412725, -4.22648l 0.412725, -2.11324l 0.412725, -6.33972l 0.412725, 4.22648h 0.412725l 0.412725, -6.33972l 0.412725, 6.33972l 0.412725, -6.33972l 0.412725, -4.22648l 0.412725, 8.45296l 0.412725, 10.5662l 0.412725, 10.5662l
 0.412725, 2.11324h 0.412725l 0.412725, 12.6794l 0.412725, -8.45296h 0.412725l 0.412725, -6.33972h 0.412725l 0.412725, 8.45296l 0.412725, 2.11324l 0.412725, -4.22648l 0.412725, -12.6794l 0.412725, -4.22648h 0.412725l 0.412725, 6.33972l 0.412725,
 -4.22648l 0.412725, -19.0191l 0.412725, -4.22648l 0.412725, -2.11324l 0.412725, 4.22648l 0.412725, 6.33972l 0.412725, 10.5662l 0.412725, 4.22648l 0.412725, 2.11324l 0.412725, -10.5662l 0.412725, 10.5662l 0.412725, 6.33972l 0.412725, -2.11324h
 0.82545l 0.412725, -6.33972l 0.412725, 2.11324h 0.412725l 0.412725, -8.45296h 0.412725l 0.412725, -6.33972l 0.412725, 14.7927l 0.412725, -8.45296l 0.412725, 2.11324l 0.412725, 6.33972l 0.412725, 4.22648l 0.412725, -2.11324l 0.412725, -6.33972l
 0.412725, -8.45296l 0.412725, 10.5662l 0.412725, -6.33972l 0.412725, -10.5662l 0.412725, 8.45296h 0.412725l 0.412725, -6.33972l 0.412725, -12.6794h 0.412725l 0.412725, 2.11324l 0.412725, 8.45296l 0.412725, 10.5662l 0.412725, -10.5662l 0.412725,
 6.33972l 0.412725, 6.33972l 0.412725, -2.11324l 0.412725, 4.22648h 0.412725l 0.412725, -6.33972h 0.412725l 0.412725, -4.22648l 0.412725, -6.33972l 0.412725, 16.9059l 0.412725, 8.45296l 0.412725, 6.33972l 0.412725, -2.11324l 0.412725, 6.33972l
 0.412725, -6.33972h 0.412725l 0.412725, -8.45296l 0.412725, -2.11324l 0.412725, 4.22648l 0.412725, -16.9059h 0.412725l 0.412725, -8.45296l 0.412725, -4.22648l 0.412725, 6.33972l 0.412725, 6.33972h 0.412725l 0.412725, 4.22648l 0.412725, 2.11324l
 0.412725, -2.11324l 0.412725, 2.11324l 0.412725, 10.5662l 0.412725, 6.33972l 0.412725, 4.22648l 0.412725, -2.11324l 0.412725, -6.33972l 0.412725, -6.33972l 0.412725, -10.5662l 0.412725, -8.45296l 0.412725, 8.45296l 0.412725, 8.45296l 0.412725,
 -2.11324l 0.412725, -12.6794l 0.412725, 10.5662l 0.412725, -4.22648l 0.412725, 12.6794l 0.412725, -2.11324h 0.412725l 0.412725, 8.45296l 0.412725, -4.22648l 0.412725, 2.11324l 0.412725, -4.22648h 0.412725l 0.412725, 2.11324l 0.412725, 2.11324l
 0.412725, 4.22648l 0.412725, -10.5662l 0.412725, 4.22648l 0.412725, -8.45296l 0.412725, 6.33972l 0.412725, -10.5662l 0.412725, -6.33972l 0.412725, 6.33972l 0.412725, -8.45296l 0.412725, 8.45296h 0.412725l 0.412725, 10.5662l 0.412725, -2.11324l
 0.412725, -10.5662l 0.412725, -8.45296l 0.412725, -6.33972l 0.412725, 4.22648l 0.412725, 4.22648l 0.412725, 2.11324l 0.412725, -6.33972l 0.412725, 4.22648l 0.412725, -2.11324l 0.412725, 12.6794h 0.412725l 0.412725, -10.5662l 0.412725, 6.33972l
 0.412725, 4.22648h 0.412725l 0.412725, 6.33972l 0.412725, -8.45296l 0.412725, 6.33972l 0.412725, -4.22648h 0.412725l 0.412725, -4.22648l 0.412725, -4.22648l 0.412725, 2.11324l 0.412725, 12.6794l 0.412725, 2.11324l 0.412725, -12.6794l 0.412725,
 -2.11324l 0.412725, -19.0191l 0.412725, -12.6794l 0.412725, 4.22648l 0.412725, -12.6794l 0.412725, -16.9059l 0.412725, -14.7927l 0.412725, -19.0191h 0.412725l 0.412725, -2.11324l 0.412725, -4.22648l 0.412725, -4.22648l 0.412725, 2.11324l 0.412725,
 2.11324l 0.412725, 10.5662l 0.412725, -8.45296l 0.412725, 8.45296l 0.412725, 10.5662l 0.412725, -2.11324l 0.412725, 10.5662l 0.412725, 2.11324l 0.412725, 8.45296l 0.412725, -6.33972l 0.412725, 6.33972l 0.412725, 4.22648l 0.412725, -14.7927l
 0.412725, 2.11324h 0.412725l 0.412725, 4.22648l 0.412725, -2.11324l 0.412725, 8.45296l 0.412725, 4.22648h 0.412725l 0.412725, 6.33972l 0.412725, -2.11324l 0.412725, -12.6794l 0.412725, -10.5662l 0.412725, -12.6794l 0.412725, -23.2456l 0.412725,
 12.6794l 0.412725, 4.22648l 0.412725, 2.11324l 0.412725, -4.22648l 0.412725, -16.9059l 0.412725, -21.1324l 0.412725, -4.22648l 0.412725, 10.5662l 0.412725, 2.11324l 0.412725, -12.6794l 0.412725, 4.22648l 0.412725, 12.6794l 0.412725, -2.11324l
 0.412725, -8.45296l 0.412725, 10.5662l 0.412725, -8.45296l 0.412725, 19.0191l 0.412725, -6.33972l 0.412725, 27.4721l 0.412725, 12.6794l 0.412725, -6.33972l 0.412725, 10.5662l 0.412725, 2.11324l 0.412725, 6.33972h 0.412725l 0.412725, -10.5662l
 0.412725, 2.11324l 0.412725, -6.33972l 0.412725, 12.6794l 0.412725, 10.5662l 0.412725, -2.11324l 0.412725, 12.6794l 0.412725, 6.33972l 0.412725, -8.45296l 0.412725, -8.45296l 0.412725, -12.6794l 0.412725, -10.5662l 0.412725, -8.45296l 0.412725,
 -12.6794l 0.412725, -6.33972l 0.412725, 6.33972l 0.412725, 2.11324l 0.412725, 6.33972l 0.412725, 2.11324l 0.412725, -14.7927l 0.412725, -12.6794l 0.412725, 4.22648h 0.412725l 0.412725, 2.11324l 0.412725, 12.6794h 0.412725l 0.412725, -4.22648l
 0.412725, -16.9059h 0.412725l 0.412725, -8.45296l 0.412725, 6.33972l 0.412725, 10.5662l 0.412725, 19.0191l 0.412725, 10.5662l 0.412725, -6.33972l 0.412725, -2.11324l 0.412725, -8.45296l 0.412725, 10.5662l 0.412725, -4.22648l 0.412725, -2.11324l
 0.412725, -8.45296l 0.412725, 21.1324h 0.412725l 0.412725, -2.11324l 0.412725, 8.45296l 0.412725, -8.45296l 0.412725, -8.45296l 0.412725, 6.33972l 0.412725, 14.7927l 0.412725, -10.5662l 0.412725, 2.11324h 0.82545l 0.412725, 4.22648l 0.412725,
 -2.11324l 0.412725, 12.6794l 0.412725, 4.22648l 0.412725, -6.33972l 0.412725, -12.6794l 0.412725, -12.6794h 0.412725l 0.412725, -8.45296l 0.412725, 2.11324l 0.412725, -25.3589l 0.412725, -23.2456l 0.412725, 16.9059l 0.412725, 12.6794l 0.412725,
 4.22648l 0.412725, 23.2456l 0.412725, -16.9059h 0.412725l 0.412725, 16.9059l 0.412725, -10.5662l 0.412725, 2.11324l 0.412725, 2.11324l 0.412725, 12.6794l 0.412725, 12.6794l 0.412725, 12.6794l 0.412725, -6.33972l 0.412725, -16.9059l 0.412725,
 10.5662l 0.412725, -8.45296l 0.412725, 6.33972l 0.412725, -10.5662l 0.412725, -12.6794h 0.412725l 0.412725, -6.33972h 0.412725l 0.412725, 4.22648l 0.412725, -8.45296l 0.412725, -6.33972l 0.412725, 4.22648l 0.412725, 14.7927l 0.412725, 10.5662h
 0.412725l 0.412725, -4.22648l 0.412725, -12.6794l 0.412725, -4.22648h 0.412725l 0.412725, 14.7927l 0.412725, -2.11324l 0.412725, 6.33972h 0.412725l 0.412725, 2.11324l 0.412725, 10.5662l 0.412725, -8.45296h 0.412725l 0.412725, -4.22648l 0.412725,
 12.6794h 0.412725l 0.412725, -14.7927l 0.412725, 6.33972l 0.412725, -4.22648l 0.412725, 10.5662l 0.412725, -25.3589l 0.412725, -4.22648l 0.412725, 12.6794l 0.412725, 10.5662l 0.412725, -8.45296l 0.412725, -12.6794l 0.412725, -10.5662l 0.412725,
 2.11324h 0.412725l 0.412725, 10.5662l 0.412725, 23.2456l 0.412725, -2.11324h 0.412725l 0.412725, 21.1324l 0.412725, -10.5662l 0.412725, -2.11324l 0.412725, -6.33972l 0.412725, 4.22648l 0.412725, -19.0191l 0.412725, -6.33972l 0.412725, 8.45296l
 0.412725, -2.11324l 0.412725, -4.22648l 0.412725, -6.33972l 0.412725, 8.45296l 0.412725, -2.11324h 0.412725l 0.412725, 16.9059l 0.412725, 4.22648l 0.412725, 6.33972l 0.412725, -4.22648l 0.412725, -8.45296l 0.412725, 6.33972l 0.412725, -6.33972l
 0.412725, 12.6794l 0.412725, -4.22648l 0.412725, -6.33972l 0.412725, 6.33972l 0.412725, -8.45296l 0.412725, -4.22648l 0.412725, 8.45296l 0.412725, -21.1324l 0.412725, -2.11324l 0.412725, -2.11324l 0.412725, -8.45296l 0.412725, 8.45296l 0.412725,
 -16.9059l 0.412725, 12.6794l 0.412725, 2.11324l 0.412725, 6.33972l 0.412725, 4.22648" fill="none" stroke="#ff0000"/>
<path d="M77.8085,364.454h 5.36542l 0.412725, -2.11324h 0.82545l 0.412725, -2.11324l 0.412725, -2.11324l 0.412725, -2.11324l 0.412725, -2.11324l 0.412725, -10.5662l 0.412725, -6.33972l 0.412725, -10.5662l 0.412725, -12.6794l 0.412725, -12.6794l
 0.412725, -6.33972l 0.412725, -2.11324l 0.412725, -14.7927h 0.412725l 0.412725, -10.5662l 0.412725, -2.11324l 0.412725, 8.45296l 0.412725, -4.22648l 0.412725, 2.11324l 0.412725, 10.5662l 0.412725, 2.11324h 0.412725l 0.412725, 16.9059l 0.412725,
 8.45296l 0.412725, 6.33972l 0.412725, 6.33972l 0.412725, 12.6794l 0.412725, 6.33972l 0.412725, 4.22648l 0.412725, 4.22648l 0.412725, 2.11324l 0.412725, 4.22648l 0.412725, -2.11324h 0.82545l 0.412725, 2.11324h 0.412725l 0.412725, -4.22648h 0.412725l
 0.412725, 2.11324l 0.412725, -8.45296h 0.412725l 0.412725, -4.22648l 0.412725, -6.33972l 0.412725, -4.22648h 0.82545l 0.412725, -4.22648l 0.412725, -8.45296l 0.412725, -2.11324l 0.412725, -8.45296l 0.412725, -12.6794l 0.412725, -4.22648l 0.412725,
 -10.5662h 0.412725l 0.412725, 8.45296l 0.412725, -2.11324l 0.412725, 4.22648l 0.412725, 8.45296l 0.412725, 2.11324l 0.412725, 2.11324l 0.412725, 4.22648l 0.412725, 12.6794l 0.412725, 4.22648h 0.412725l 0.412725, 6.33972l 0.412725, 4.22648l 0.412725,
 6.33972l 0.412725, 2.11324l 0.412725, -6.33972h 0.412725l 0.412725, 4.22648l 0.412725, 2.11324l 0.412725, 6.33972l 0.412725, -2.11324l 0.412725, 2.11324h 0.412725l 0.412725, -4.22648h 0.412725l 0.412725, 4.22648l 0.412725, -8.45296l 0.412725,
 -2.11324l 0.412725, -10.5662l 0.412725, -8.45296l 0.412725, -8.45296l 0.412725, 2.11324l 0.412725, -8.45296l 0.412725, -2.11324l 0.412725, 4.22648l 0.412725, -6.33972l 0.412725, 6.33972l 0.412725, -8.45296l 0.412725, 6.33972l 0.412725, 8.45296l
 0.412725, 8.45296l 0.412725, 2.11324l 0.412725, -4.22648l 0.412725, 8.45296l 0.412725, -4.22648l 0.412725, -8.45296h 0.82545l 0.412725, 2.11324l 0.412725, 10.5662l 0.412725, -6.33972l 0.412725, 4.22648l 0.412725, 6.33972l 0.412725, -2.11324l
 0.412725, -2.11324l 0.412725, 6.33972h 0.412725l 0.412725, 2.11324l 0.412725, 6.33972l 0.412725, 2.11324l 0.412725, -4.22648l 0.412725, -4.22648l 0.412725, -6.33972l 0.412725, -2.11324l 0.412725, -6.33972h 0.82545l 0.412725, -2.11324l 0.412725,
 -6.33972l 0.412725, -8.45296l 0.412725, -2.11324l 0.412725, 2.11324l 0.412725, 8.45296l 0.412725, 4.22648h 0.412725l 0.412725, 2.11324l 0.412725, -2.11324l 0.412725, 2.11324h 0.412725l 0.412725, 8.45296l 0.412725, -2.11324l 0.412725, 2.11324h
 0.412725l 0.412725, -2.11324l 0.412725, 6.33972h 0.82545l 0.412725, -6.33972l 0.412725, -2.11324h 0.412725l 0.412725, 8.45296l 0.412725, 2.11324h 0.412725l 0.412725, 2.11324l 0.412725, -2.11324h 0.412725l 0.412725, -8.45296l 0.412725, 2.11324h
 0.412725l 0.412725, -6.33972l 0.412725, 2.11324l 0.412725, 2.11324h 0.412725l 0.412725, -8.45296l 0.412725, -2.11324l 0.412725, 2.11324l 0.412725, -6.33972h 0.412725l 0.412725, -4.22648l 0.412725, 2.11324l 0.412725, -6.33972l 0.412725, 8.45296l
 0.412725, -6.33972l 0.412725, 2.11324h 0.412725l 0.412725, 2.11324l 0.412725, 8.45296l 0.412725, 6.33972l 0.412725, 6.33972l 0.412725, 10.5662l 0.412725, -2.11324l 0.412725, 4.22648l 0.412725, -2.11324l 0.412725, -4.22648l 0.412725, -2.11324l
 0.412725, -6.33972l 0.412725, -2.11324l 0.412725, -4.22648l 0.412725, 4.22648l 0.412725, 2.11324l 0.412725, -6.33972l 0.412725, 4.22648l 0.412725, -2.11324l 0.412725, 2.11324h 0.412725l 0.412725, -8.45296l 0.412725, 6.33972l 0.412725, 2.11324l
 0.412725, -8.45296l 0.412725, -4.22648l 0.412725, -2.11324l 0.412725, 2.11324l 0.412725, 2.11324l 0.412725, 6.33972l 0.412725, 2.11324h 0.412725l 0.412725, -6.33972l 0.412725, 2.11324l 0.412725, -6.33972l 0.412725, 6.33972l 0.412725, 6.33972h
 0.412725l 0.412725, 8.45296l 0.412725, 2.11324l 0.412725, -8.45296l 0.412725, -8.45296l 0.412725, -2.11324l 0.412725, -4.22648l 0.412725, 4.22648l 0.412725, -2.11324l 0.412725, 6.33972l 0.412725, 2.11324l 0.412725, 2.11324l 0.412725, 10.5662h
 0.412725l 0.412725, 2.11324l 0.412725, 2.11324l 0.412725, -6.33972l 0.412725, 2.11324l 0.412725, -4.22648l 0.412725, -2.11324l 0.412725, 2.11324l 0.412725, 2.11324l 0.412725, -12.6794l 0.412725, -6.33972l 0.412725, 4.22648l 0.412725, -6.33972l
 0.412725, 2.11324l 0.412725, 2.11324l 0.412725, 4.22648l 0.412725, 4.22648l 0.412725, -6.33972l 0.412725, 6.33972l 0.412725, 2.11324l 0.412725, -4.22648l 0.412725, -4.22648l 0.412725, 4.22648l 0.412725, -4.22648l 0.412725, -6.33972h 0.412725l
 0.412725, 8.45296l 0.412725, 2.11324l 0.412725, -8.45296h 0.82545l 0.412725, -4.22648l 0.412725, 2.11324h 0.412725l 0.412725, 2.11324l 0.412725, 6.33972h 0.412725l 0.412725, 8.45296l 0.412725, 8.45296l 0.412725, -2.11324l 0.412725, 2.11324l
 0.412725, 6.33972l 0.412725, -2.11324l 0.412725, -6.33972l 0.412725, -10.5662l 0.412725, -8.45296l 0.412725, 2.11324l 0.412725, -4.22648l 0.412725, 6.33972l 0.412725, -4.22648l 0.412725, 6.33972l 0.412725, -2.11324h 0.412725l 0.412725, 4.22648l
 0.412725, -4.22648l 0.412725, 2.11324h 0.412725l 0.412725, 4.22648h 0.412725l 0.412725, -2.11324l 0.412725, 2.11324l 0.412725, -2.11324l 0.412725, 2.11324l 0.412725, 6.33972l 0.412725, -8.45296l 0.412725, -2.11324l 0.412725, -4.22648l 0.412725,
 -8.45296l 0.412725, -2.11324l 0.412725, 4.22648l 0.412725, 2.11324h 0.412725l 0.412725, -2.11324l 0.412725, -2.11324h 0.412725l 0.412725, -2.11324l 0.412725, 8.45296l 0.412725, 2.11324l 0.412725, -2.11324l 0.412725, 2.11324l 0.412725, 2.11324l
 0.412725, -4.22648h 0.82545l 0.412725, 4.22648l 0.412725, -2.11324l 0.412725, 4.22648l 0.412725, 2.11324l 0.412725, -8.45296h 0.412725l 0.412725, 10.5662l 0.412725, 6.33972h 0.412725l 0.412725, 2.11324l 0.412725, 6.33972h 0.412725l 0.412725,
 -4.22648h 0.412725l 0.412725, -8.45296l 0.412725, 2.11324l 0.412725, -6.33972h 0.412725l 0.412725, -8.45296l 0.412725, -2.11324l 0.412725, -4.22648l 0.412725, 4.22648l 0.412725, 4.22648l 0.412725, 4.22648l 0.412725, -2.11324l 0.412725, 2.11324l
 0.412725, -2.11324l 0.412725, -2.11324l 0.412725, -2.11324l 0.412725, 4.22648l 0.412725, 6.33972l 0.412725, -4.22648l 0.412725, -4.22648l 0.412725, 2.11324l 0.412725, -2.11324h 0.412725l 0.412725, 2.11324l 0.412725, -2.11324l 0.412725, -8.45296l
 0.412725, 8.45296l 0.412725, -6.33972l 0.412725, -2.11324l 0.412725, 14.7927l 0.412725, -2.11324l 0.412725, 2.11324l 0.412725, 10.5662l 0.412725, 2.11324l 0.412725, -4.22648l 0.412725, -8.45296h 0.412725l 0.412725, 2.11324l 0.412725, -4.22648l
 0.412725, 4.22648l 0.412725, 4.22648l 0.412725, -8.45296l 0.412725, 4.22648l 0.412725, -4.22648l 0.412725, 2.11324h 0.412725l 0.412725, -2.11324l 0.412725, -2.11324h 0.412725l 0.412725, -2.11324h 0.82545l 0.412725, 4.22648l 0.412725, -4.22648l
 0.412725, -4.22648h 0.412725l 0.412725, -8.45296l 0.412725, 12.6794l 0.412725, -4.22648l 0.412725, -8.45296l 0.412725, -4.22648l 0.412725, -10.5662l 0.412725, -4.22648l 0.412725, 8.45296l 0.412725, -12.6794l 0.412725, -4.22648l 0.412725, -8.45296l
 0.412725, -6.33972h 0.412725l 0.412725, 4.22648l 0.412725, 2.11324l 0.412725, 4.22648h 0.82545l 0.412725, -4.22648l 0.412725, 12.6794l 0.412725, 8.45296l 0.412725, -4.22648l 0.412725, 2.11324l 0.412725, 6.33972l 0.412725, 6.33972l 0.412725, 2.11324l
 0.412725, 8.45296l 0.412725, 4.22648l 0.412725, -12.6794l 0.412725, -2.11324l 0.412725, -2.11324l 0.412725, -2.11324l 0.412725, -6.33972l 0.412725, -2.11324l 0.412725, -2.11324l 0.412725, -2.11324l 0.412725, -6.33972l 0.412725, 4.22648l 0.412725,
 -6.33972h 0.82545l 0.412725, -8.45296l 0.412725, -4.22648l 0.412725, 2.11324l 0.412725, 4.22648l 0.412725, 8.45296l 0.412725, 4.22648l 0.412725, 10.5662l 0.412725, 2.11324l 0.412725, -12.6794l 0.412725, -6.33972l 0.412725, 6.33972l 0.412725,
 -6.33972l 0.412725, -2.11324l 0.412725, -4.22648l 0.412725, -2.11324l 0.412725, 12.6794l 0.412725, 2.11324l 0.412725, 12.6794l 0.412725, -4.22648l 0.412725, 10.5662h 0.412725l 0.412725, 6.33972l 0.412725, -6.33972h 0.412725l 0.412725, -10.5662l
 0.412725, -6.33972l 0.412725, 6.33972l 0.412725, -10.5662l 0.412725, 6.33972h 0.412725l 0.412725, 2.11324l 0.412725, -6.33972l 0.412725, -2.11324l 0.412725, -2.11324l 0.412725, -8.45296l 0.412725, 2.11324l 0.412725, -2.11324l 0.412725, -6.33972l
 0.412725, -4.22648h 0.412725l 0.412725, -2.11324l 0.412725, 8.45296l 0.412725, 4.22648h 0.412725l 0.412725, 4.22648l 0.412725, -4.22648l 0.412725, -4.22648l 0.412725, 14.7927l 0.412725, 4.22648l 0.412725, -4.22648l 0.412725, 10.5662l 0.412725,
 -2.11324l 0.412725, 6.33972l 0.412725, -2.11324l 0.412725, 2.11324l 0.412725, -10.5662l 0.412725, 2.11324l 0.412725, 8.45296l 0.412725, 6.33972l 0.412725, 8.45296l 0.412725, -2.11324l 0.412725, 6.33972l 0.412725, -8.45296l 0.412725, -6.33972l
 0.412725, -6.33972l 0.412725, 14.7927l 0.412725, -12.6794l 0.412725, -4.22648l 0.412725, -12.6794l 0.412725, 14.7927l 0.412725, -6.33972l 0.412725, 4.22648h 0.412725l 0.412725, -8.45296l 0.412725, 2.11324l 0.412725, -14.7927l 0.412725, -6.33972l
 0.412725, -4.22648h 0.412725l 0.412725, 4.22648l 0.412725, 4.22648l 0.412725, -2.11324l 0.412725, 8.45296l 0.412725, 2.11324h 0.412725l 0.412725, 4.22648l 0.412725, 10.5662l 0.412725, 2.11324l 0.412725, 2.11324l 0.412725, 6.33972l 0.412725,
 -2.11324h 0.412725l 0.412725, -6.33972l 0.412725, -4.22648h 0.412725l 0.412725, -12.6794l 0.412725, -2.11324l 0.412725, 2.11324l 0.412725, 2.11324l 0.412725, -8.45296l 0.412725, 2.11324l 0.412725, 14.7927l 0.412725, -12.6794l 0.412725, 2.11324l
 0.412725, 8.45296l 0.412725, -2.11324l 0.412725, -2.11324l 0.412725, 8.45296l 0.412725, -8.45296l 0.412725, 2.11324h 0.412725l 0.412725, 4.22648l 0.412725, -10.5662l 0.412725, 2.11324l 0.412725, 6.33972l 0.412725, -2.11324l 0.412725, -10.5662l
 0.412725, 4.22648l 0.412725, -4.22648l 0.412725, 8.45296l 0.412725, -8.45296l 0.412725, -8.45296l 0.412725, 6.33972l 0.412725, 6.33972l 0.412725, 12.6794l 0.412725, 8.45296l 0.412725, -8.45296l 0.412725, 4.22648l 0.412725, 12.6794l 0.412725,
 -10.5662l 0.412725, -10.5662l 0.412725, 2.11324l 0.412725, -2.11324h 0.412725l 0.412725, -6.33972l 0.412725, 4.22648l 0.412725, -2.11324l 0.412725, 4.22648l 0.412725, -4.22648h 0.412725l 0.412725, -6.33972l 0.412725, 4.22648l 0.412725, -6.33972l
 0.412725, 14.7927l 0.412725, 4.22648l 0.412725, -2.11324l 0.412725, -12.6794l 0.412725, 8.45296l 0.412725, -8.45296l 0.412725, -14.7927h 0.412725l 0.412725, 2.11324l 0.412725, -2.11324l 0.412725, 2.11324l 0.412725, -6.33972l 0.412725, 14.7927l
 0.412725, 10.5662l 0.412725, -4.22648l 0.412725, 8.45296h 0.412725l 0.412725, 10.5662l 0.412725, -6.33972l 0.412725, -6.33972l 0.412725, -4.22648h 1.23817l 0.412725, -6.33972l 0.412725, -8.45296l 0.412725, 2.11324l 0.412725, 4.22648l 0.412725,
 -12.6794l 0.412725, 10.5662l 0.412725, 2.11324l 0.412725, -6.33972h 0.412725l 0.412725, -2.11324l 0.412725, 4.22648l 0.412725, 19.0191l 0.412725, -4.22648l 0.412725, -6.33972l 0.412725, 8.45296l 0.412725, 2.11324l 0.412725, -2.11324l 0.412725,
 2.11324l 0.412725, 6.33972l 0.412725, -4.22648h 0.412725l 0.412725, 12.6794l 0.412725, -6.33972l 0.412725, -6.33972l 0.412725, -8.45296l 0.412725, -10.5662l 0.412725, -6.33972l 0.412725, -2.11324l 0.412725, -8.45296l 0.412725, 4.22648l 0.412725,
 -4.22648l 0.412725, 8.45296l 0.412725, 4.22648l 0.412725, 8.45296l 0.412725, -2.11324l 0.412725, 8.45296l 0.412725, -2.11324l 0.412725, 14.7927l 0.412725, 4.22648l 0.412725, -2.11324h 0.412725l 0.412725, -4.22648l 0.412725, 2.11324l 0.412725,
 -2.11324l 0.412725, 10.5662h 0.412725l 0.412725, -4.22648l 0.412725, -4.22648l 0.412725, -6.33972l 0.412725, -12.6794l 0.412725, -2.11324l 0.412725, 6.33972l 0.412725, -6.33972h 0.412725l 0.412725, 2.11324h 0.82545l 0.412725, 10.5662l 0.412725,
 -2.11324l 0.412725, -2.11324l 0.412725, 6.33972l 0.412725, 6.33972h 0.412725l 0.412725, -12.6794l 0.412725, 12.6794h 0.412725l 0.412725, -6.33972l 0.412725, -2.11324l 0.412725, 2.11324l 0.412725, -2.11324l 0.412725, 2.11324l 0.412725, -8.45296l
 0.412725, 8.45296l 0.412725, -8.45296l 0.412725, -2.11324l 0.412725, 2.11324h 0.412725l 0.412725, 2.11324h 0.412725l 0.412725, 8.45296l 0.412725, -8.45296l 0.412725, -6.33972l 0.412725, 6.33972l 0.412725, 6.33972l 0.412725, -8.45296l 0.412725,
 -2.11324l 0.412725, 2.11324l 0.412725, -14.7927l 0.412725, -2.11324l 0.412725, 4.22648l 0.412725, 10.5662l 0.412725, 2.11324l 0.412725, -4.22648l 0.412725, 4.22648l 0.412725, -2.11324l 0.412725, -2.11324l 0.412725, 2.11324h 0.412725l 0.412725,
 4.22648l 0.412725, 10.5662l 0.412725, -6.33972l 0.412725, -2.11324l 0.412725, 6.33972l 0.412725, 2.11324l 0.412725, 12.6794l 0.412725, 6.33972l 0.412725, -10.5662l 0.412725, -8.45296l 0.412725, -2.11324l 0.412725, -8.45296l 0.412725, -2.11324l
 0.412725, -2.11324l 0.412725, -6.33972l 0.412725, -4.22648l 0.412725, -2.11324l 0.412725, -4.22648l 0.412725, 4.22648h 0.412725l 0.412725, 4.22648h 0.412725l 0.412725, 8.45296l 0.412725, -2.11324l 0.412725, 2.11324l 0.412725, 2.11324l 0.412725,
 2.11324l 0.412725, -6.33972l 0.412725, 6.33972l 0.412725, -8.45296l 0.412725, 6.33972l 0.412725, 8.45296l 0.412725, -12.6794l 0.412725, 2.11324l 0.412725, 6.33972l 0.412725, 10.5662l 0.412725, 4.22648l 0.412725, -4.22648l 0.412725, -2.11324l
 0.412725, -8.45296l 0.412725, -2.11324l 0.412725, -2.11324l 0.412725, -2.11324l 0.412725, -2.11324l 0.412725, 8.45296l 0.412725, 8.45296l 0.412725, -4.22648l 0.412725, 8.45296l 0.412725, -2.11324l 0.412725, -2.11324l 0.412725, -16.9059l 0.412725,
 8.45296l 0.412725, -4.22648l 0.412725, -2.11324l 0.412725, 4.22648l 0.412725, -8.45296l 0.412725, 6.33972l 0.412725, 4.22648l 0.412725, -4.22648l 0.412725, -2.11324l 0.412725, 4.22648l 0.412725, -16.9059l 0.412725, 12.6794l 0.412725, -2.11324l
 0.412725, -12.6794l 0.412725, 6.33972l 0.412725, 2.11324l 0.412725, -4.22648h 0.412725l 0.412725, -10.5662l 0.412725, 14.7927l 0.412725, 6.33972l 0.412725, 4.22648l 0.412725, -4.22648l 0.412725, 2.11324l 0.412725, -12.6794l 0.412725, 8.45296l
 0.412725, 4.22648l 0.412725, 4.22648l 0.412725, -2.11324l 0.412725, 6.33972l 0.412725, 2.11324l 0.412725, -6.33972h 0.412725l 0.412725, -6.33972l 0.412725, -4.22648l 0.412725, -4.22648l 0.412725, -14.7927l 0.412725, -10.5662h 0.412725l 0.412725,
 -6.33972l 0.412725, -8.45296l 0.412725, -4.22648l 0.412725, -8.45296l 0.412725, -10.5662l 0.412725, -10.5662l 0.412725, 6.33972h 0.412725l 0.412725, -2.11324l 0.412725, -14.7927l 0.412725, 8.45296l 0.412725, -6.33972l 0.412725, 12.6794l 0.412725,
 8.45296l 0.412725, -2.11324l 0.412725, 6.33972h 0.412725l 0.412725, 4.22648l 0.412725, -6.33972l 0.412725, 10.5662l 0.412725, 8.45296l 0.412725, -10.5662l 0.412725, 6.33972l 0.412725, 8.45296l 0.412725, -2.11324l 0.412725, 4.22648l 0.412725,
 12.6794l 0.412725, -12.6794l 0.412725, 2.11324l 0.412725, -14.7927h 0.412725l 0.412725, 4.22648l 0.412725, -4.22648l 0.412725, 4.22648l 0.412725, -25.3589l 0.412725, -14.7927l 0.412725, 10.5662l 0.412725, -10.5662l 0.412725, -14.7927l 0.412725,
 4.22648l 0.412725, 2.11324h 0.82545l 0.412725, -4.22648l 0.412725, 14.7927l 0.412725, -12.6794h 0.412725l 0.412725, 6.33972l 0.412725, -2.11324l 0.412725, 2.11324l 0.412725, 2.11324l 0.412725, 10.5662l 0.412725, 23.2456l 0.412725, 4.22648l 0.412725,
 12.6794l 0.412725, -8.45296l 0.412725, -2.11324l 0.412725, -14.7927l 0.412725, -10.5662l 0.412725, -2.11324l 0.412725, 6.33972h 0.412725l 0.412725, 14.7927l 0.412725, 12.6794h 0.412725l 0.412725, -8.45296l 0.412725, -2.11324l 0.412725, 2.11324h
 0.412725l 0.412725, -14.7927l 0.412725, -4.22648l 0.412725, -2.11324l 0.412725, -2.11324l 0.412725, 4.22648l 0.412725, -10.5662l 0.412725, 10.5662l 0.412725, -12.6794l 0.412725, -2.11324l 0.412725, 2.11324l 0.412725, 6.33972l 0.412725, -2.11324h
 0.412725l 0.412725, -8.45296h 0.412725l 0.412725, -8.45296l 0.412725, -8.45296l 0.412725, 14.7927l 0.412725, -2.11324l 0.412725, 6.33972l 0.412725, 8.45296l 0.412725, -14.7927l 0.412725, 10.5662l 0.412725, 10.5662l 0.412725, -8.45296l 0.412725,
 10.5662l 0.412725, 10.5662l 0.412725, -10.5662l 0.412725, 2.11324l 0.412725, 8.45296l 0.412725, -4.22648l 0.412725, -4.22648l 0.412725, 2.11324h 0.412725l 0.412725, -4.22648l 0.412725, 2.11324l 0.412725, -10.5662l 0.412725, 2.11324l 0.412725,
 -6.33972l 0.412725, 6.33972l 0.412725, 14.7927l 0.412725, -8.45296l 0.412725, 2.11324l 0.412725, 8.45296l 0.412725, 4.22648l 0.412725, -8.45296l 0.412725, 8.45296l 0.412725, 12.6794h 0.412725l 0.412725, -19.0191h 0.412725l 0.412725, -25.3589l
 0.412725, 2.11324l 0.412725, -8.45296l 0.412725, -19.0191l 0.412725, 6.33972l 0.412725, -2.11324l 0.412725, 4.22648l 0.412725, -8.45296l 0.412725, 16.9059l 0.412725, -4.22648l 0.412725, 8.45296l 0.412725, 4.22648l 0.412725, -8.45296l 0.412725,
 2.11324l 0.412725, 12.6794l 0.412725, 4.22648l 0.412725, 14.7927l 0.412725, 4.22648h 0.412725l 0.412725, 4.22648l 0.412725, 6.33972l 0.412725, 4.22648l 0.412725, -8.45296l 0.412725, -12.6794l 0.412725, -2.11324l 0.412725, -16.9059l 0.412725,
 -8.45296l 0.412725, 2.11324l 0.412725, 12.6794l 0.412725, -6.33972l 0.412725, -10.5662l 0.412725, -4.22648l 0.412725, 10.5662l 0.412725, 4.22648l 0.412725, 4.22648l 0.412725, -19.0191h 0.412725l 0.412725, 8.45296l 0.412725, 6.33972l 0.412725,
 6.33972l 0.412725, -21.1324l 0.412725, 2.11324l 0.412725, 29.5853l 0.412725, 4.22648h 0.412725l 0.412725, -4.22648h 0.412725l 0.412725, 6.33972l 0.412725, -6.33972l 0.412725, -2.11324l 0.412725, 2.11324l 0.412725, 8.45296l 0.412725, -4.22648l
 0.412725, 2.11324l 0.412725, -2.11324l 0.412725, 4.22648l 0.412725, -27.4721l 0.412725, 6.33972l 0.412725, -12.6794l 0.412725, -12.6794l 0.412725, -2.11324l 0.412725, 4.22648l 0.412725, -2.11324l 0.412725, 4.22648l 0.412725, 27.4721l 0.412725,
 12.6794l 0.412725, 10.5662l 0.412725, -6.33972l 0.412725, 2.11324l 0.412725, -6.33972l 0.412725, -4.22648l 0.412725, -8.45296l 0.412725, -4.22648l 0.412725, -8.45296l 0.412725, -8.45296l 0.412725, -10.5662l 0.412725, -6.33972l 0.412725, 4.22648l
 0.412725, -4.22648l 0.412725, 21.1324l 0.412725, 2.11324l 0.412725, 19.0191l 0.412725, 4.22648l 0.412725, 4.22648l 0.412725, -4.22648l 0.412725, 14.7927l 0.412725, -14.7927l 0.412725, 2.11324l 0.412725, -6.33972l 0.412725, 10.5662l 0.412725,
 -2.11324l 0.412725, -2.11324l 0.412725, 2.11324l 0.412725, -12.6794l 0.412725, 2.11324h 0.412725l 0.412725, -2.11324" fill="none" stroke="#ffcc00"/>
<rect x="65.2919" y="85.0394" width="170.079" height="60.7424" fill="white"/>
<path d="M65.2919,145.782h 170.079" fill="none" stroke="black"/>
<path d="M235.371,145.782v -60.7424" fill="none" stroke="black"/>
<path d="M235.371,85.0394h -170.079" fill="none" stroke="black"/>
<path d="M65.2919,85.0394v 60.7424" fill="none" stroke="black"/>
<text xml:space="preserve" x="107.407" y="95.5681" fill="black" font-size="10.9024" font-family="Helvetica">State 1</text>
<path d="M71.6699,97.9471h 29.7638v -10.6299h -29.7638z" fill="white"/>
<path d="M71.6699,92.6322h 29.7638" fill="none" stroke="#0000ff"/>
<g stroke="black" stroke-width="1" fill="none">
<line x1="85.5517" y1="92.6322" x2="86.5517" y2="92.6322"/>
</g>
<text xml:space="preserve" x="107.407" y="110.956" fill="black" font-size="10.9024" font-family="Helvetica">State 2</text>
<path d="M71.6699,113.133h 29.7638v -10.6299h -29.7638z" fill="white"/>
<path d="M71.6699,107.818h 29.7638" fill="none" stroke="#00ff00"/>
<g stroke="black" stroke-width="1" fill="none">
<line x1="85.5517" y1="107.818" x2="86.5517" y2="107.818"/>
</g>
<text xml:space="preserve" x="107.407" y="126.344" fill="black" font-size="10.9024" font-family="Helvetica">State 3</text>
<path d="M71.6699,128.318h 29.7638v -10.6299h -29.7638z" fill="white"/>
<path d="M71.6699,123.003h 29.7638" fill="none" stroke="#ff0000"/>
<g stroke="black" stroke-width="1" fill="none">
<line x1="85.5517" y1="123.003" x2="86.5517" y2="123.003"/>
</g>
<text xml:space="preserve" x="107.407" y="140.922" fill="black" font-size="10.9024" font-family="Helvetica">State 4</text>
<path d="M71.6699,143.504h 29.7638v -10.6299h -29.7638z" fill="white"/>
<path d="M71.6699,138.189h 29.7638" fill="none" stroke="#ffcc00"/>
<g stroke="black" stroke-width="1" fill="none">
<line x1="85.5517" y1="138.189" x2="86.5517" y2="138.189"/>
</g>
<text xml:space="preserve" x="243.47" y="20.2475" fill="black" font-size="20.2051" font-family="Helvetica">Spheroid</text></svg>
