<?xml version="1.0" encoding="utf-8" standalone="no"?>
<!DOCTYPE svg PUBLIC "-//W3C//DTD SVG 1.1//EN"
  "http://www.w3.org/Graphics/SVG/1.1/DTD/svg11.dtd">
<svg xmlns:xlink="http://www.w3.org/1999/xlink" width="460.8pt" height="345.6pt" viewBox="0 0 460.8 345.6" xmlns="http://www.w3.org/2000/svg" version="1.1">
 <metadata>
  <rdf:RDF xmlns:dc="http://purl.org/dc/elements/1.1/" xmlns:cc="http://creativecommons.org/ns#" xmlns:rdf="http://www.w3.org/1999/02/22-rdf-syntax-ns#">
   <cc:Work>
    <dc:type rdf:resource="http://purl.org/dc/dcmitype/StillImage"/>
    <dc:date>2025-07-13T22:06:34.661095</dc:date>
    <dc:format>image/svg+xml</dc:format>
    <dc:creator>
     <cc:Agent>
      <dc:title>Matplotlib v3.10.1+dfsg1, https://matplotlib.org/</dc:title>
     </cc:Agent>
    </dc:creator>
   </cc:Work>
  </rdf:RDF>
 </metadata>
 <defs>
  <style type="text/css">*{stroke-linejoin: round; stroke-linecap: butt}</style>
 </defs>
 <g id="figure_1">
  <g id="patch_1">
   <path d="M 0 345.6 
L 460.8 345.6 
L 460.8 0 
L 0 0 
z
" style="fill: #ffffff"/>
  </g>
  <g id="axes_1">
   <g id="patch_2">
    <path d="M 57.6 307.584 
L 414.72 307.584 
L 414.72 41.472 
L 57.6 41.472 
z
" style="fill: #ffffff"/>
   </g>
   <g id="matplotlib.axis_1">
    <g id="xtick_1">
     <g id="line2d_1">
      <defs>
       <path id="m51b959ecc0" d="M 0 0 
L 0 3.5 
" style="stroke: #000000; stroke-width: 0.8"/>
      </defs>
      <g>
       <use xlink:href="#m51b959ecc0" x="73.832727" y="307.584" style="stroke: #000000; stroke-width: 0.8"/>
      </g>
     </g>
     <g id="text_1">
      <!-- 0 -->
      <g transform="translate(70.651477 322.182437) scale(0.1 -0.1)">
       <defs>
        <path id="DejaVuSans-30" d="M 2034 4250 
Q 1547 4250 1301 3770 
Q 1056 3291 1056 2328 
Q 1056 1369 1301 889 
Q 1547 409 2034 409 
Q 2525 409 2770 889 
Q 3016 1369 3016 2328 
Q 3016 3291 2770 3770 
Q 2525 4250 2034 4250 
z
M 2034 4750 
Q 2819 4750 3233 4129 
Q 3647 3509 3647 2328 
Q 3647 1150 3233 529 
Q 2819 -91 2034 -91 
Q 1250 -91 836 529 
Q 422 1150 422 2328 
Q 422 3509 836 4129 
Q 1250 4750 2034 4750 
z
" transform="scale(0.015625)"/>
       </defs>
       <use xlink:href="#DejaVuSans-30"/>
      </g>
     </g>
    </g>
    <g id="xtick_2">
     <g id="line2d_2">
      <g>
       <use xlink:href="#m51b959ecc0" x="141.610294" y="307.584" style="stroke: #000000; stroke-width: 0.8"/>
      </g>
     </g>
     <g id="text_2">
      <!-- 10 -->
      <g transform="translate(135.247794 322.182437) scale(0.1 -0.1)">
       <defs>
        <path id="DejaVuSans-31" d="M 794 531 
L 1825 531 
L 1825 4091 
L 703 3866 
L 703 4441 
L 1819 4666 
L 2450 4666 
L 2450 531 
L 3481 531 
L 3481 0 
L 794 0 
L 794 531 
z
" transform="scale(0.015625)"/>
       </defs>
       <use xlink:href="#DejaVuSans-31"/>
       <use xlink:href="#DejaVuSans-30" transform="translate(63.623047 0)"/>
      </g>
     </g>
    </g>
    <g id="xtick_3">
     <g id="line2d_3">
      <g>
       <use xlink:href="#m51b959ecc0" x="209.387861" y="307.584" style="stroke: #000000; stroke-width: 0.8"/>
      </g>
     </g>
     <g id="text_3">
      <!-- 20 -->
      <g transform="translate(203.025361 322.182437) scale(0.1 -0.1)">
       <defs>
        <path id="DejaVuSans-32" d="M 1228 531 
L 3431 531 
L 3431 0 
L 469 0 
L 469 531 
Q 828 903 1448 1529 
Q 2069 2156 2228 2338 
Q 2531 2678 2651 2914 
Q 2772 3150 2772 3378 
Q 2772 3750 2511 3984 
Q 2250 4219 1831 4219 
Q 1534 4219 1204 4116 
Q 875 4013 500 3803 
L 500 4441 
Q 881 4594 1212 4672 
Q 1544 4750 1819 4750 
Q 2544 4750 2975 4387 
Q 3406 4025 3406 3419 
Q 3406 3131 3298 2873 
Q 3191 2616 2906 2266 
Q 2828 2175 2409 1742 
Q 1991 1309 1228 531 
z
" transform="scale(0.015625)"/>
       </defs>
       <use xlink:href="#DejaVuSans-32"/>
       <use xlink:href="#DejaVuSans-30" transform="translate(63.623047 0)"/>
      </g>
     </g>
    </g>
    <g id="xtick_4">
     <g id="line2d_4">
      <g>
       <use xlink:href="#m51b959ecc0" x="277.165428" y="307.584" style="stroke: #000000; stroke-width: 0.8"/>
      </g>
     </g>
     <g id="text_4">
      <!-- 30 -->
      <g transform="translate(270.802928 322.182437) scale(0.1 -0.1)">
       <defs>
        <path id="DejaVuSans-33" d="M 2597 2516 
Q 3050 2419 3304 2112 
Q 3559 1806 3559 1356 
Q 3559 666 3084 287 
Q 2609 -91 1734 -91 
Q 1441 -91 1130 -33 
Q 819 25 488 141 
L 488 750 
Q 750 597 1062 519 
Q 1375 441 1716 441 
Q 2309 441 2620 675 
Q 2931 909 2931 1356 
Q 2931 1769 2642 2001 
Q 2353 2234 1838 2234 
L 1294 2234 
L 1294 2753 
L 1863 2753 
Q 2328 2753 2575 2939 
Q 2822 3125 2822 3475 
Q 2822 3834 2567 4026 
Q 2313 4219 1838 4219 
Q 1578 4219 1281 4162 
Q 984 4106 628 3988 
L 628 4550 
Q 988 4650 1302 4700 
Q 1616 4750 1894 4750 
Q 2613 4750 3031 4423 
Q 3450 4097 3450 3541 
Q 3450 3153 3228 2886 
Q 3006 2619 2597 2516 
z
" transform="scale(0.015625)"/>
       </defs>
       <use xlink:href="#DejaVuSans-33"/>
       <use xlink:href="#DejaVuSans-30" transform="translate(63.623047 0)"/>
      </g>
     </g>
    </g>
    <g id="xtick_5">
     <g id="line2d_5">
      <g>
       <use xlink:href="#m51b959ecc0" x="344.942995" y="307.584" style="stroke: #000000; stroke-width: 0.8"/>
      </g>
     </g>
     <g id="text_5">
      <!-- 40 -->
      <g transform="translate(338.580495 322.182437) scale(0.1 -0.1)">
       <defs>
        <path id="DejaVuSans-34" d="M 2419 4116 
L 825 1625 
L 2419 1625 
L 2419 4116 
z
M 2253 4666 
L 3047 4666 
L 3047 1625 
L 3713 1625 
L 3713 1100 
L 3047 1100 
L 3047 0 
L 2419 0 
L 2419 1100 
L 313 1100 
L 313 1709 
L 2253 4666 
z
" transform="scale(0.015625)"/>
       </defs>
       <use xlink:href="#DejaVuSans-34"/>
       <use xlink:href="#DejaVuSans-30" transform="translate(63.623047 0)"/>
      </g>
     </g>
    </g>
    <g id="xtick_6">
     <g id="line2d_6">
      <g>
       <use xlink:href="#m51b959ecc0" x="412.720562" y="307.584" style="stroke: #000000; stroke-width: 0.8"/>
      </g>
     </g>
     <g id="text_6">
      <!-- 50 -->
      <g transform="translate(406.358062 322.182437) scale(0.1 -0.1)">
       <defs>
        <path id="DejaVuSans-35" d="M 691 4666 
L 3169 4666 
L 3169 4134 
L 1269 4134 
L 1269 2991 
Q 1406 3038 1543 3061 
Q 1681 3084 1819 3084 
Q 2600 3084 3056 2656 
Q 3513 2228 3513 1497 
Q 3513 744 3044 326 
Q 2575 -91 1722 -91 
Q 1428 -91 1123 -41 
Q 819 9 494 109 
L 494 744 
Q 775 591 1075 516 
Q 1375 441 1709 441 
Q 2250 441 2565 725 
Q 2881 1009 2881 1497 
Q 2881 1984 2565 2268 
Q 2250 2553 1709 2553 
Q 1456 2553 1204 2497 
Q 953 2441 691 2322 
L 691 4666 
z
" transform="scale(0.015625)"/>
       </defs>
       <use xlink:href="#DejaVuSans-35"/>
       <use xlink:href="#DejaVuSans-30" transform="translate(63.623047 0)"/>
      </g>
     </g>
    </g>
    <g id="text_7">
     <!-- $t \; [\mathrm{h}]$ -->
     <g transform="translate(225.76 335.860562) scale(0.1 -0.1)">
      <defs>
       <path id="DejaVuSans-Oblique-74" d="M 2706 3500 
L 2619 3053 
L 1472 3053 
L 1100 1153 
Q 1081 1047 1072 975 
Q 1063 903 1063 863 
Q 1063 663 1183 572 
Q 1303 481 1569 481 
L 2150 481 
L 2053 0 
L 1503 0 
Q 991 0 739 200 
Q 488 400 488 806 
Q 488 878 497 964 
Q 506 1050 525 1153 
L 897 3053 
L 409 3053 
L 500 3500 
L 978 3500 
L 1172 4494 
L 1747 4494 
L 1556 3500 
L 2706 3500 
z
" transform="scale(0.015625)"/>
       <path id="DejaVuSans-5b" d="M 550 4863 
L 1875 4863 
L 1875 4416 
L 1125 4416 
L 1125 -397 
L 1875 -397 
L 1875 -844 
L 550 -844 
L 550 4863 
z
" transform="scale(0.015625)"/>
       <path id="DejaVuSans-68" d="M 3513 2113 
L 3513 0 
L 2938 0 
L 2938 2094 
Q 2938 2591 2744 2837 
Q 2550 3084 2163 3084 
Q 1697 3084 1428 2787 
Q 1159 2491 1159 1978 
L 1159 0 
L 581 0 
L 581 4863 
L 1159 4863 
L 1159 2956 
Q 1366 3272 1645 3428 
Q 1925 3584 2291 3584 
Q 2894 3584 3203 3211 
Q 3513 2838 3513 2113 
z
" transform="scale(0.015625)"/>
       <path id="DejaVuSans-5d" d="M 1947 4863 
L 1947 -844 
L 622 -844 
L 622 -397 
L 1369 -397 
L 1369 4416 
L 622 4416 
L 622 4863 
L 1947 4863 
z
" transform="scale(0.015625)"/>
      </defs>
      <use xlink:href="#DejaVuSans-Oblique-74" transform="translate(0 0.015625)"/>
      <use xlink:href="#DejaVuSans-5b" transform="translate(66.26812 0.015625)"/>
      <use xlink:href="#DejaVuSans-68" transform="translate(105.281792 0.015625)"/>
      <use xlink:href="#DejaVuSans-5d" transform="translate(168.660698 0.015625)"/>
     </g>
    </g>
   </g>
   <g id="matplotlib.axis_2">
    <g id="ytick_1">
     <g id="line2d_7">
      <defs>
       <path id="m92c46a074d" d="M 0 0 
L -3.5 0 
" style="stroke: #000000; stroke-width: 0.8"/>
      </defs>
      <g>
       <use xlink:href="#m92c46a074d" x="57.6" y="293.926699" style="stroke: #000000; stroke-width: 0.8"/>
      </g>
     </g>
     <g id="text_8">
      <!-- 100 -->
      <g transform="translate(31.5125 297.725917) scale(0.1 -0.1)">
       <use xlink:href="#DejaVuSans-31"/>
       <use xlink:href="#DejaVuSans-30" transform="translate(63.623047 0)"/>
       <use xlink:href="#DejaVuSans-30" transform="translate(127.246094 0)"/>
      </g>
     </g>
    </g>
    <g id="ytick_2">
     <g id="line2d_8">
      <g>
       <use xlink:href="#m92c46a074d" x="57.6" y="246.015579" style="stroke: #000000; stroke-width: 0.8"/>
      </g>
     </g>
     <g id="text_9">
      <!-- 120 -->
      <g transform="translate(31.5125 249.814798) scale(0.1 -0.1)">
       <use xlink:href="#DejaVuSans-31"/>
       <use xlink:href="#DejaVuSans-32" transform="translate(63.623047 0)"/>
       <use xlink:href="#DejaVuSans-30" transform="translate(127.246094 0)"/>
      </g>
     </g>
    </g>
    <g id="ytick_3">
     <g id="line2d_9">
      <g>
       <use xlink:href="#m92c46a074d" x="57.6" y="198.10446" style="stroke: #000000; stroke-width: 0.8"/>
      </g>
     </g>
     <g id="text_10">
      <!-- 140 -->
      <g transform="translate(31.5125 201.903679) scale(0.1 -0.1)">
       <use xlink:href="#DejaVuSans-31"/>
       <use xlink:href="#DejaVuSans-34" transform="translate(63.623047 0)"/>
       <use xlink:href="#DejaVuSans-30" transform="translate(127.246094 0)"/>
      </g>
     </g>
    </g>
    <g id="ytick_4">
     <g id="line2d_10">
      <g>
       <use xlink:href="#m92c46a074d" x="57.6" y="150.193341" style="stroke: #000000; stroke-width: 0.8"/>
      </g>
     </g>
     <g id="text_11">
      <!-- 160 -->
      <g transform="translate(31.5125 153.992559) scale(0.1 -0.1)">
       <defs>
        <path id="DejaVuSans-36" d="M 2113 2584 
Q 1688 2584 1439 2293 
Q 1191 2003 1191 1497 
Q 1191 994 1439 701 
Q 1688 409 2113 409 
Q 2538 409 2786 701 
Q 3034 994 3034 1497 
Q 3034 2003 2786 2293 
Q 2538 2584 2113 2584 
z
M 3366 4563 
L 3366 3988 
Q 3128 4100 2886 4159 
Q 2644 4219 2406 4219 
Q 1781 4219 1451 3797 
Q 1122 3375 1075 2522 
Q 1259 2794 1537 2939 
Q 1816 3084 2150 3084 
Q 2853 3084 3261 2657 
Q 3669 2231 3669 1497 
Q 3669 778 3244 343 
Q 2819 -91 2113 -91 
Q 1303 -91 875 529 
Q 447 1150 447 2328 
Q 447 3434 972 4092 
Q 1497 4750 2381 4750 
Q 2619 4750 2861 4703 
Q 3103 4656 3366 4563 
z
" transform="scale(0.015625)"/>
       </defs>
       <use xlink:href="#DejaVuSans-31"/>
       <use xlink:href="#DejaVuSans-36" transform="translate(63.623047 0)"/>
       <use xlink:href="#DejaVuSans-30" transform="translate(127.246094 0)"/>
      </g>
     </g>
    </g>
    <g id="ytick_5">
     <g id="line2d_11">
      <g>
       <use xlink:href="#m92c46a074d" x="57.6" y="102.282221" style="stroke: #000000; stroke-width: 0.8"/>
      </g>
     </g>
     <g id="text_12">
      <!-- 180 -->
      <g transform="translate(31.5125 106.08144) scale(0.1 -0.1)">
       <defs>
        <path id="DejaVuSans-38" d="M 2034 2216 
Q 1584 2216 1326 1975 
Q 1069 1734 1069 1313 
Q 1069 891 1326 650 
Q 1584 409 2034 409 
Q 2484 409 2743 651 
Q 3003 894 3003 1313 
Q 3003 1734 2745 1975 
Q 2488 2216 2034 2216 
z
M 1403 2484 
Q 997 2584 770 2862 
Q 544 3141 544 3541 
Q 544 4100 942 4425 
Q 1341 4750 2034 4750 
Q 2731 4750 3128 4425 
Q 3525 4100 3525 3541 
Q 3525 3141 3298 2862 
Q 3072 2584 2669 2484 
Q 3125 2378 3379 2068 
Q 3634 1759 3634 1313 
Q 3634 634 3220 271 
Q 2806 -91 2034 -91 
Q 1263 -91 848 271 
Q 434 634 434 1313 
Q 434 1759 690 2068 
Q 947 2378 1403 2484 
z
M 1172 3481 
Q 1172 3119 1398 2916 
Q 1625 2713 2034 2713 
Q 2441 2713 2670 2916 
Q 2900 3119 2900 3481 
Q 2900 3844 2670 4047 
Q 2441 4250 2034 4250 
Q 1625 4250 1398 4047 
Q 1172 3844 1172 3481 
z
" transform="scale(0.015625)"/>
       </defs>
       <use xlink:href="#DejaVuSans-31"/>
       <use xlink:href="#DejaVuSans-38" transform="translate(63.623047 0)"/>
       <use xlink:href="#DejaVuSans-30" transform="translate(127.246094 0)"/>
      </g>
     </g>
    </g>
    <g id="ytick_6">
     <g id="line2d_12">
      <g>
       <use xlink:href="#m92c46a074d" x="57.6" y="54.371102" style="stroke: #000000; stroke-width: 0.8"/>
      </g>
     </g>
     <g id="text_13">
      <!-- 200 -->
      <g transform="translate(31.5125 58.170321) scale(0.1 -0.1)">
       <use xlink:href="#DejaVuSans-32"/>
       <use xlink:href="#DejaVuSans-30" transform="translate(63.623047 0)"/>
       <use xlink:href="#DejaVuSans-30" transform="translate(127.246094 0)"/>
      </g>
     </g>
    </g>
    <g id="text_14">
     <!-- $\frac{V}{V_0} \; [\%]$ -->
     <g transform="translate(22.4125 189.228) rotate(-90) scale(0.1 -0.1)">
      <defs>
       <path id="DejaVuSans-Oblique-56" d="M 1319 0 
L 500 4666 
L 1119 4666 
L 1797 653 
L 4063 4666 
L 4750 4666 
L 2053 0 
L 1319 0 
z
" transform="scale(0.015625)"/>
       <path id="DejaVuSans-25" d="M 4653 2053 
Q 4381 2053 4226 1822 
Q 4072 1591 4072 1178 
Q 4072 772 4226 539 
Q 4381 306 4653 306 
Q 4919 306 5073 539 
Q 5228 772 5228 1178 
Q 5228 1588 5073 1820 
Q 4919 2053 4653 2053 
z
M 4653 2450 
Q 5147 2450 5437 2106 
Q 5728 1763 5728 1178 
Q 5728 594 5436 251 
Q 5144 -91 4653 -91 
Q 4153 -91 3862 251 
Q 3572 594 3572 1178 
Q 3572 1766 3864 2108 
Q 4156 2450 4653 2450 
z
M 1428 4353 
Q 1159 4353 1004 4120 
Q 850 3888 850 3481 
Q 850 3069 1003 2837 
Q 1156 2606 1428 2606 
Q 1700 2606 1854 2837 
Q 2009 3069 2009 3481 
Q 2009 3884 1853 4118 
Q 1697 4353 1428 4353 
z
M 4250 4750 
L 4750 4750 
L 1831 -91 
L 1331 -91 
L 4250 4750 
z
M 1428 4750 
Q 1922 4750 2215 4408 
Q 2509 4066 2509 3481 
Q 2509 2891 2217 2550 
Q 1925 2209 1428 2209 
Q 931 2209 642 2551 
Q 353 2894 353 3481 
Q 353 4063 643 4406 
Q 934 4750 1428 4750 
z
" transform="scale(0.015625)"/>
      </defs>
      <use xlink:href="#DejaVuSans-Oblique-56" transform="translate(17 43.965625) scale(0.7)"/>
      <use xlink:href="#DejaVuSans-Oblique-56" transform="translate(0 -38.31875) scale(0.7)"/>
      <use xlink:href="#DejaVuSans-30" transform="translate(47.885742 -49.803125) scale(0.49)"/>
      <use xlink:href="#DejaVuSans-5b" transform="translate(120.534233 0.16875)"/>
      <use xlink:href="#DejaVuSans-25" transform="translate(159.547905 0.16875)"/>
      <use xlink:href="#DejaVuSans-5d" transform="translate(254.567437 0.16875)"/>
      <path d="M 0 18.965625 
L 0 25.215625 
L 80.975098 25.215625 
L 80.975098 18.965625 
L 0 18.965625 
z
"/>
     </g>
    </g>
   </g>
   <g id="line2d_13">
    <path d="M 73.832727 293.926699 
L 121.277024 293.926699 
L 131.443659 211.945852 
L 134.832537 187.559025 
L 137.54364 169.674093 
L 140.254743 153.36245 
L 142.965846 138.671563 
L 144.999173 128.710835 
L 147.0325 119.6314 
L 149.065827 111.399516 
L 151.099154 103.970575 
L 153.132481 97.295395 
L 155.165808 91.320216 
L 157.199135 85.990137 
L 159.232462 81.249684 
L 161.265789 77.046242 
L 163.299116 73.326624 
L 165.332443 70.043364 
L 167.36577 67.149566 
L 169.399097 64.604625 
L 171.432424 62.368508 
L 173.465751 60.407474 
L 175.499078 58.688352 
L 178.21018 56.725601 
L 180.921283 55.083685 
L 182.276834 54.367671 
L 182.95461 54.757132 
L 191.087918 54.90411 
L 194.476796 55.101986 
L 195.154572 55.221112 
L 195.832348 55.81453 
L 196.510123 294.236667 
L 243.276645 294.236667 
L 244.632196 283.534188 
L 250.054401 238.968552 
L 253.44328 212.648141 
L 256.832158 188.20298 
L 259.543261 170.265435 
L 262.254363 153.898889 
L 264.965466 139.151384 
L 266.998793 129.14948 
L 269.03212 120.030584 
L 271.065447 111.760383 
L 273.098774 104.295413 
L 275.132101 97.587062 
L 277.165428 91.580429 
L 279.198755 86.221755 
L 281.232082 81.456139 
L 283.265409 77.228677 
L 285.298736 73.487899 
L 287.332063 70.185195 
L 289.36539 67.274811 
L 291.398717 64.714429 
L 293.432044 62.465159 
L 295.465371 60.492114 
L 297.498698 58.762698 
L 300.209801 56.787366 
L 302.920903 55.135728 
L 304.276455 54.415138 
L 304.95423 54.77915 
L 316.476417 55.114225 
L 317.154192 55.225802 
L 317.831968 55.674329 
L 318.509744 294.255539 
L 365.276265 294.255539 
L 365.954041 289.690658 
L 372.054022 239.438079 
L 375.4429 213.089645 
L 378.831778 188.608455 
L 381.542881 170.637739 
L 384.253984 154.236309 
L 386.965086 139.453918 
L 388.998413 129.425706 
L 391.03174 120.281646 
L 393.065067 111.987426 
L 395.098394 104.500152 
L 397.131721 97.770641 
L 398.487273 93.678719 
L 398.487273 93.678719 
" clip-path="url(#pb0cfd085b5)" style="fill: none; stroke: #1f77b4; stroke-width: 1.5; stroke-linecap: square"/>
   </g>
   <g id="line2d_14">
    <path d="M 73.832727 293.926699 
L 121.277024 293.926699 
L 131.443659 211.945852 
L 134.832537 187.559025 
L 137.54364 169.674093 
L 140.254743 153.36245 
L 142.965846 138.671563 
L 144.999173 128.710835 
L 147.0325 119.6314 
L 149.065827 111.399516 
L 151.099154 103.970575 
L 153.132481 97.295395 
L 155.165808 91.320216 
L 157.199135 85.990137 
L 159.232462 81.249684 
L 161.265789 77.046242 
L 163.299116 73.326624 
L 165.332443 70.043364 
L 167.36577 67.149566 
L 169.399097 64.604625 
L 171.432424 62.368508 
L 173.465751 60.407474 
L 175.499078 58.688352 
L 178.21018 56.725601 
L 180.921283 55.083685 
L 182.276834 54.367671 
L 184.310161 89.616535 
L 195.832348 293.238707 
L 196.510123 294.236667 
L 243.276645 294.236667 
L 244.632196 283.534188 
L 250.054401 238.968552 
L 253.44328 212.648141 
L 256.832158 188.20298 
L 259.543261 170.265435 
L 262.254363 153.898889 
L 264.965466 139.151384 
L 266.998793 129.14948 
L 269.03212 120.030584 
L 271.065447 111.760383 
L 273.098774 104.295413 
L 275.132101 97.587062 
L 277.165428 91.580429 
L 279.198755 86.221755 
L 281.232082 81.456139 
L 283.265409 77.228677 
L 285.298736 73.487899 
L 287.332063 70.185195 
L 289.36539 67.274811 
L 291.398717 64.714429 
L 293.432044 62.465159 
L 295.465371 60.492114 
L 297.498698 58.762698 
L 300.209801 56.787366 
L 302.920903 55.135728 
L 304.276455 54.415138 
L 304.95423 64.681259 
L 317.831968 292.259047 
L 318.509744 294.255539 
L 365.276265 294.255539 
L 365.954041 289.690658 
L 372.054022 239.438079 
L 375.4429 213.089645 
L 378.831778 188.608455 
L 381.542881 170.637739 
L 384.253984 154.236309 
L 386.965086 139.453918 
L 388.998413 129.425706 
L 391.03174 120.281646 
L 393.065067 111.987426 
L 395.098394 104.500152 
L 397.131721 97.770641 
L 398.487273 93.678719 
L 398.487273 93.678719 
" clip-path="url(#pb0cfd085b5)" style="fill: none; stroke-dasharray: 5.55,2.4; stroke-dashoffset: 0; stroke: #1f77b4; stroke-width: 1.5"/>
   </g>
   <g id="line2d_15">
    <defs>
     <path id="m98fbba8f60" d="M 0 1.5 
C 0.397805 1.5 0.77937 1.341951 1.06066 1.06066 
C 1.341951 0.77937 1.5 0.397805 1.5 0 
C 1.5 -0.397805 1.341951 -0.77937 1.06066 -1.06066 
C 0.77937 -1.341951 0.397805 -1.5 0 -1.5 
C -0.397805 -1.5 -0.77937 -1.341951 -1.06066 -1.06066 
C -1.341951 -0.77937 -1.5 -0.397805 -1.5 0 
C -1.5 0.397805 -1.341951 0.77937 -1.06066 1.06066 
C -0.77937 1.341951 -0.397805 1.5 0 1.5 
z
" style="stroke: #000000"/>
    </defs>
    <g clip-path="url(#pb0cfd085b5)">
     <use xlink:href="#m98fbba8f60" x="73.832727" y="293.926699" style="stroke: #000000"/>
     <use xlink:href="#m98fbba8f60" x="77.221606" y="293.926699" style="stroke: #000000"/>
     <use xlink:href="#m98fbba8f60" x="80.610484" y="293.926699" style="stroke: #000000"/>
     <use xlink:href="#m98fbba8f60" x="83.999362" y="293.926699" style="stroke: #000000"/>
     <use xlink:href="#m98fbba8f60" x="87.388241" y="293.926699" style="stroke: #000000"/>
     <use xlink:href="#m98fbba8f60" x="90.777119" y="293.926699" style="stroke: #000000"/>
     <use xlink:href="#m98fbba8f60" x="94.165997" y="293.926699" style="stroke: #000000"/>
     <use xlink:href="#m98fbba8f60" x="97.554876" y="293.926699" style="stroke: #000000"/>
     <use xlink:href="#m98fbba8f60" x="100.943754" y="293.926699" style="stroke: #000000"/>
     <use xlink:href="#m98fbba8f60" x="104.332632" y="293.926699" style="stroke: #000000"/>
     <use xlink:href="#m98fbba8f60" x="107.721511" y="293.926699" style="stroke: #000000"/>
     <use xlink:href="#m98fbba8f60" x="111.110389" y="293.926699" style="stroke: #000000"/>
     <use xlink:href="#m98fbba8f60" x="114.499267" y="293.926699" style="stroke: #000000"/>
     <use xlink:href="#m98fbba8f60" x="117.888146" y="293.926699" style="stroke: #000000"/>
     <use xlink:href="#m98fbba8f60" x="121.277024" y="293.926699" style="stroke: #000000"/>
     <use xlink:href="#m98fbba8f60" x="124.665902" y="274.43171" style="stroke: #000000"/>
     <use xlink:href="#m98fbba8f60" x="128.054781" y="246.024509" style="stroke: #000000"/>
     <use xlink:href="#m98fbba8f60" x="131.443659" y="216.193993" style="stroke: #000000"/>
     <use xlink:href="#m98fbba8f60" x="134.832537" y="188.371892" style="stroke: #000000"/>
     <use xlink:href="#m98fbba8f60" x="138.221416" y="163.894428" style="stroke: #000000"/>
     <use xlink:href="#m98fbba8f60" x="141.610294" y="143.054497" style="stroke: #000000"/>
     <use xlink:href="#m98fbba8f60" x="144.999173" y="125.658782" style="stroke: #000000"/>
     <use xlink:href="#m98fbba8f60" x="148.388051" y="111.316776" style="stroke: #000000"/>
     <use xlink:href="#m98fbba8f60" x="151.776929" y="99.585784" style="stroke: #000000"/>
     <use xlink:href="#m98fbba8f60" x="155.165808" y="90.039484" style="stroke: #000000"/>
     <use xlink:href="#m98fbba8f60" x="158.554686" y="82.296678" style="stroke: #000000"/>
     <use xlink:href="#m98fbba8f60" x="161.943564" y="76.029918" style="stroke: #000000"/>
     <use xlink:href="#m98fbba8f60" x="165.332443" y="70.964521" style="stroke: #000000"/>
     <use xlink:href="#m98fbba8f60" x="168.721321" y="66.873416" style="stroke: #000000"/>
     <use xlink:href="#m98fbba8f60" x="172.110199" y="63.570641" style="stroke: #000000"/>
     <use xlink:href="#m98fbba8f60" x="175.499078" y="60.904811" style="stroke: #000000"/>
     <use xlink:href="#m98fbba8f60" x="178.887956" y="58.753167" style="stroke: #000000"/>
     <use xlink:href="#m98fbba8f60" x="182.276834" y="57.016412" style="stroke: #000000"/>
     <use xlink:href="#m98fbba8f60" x="185.665713" y="55.614349" style="stroke: #000000"/>
     <use xlink:href="#m98fbba8f60" x="189.054591" y="54.482273" style="stroke: #000000"/>
     <use xlink:href="#m98fbba8f60" x="192.443469" y="53.568" style="stroke: #000000"/>
     <use xlink:href="#m98fbba8f60" x="195.832348" y="295.488" style="stroke: #000000"/>
     <use xlink:href="#m98fbba8f60" x="199.221226" y="295.488" style="stroke: #000000"/>
     <use xlink:href="#m98fbba8f60" x="202.610104" y="295.189638" style="stroke: #000000"/>
     <use xlink:href="#m98fbba8f60" x="205.998983" y="295.189638" style="stroke: #000000"/>
     <use xlink:href="#m98fbba8f60" x="209.387861" y="294.94851" style="stroke: #000000"/>
     <use xlink:href="#m98fbba8f60" x="212.776739" y="294.94851" style="stroke: #000000"/>
     <use xlink:href="#m98fbba8f60" x="216.165618" y="294.753591" style="stroke: #000000"/>
     <use xlink:href="#m98fbba8f60" x="219.554496" y="294.753591" style="stroke: #000000"/>
     <use xlink:href="#m98fbba8f60" x="222.943374" y="294.59599" style="stroke: #000000"/>
     <use xlink:href="#m98fbba8f60" x="226.332253" y="294.59599" style="stroke: #000000"/>
     <use xlink:href="#m98fbba8f60" x="229.721131" y="294.468532" style="stroke: #000000"/>
     <use xlink:href="#m98fbba8f60" x="233.110009" y="294.468532" style="stroke: #000000"/>
     <use xlink:href="#m98fbba8f60" x="236.498888" y="294.36543" style="stroke: #000000"/>
    </g>
   </g>
   <g id="patch_3">
    <path d="M 57.6 307.584 
L 57.6 41.472 
" style="fill: none; stroke: #000000; stroke-width: 0.8; stroke-linejoin: miter; stroke-linecap: square"/>
   </g>
   <g id="patch_4">
    <path d="M 414.72 307.584 
L 414.72 41.472 
" style="fill: none; stroke: #000000; stroke-width: 0.8; stroke-linejoin: miter; stroke-linecap: square"/>
   </g>
   <g id="patch_5">
    <path d="M 57.6 307.584 
L 414.72 307.584 
" style="fill: none; stroke: #000000; stroke-width: 0.8; stroke-linejoin: miter; stroke-linecap: square"/>
   </g>
   <g id="patch_6">
    <path d="M 57.6 41.472 
L 414.72 41.472 
" style="fill: none; stroke: #000000; stroke-width: 0.8; stroke-linejoin: miter; stroke-linecap: square"/>
   </g>
   <g id="legend_1">
    <g id="line2d_16">
     <path d="M 347.42 54.570438 
L 357.42 54.570438 
L 367.42 54.570438 
" style="fill: none; stroke: #1f77b4; stroke-width: 1.5; stroke-linecap: square"/>
    </g>
    <g id="text_15">
     <!-- $V_\text{parent}$ -->
     <g transform="translate(375.42 58.070438) scale(0.1 -0.1)">
      <defs>
       <path id="DejaVuSans-70" d="M 1159 525 
L 1159 -1331 
L 581 -1331 
L 581 3500 
L 1159 3500 
L 1159 2969 
Q 1341 3281 1617 3432 
Q 1894 3584 2278 3584 
Q 2916 3584 3314 3078 
Q 3713 2572 3713 1747 
Q 3713 922 3314 415 
Q 2916 -91 2278 -91 
Q 1894 -91 1617 61 
Q 1341 213 1159 525 
z
M 3116 1747 
Q 3116 2381 2855 2742 
Q 2594 3103 2138 3103 
Q 1681 3103 1420 2742 
Q 1159 2381 1159 1747 
Q 1159 1113 1420 752 
Q 1681 391 2138 391 
Q 2594 391 2855 752 
Q 3116 1113 3116 1747 
z
" transform="scale(0.015625)"/>
       <path id="DejaVuSans-61" d="M 2194 1759 
Q 1497 1759 1228 1600 
Q 959 1441 959 1056 
Q 959 750 1161 570 
Q 1363 391 1709 391 
Q 2188 391 2477 730 
Q 2766 1069 2766 1631 
L 2766 1759 
L 2194 1759 
z
M 3341 1997 
L 3341 0 
L 2766 0 
L 2766 531 
Q 2569 213 2275 61 
Q 1981 -91 1556 -91 
Q 1019 -91 701 211 
Q 384 513 384 1019 
Q 384 1609 779 1909 
Q 1175 2209 1959 2209 
L 2766 2209 
L 2766 2266 
Q 2766 2663 2505 2880 
Q 2244 3097 1772 3097 
Q 1472 3097 1187 3025 
Q 903 2953 641 2809 
L 641 3341 
Q 956 3463 1253 3523 
Q 1550 3584 1831 3584 
Q 2591 3584 2966 3190 
Q 3341 2797 3341 1997 
z
" transform="scale(0.015625)"/>
       <path id="DejaVuSans-72" d="M 2631 2963 
Q 2534 3019 2420 3045 
Q 2306 3072 2169 3072 
Q 1681 3072 1420 2755 
Q 1159 2438 1159 1844 
L 1159 0 
L 581 0 
L 581 3500 
L 1159 3500 
L 1159 2956 
Q 1341 3275 1631 3429 
Q 1922 3584 2338 3584 
Q 2397 3584 2469 3576 
Q 2541 3569 2628 3553 
L 2631 2963 
z
" transform="scale(0.015625)"/>
       <path id="DejaVuSans-65" d="M 3597 1894 
L 3597 1613 
L 953 1613 
Q 991 1019 1311 708 
Q 1631 397 2203 397 
Q 2534 397 2845 478 
Q 3156 559 3463 722 
L 3463 178 
Q 3153 47 2828 -22 
Q 2503 -91 2169 -91 
Q 1331 -91 842 396 
Q 353 884 353 1716 
Q 353 2575 817 3079 
Q 1281 3584 2069 3584 
Q 2775 3584 3186 3129 
Q 3597 2675 3597 1894 
z
M 3022 2063 
Q 3016 2534 2758 2815 
Q 2500 3097 2075 3097 
Q 1594 3097 1305 2825 
Q 1016 2553 972 2059 
L 3022 2063 
z
" transform="scale(0.015625)"/>
       <path id="DejaVuSans-6e" d="M 3513 2113 
L 3513 0 
L 2938 0 
L 2938 2094 
Q 2938 2591 2744 2837 
Q 2550 3084 2163 3084 
Q 1697 3084 1428 2787 
Q 1159 2491 1159 1978 
L 1159 0 
L 581 0 
L 581 3500 
L 1159 3500 
L 1159 2956 
Q 1366 3272 1645 3428 
Q 1925 3584 2291 3584 
Q 2894 3584 3203 3211 
Q 3513 2838 3513 2113 
z
" transform="scale(0.015625)"/>
       <path id="DejaVuSans-74" d="M 1172 4494 
L 1172 3500 
L 2356 3500 
L 2356 3053 
L 1172 3053 
L 1172 1153 
Q 1172 725 1289 603 
Q 1406 481 1766 481 
L 2356 481 
L 2356 0 
L 1766 0 
Q 1100 0 847 248 
Q 594 497 594 1153 
L 594 3053 
L 172 3053 
L 172 3500 
L 594 3500 
L 594 4494 
L 1172 4494 
z
" transform="scale(0.015625)"/>
      </defs>
      <use xlink:href="#DejaVuSans-Oblique-56" transform="translate(0 0.09375)"/>
      <use xlink:href="#DejaVuSans-70" transform="translate(68.408203 -16.3125) scale(0.7)"/>
      <use xlink:href="#DejaVuSans-61" transform="translate(112.841797 -16.3125) scale(0.7)"/>
      <use xlink:href="#DejaVuSans-72" transform="translate(155.737305 -16.3125) scale(0.7)"/>
      <use xlink:href="#DejaVuSans-65" transform="translate(184.516602 -16.3125) scale(0.7)"/>
      <use xlink:href="#DejaVuSans-6e" transform="translate(227.583008 -16.3125) scale(0.7)"/>
      <use xlink:href="#DejaVuSans-74" transform="translate(271.948242 -16.3125) scale(0.7)"/>
     </g>
    </g>
    <g id="line2d_17">
     <path d="M 347.42 70.268875 
L 357.42 70.268875 
L 367.42 70.268875 
" style="fill: none; stroke-dasharray: 5.55,2.4; stroke-dashoffset: 0; stroke: #1f77b4; stroke-width: 1.5"/>
    </g>
    <g id="text_16">
     <!-- $V_\text{child}$ -->
     <g transform="translate(375.42 73.768875) scale(0.1 -0.1)">
      <defs>
       <path id="DejaVuSans-63" d="M 3122 3366 
L 3122 2828 
Q 2878 2963 2633 3030 
Q 2388 3097 2138 3097 
Q 1578 3097 1268 2742 
Q 959 2388 959 1747 
Q 959 1106 1268 751 
Q 1578 397 2138 397 
Q 2388 397 2633 464 
Q 2878 531 3122 666 
L 3122 134 
Q 2881 22 2623 -34 
Q 2366 -91 2075 -91 
Q 1284 -91 818 406 
Q 353 903 353 1747 
Q 353 2603 823 3093 
Q 1294 3584 2113 3584 
Q 2378 3584 2631 3529 
Q 2884 3475 3122 3366 
z
" transform="scale(0.015625)"/>
       <path id="DejaVuSans-69" d="M 603 3500 
L 1178 3500 
L 1178 0 
L 603 0 
L 603 3500 
z
M 603 4863 
L 1178 4863 
L 1178 4134 
L 603 4134 
L 603 4863 
z
" transform="scale(0.015625)"/>
       <path id="DejaVuSans-6c" d="M 603 4863 
L 1178 4863 
L 1178 0 
L 603 0 
L 603 4863 
z
" transform="scale(0.015625)"/>
       <path id="DejaVuSans-64" d="M 2906 2969 
L 2906 4863 
L 3481 4863 
L 3481 0 
L 2906 0 
L 2906 525 
Q 2725 213 2448 61 
Q 2172 -91 1784 -91 
Q 1150 -91 751 415 
Q 353 922 353 1747 
Q 353 2572 751 3078 
Q 1150 3584 1784 3584 
Q 2172 3584 2448 3432 
Q 2725 3281 2906 2969 
z
M 947 1747 
Q 947 1113 1208 752 
Q 1469 391 1925 391 
Q 2381 391 2643 752 
Q 2906 1113 2906 1747 
Q 2906 2381 2643 2742 
Q 2381 3103 1925 3103 
Q 1469 3103 1208 2742 
Q 947 2381 947 1747 
z
" transform="scale(0.015625)"/>
      </defs>
      <use xlink:href="#DejaVuSans-Oblique-56" transform="translate(0 0.09375)"/>
      <use xlink:href="#DejaVuSans-63" transform="translate(68.408203 -16.3125) scale(0.7)"/>
      <use xlink:href="#DejaVuSans-68" transform="translate(106.894531 -16.3125) scale(0.7)"/>
      <use xlink:href="#DejaVuSans-69" transform="translate(151.259766 -16.3125) scale(0.7)"/>
      <use xlink:href="#DejaVuSans-6c" transform="translate(170.708008 -16.3125) scale(0.7)"/>
      <use xlink:href="#DejaVuSans-64" transform="translate(190.15625 -16.3125) scale(0.7)"/>
     </g>
    </g>
    <g id="line2d_18">
     <g>
      <use xlink:href="#m98fbba8f60" x="357.42" y="84.947" style="stroke: #000000"/>
     </g>
    </g>
    <g id="text_17">
     <!-- Data -->
     <g transform="translate(375.42 88.447) scale(0.1 -0.1)">
      <defs>
       <path id="DejaVuSans-44" d="M 1259 4147 
L 1259 519 
L 2022 519 
Q 2988 519 3436 956 
Q 3884 1394 3884 2338 
Q 3884 3275 3436 3711 
Q 2988 4147 2022 4147 
L 1259 4147 
z
M 628 4666 
L 1925 4666 
Q 3281 4666 3915 4102 
Q 4550 3538 4550 2338 
Q 4550 1131 3912 565 
Q 3275 0 1925 0 
L 628 0 
L 628 4666 
z
" transform="scale(0.015625)"/>
      </defs>
      <use xlink:href="#DejaVuSans-44"/>
      <use xlink:href="#DejaVuSans-61" transform="translate(77.001953 0)"/>
      <use xlink:href="#DejaVuSans-74" transform="translate(138.28125 0)"/>
      <use xlink:href="#DejaVuSans-61" transform="translate(177.490234 0)"/>
     </g>
    </g>
   </g>
  </g>
 </g>
 <defs>
  <clipPath id="pb0cfd085b5">
   <rect x="57.6" y="41.472" width="357.12" height="266.112"/>
  </clipPath>
 </defs>
</svg>
